<?xml version="1.0" standalone="no"?>
<!DOCTYPE svg PUBLIC "-//W3C//DTD SVG 20010904//EN"
 "http://www.w3.org/TR/2001/REC-SVG-20010904/DTD/svg10.dtd">
<svg version="1.0" xmlns="http://www.w3.org/2000/svg"
 width="250.000000pt" height="250.000000pt" viewBox="0 0 250.000000 250.000000"
 preserveAspectRatio="xMidYMid meet">
<metadata>
Created by potrace 1.16, written by Peter Selinger 2001-2019
</metadata>
<g transform="translate(0.000000,250.000000) scale(0.024534,-0.024390)"
fill="#000000" stroke="none">
<path d="M5190 10115 c-8 -10 -10 -29 -7 -53 6 -37 92 -215 111 -231 12 -10
126 7 126 18 0 11 -48 128 -72 176 -32 64 -77 105 -114 105 -17 0 -37 -7 -44
-15z"/>
<path d="M5025 9937 c-29 -22 -12 -73 53 -158 31 -42 84 -115 116 -163 33 -47
62 -86 65 -86 3 1 31 23 61 50 44 39 52 52 42 62 -8 8 -12 9 -12 0 0 -12 -61
-32 -102 -32 -55 0 -81 100 -37 146 19 20 19 24 6 50 -22 42 -102 123 -132
134 -34 13 -38 13 -60 -3z"/>
<path d="M5329 9801 c-103 -32 -153 -106 -97 -145 34 -24 55 -20 94 18 37 36
56 37 102 8 28 -18 30 -62 3 -62 -15 0 -69 -42 -155 -120 -4 -5 4 -49 18 -98
14 -50 26 -98 26 -107 0 -13 4 -14 20 -5 17 9 20 17 14 45 -5 28 -2 35 16 45
31 16 108 5 173 -25 53 -24 70 -22 96 9 9 11 11 30 6 62 l-7 46 -44 -7 c-77
-11 -114 29 -129 142 -6 44 -3 58 14 87 12 19 27 36 33 38 16 6 -17 53 -48 66
-28 13 -96 14 -135 3z"/>
<path d="M5592 9720 c-36 -4 -70 -14 -79 -23 -20 -20 -19 -71 2 -143 19 -65
42 -81 85 -59 29 15 30 17 24 70 -7 57 -1 65 30 42 15 -11 16 -19 8 -50 -8
-28 -7 -48 3 -80 7 -23 16 -59 20 -80 5 -31 12 -41 39 -52 18 -8 46 -16 62
-18 37 -5 104 29 104 53 0 27 -11 51 -20 45 -5 -3 -6 3 -3 14 6 23 -27 88 -61
120 -16 15 -34 51 -46 92 -11 37 -27 70 -36 73 -18 7 -44 6 -132 -4z"/>
<path d="M5375 9340 c-3 -5 6 -17 20 -26 37 -24 31 -40 -17 -48 -23 -4 -65
-20 -94 -36 -40 -23 -64 -30 -107 -30 -158 0 -246 -63 -177 -125 14 -13 31
-16 67 -12 26 3 118 12 204 20 257 25 315 36 345 63 15 15 23 31 20 40 -3 8
-2 12 4 9 6 -4 10 5 10 20 0 43 -35 82 -93 104 -60 22 -173 35 -182 21z"/>
<path d="M5858 9323 c-17 -16 -121 -26 -111 -10 8 12 -42 8 -62 -6 -13 -10
-16 -22 -13 -41 6 -30 -26 -151 -42 -161 -6 -3 0 -16 11 -28 21 -22 112 -145
162 -220 15 -23 57 -101 92 -172 35 -72 80 -155 99 -185 39 -59 154 -203 222
-278 41 -46 42 -46 68 -29 14 10 26 21 26 26 0 5 28 39 61 76 59 65 61 70 56
109 -4 23 -17 69 -31 103 -49 119 -44 189 16 214 41 17 56 6 98 -72 48 -89 90
-148 197 -283 l23 -28 19 23 c18 22 18 24 -3 68 -64 138 -148 267 -233 357
-21 22 -92 81 -158 130 -134 100 -284 233 -392 347 -40 43 -76 77 -81 77 -4 0
-15 -7 -24 -17z"/>
<path d="M3710 8816 c-105 -61 -153 -109 -200 -198 l-40 -76 51 -33 c28 -17
58 -44 67 -58 9 -14 34 -50 56 -80 l40 -53 19 43 c32 78 67 118 135 156 102
57 132 88 132 134 0 95 -100 65 -248 -76 -62 -60 -82 -67 -82 -32 0 27 32 74
116 168 68 77 89 111 81 133 -10 27 -49 18 -127 -28z"/>
<path d="M6410 8675 c-7 -8 -15 -35 -18 -60 -4 -37 1 -55 27 -104 20 -38 31
-73 31 -100 0 -35 6 -47 41 -82 41 -41 108 -78 142 -79 28 0 20 -21 -29 -80
-63 -76 -69 -94 -49 -157 18 -58 16 -94 -16 -237 -11 -48 -19 -90 -17 -92 2
-2 74 65 160 149 175 170 163 147 173 327 5 93 3 109 -14 137 -32 52 -53 57
-86 23 -16 -17 -32 -30 -37 -30 -4 0 -16 15 -25 33 -34 64 -248 367 -259 367
-6 0 -17 -7 -24 -15z"/>
<path d="M4849 8631 c-19 -4 -57 -20 -84 -35 l-50 -27 25 26 25 26 -27 -10
c-60 -23 -107 -52 -132 -81 -26 -31 -27 -31 -77 -21 -27 6 -67 11 -87 10 l-37
0 50 -25 c58 -29 85 -51 42 -35 -16 6 -54 11 -85 11 l-57 -1 40 -18 40 -18
-75 4 -75 4 40 -20 40 -19 -65 -1 c-86 -2 -106 -15 -46 -30 25 -6 46 -13 46
-14 0 -2 -15 -3 -32 -3 -18 0 -46 -4 -63 -8 l-30 -8 35 -13 35 -13 -35 -2
c-19 -1 -44 -5 -55 -10 -19 -8 -19 -9 2 -9 35 -1 38 -21 4 -21 -17 0 -31 -4
-31 -10 0 -5 7 -10 15 -10 22 0 20 -5 -30 -57 -25 -26 -67 -91 -95 -144 -27
-53 -69 -120 -93 -150 -46 -56 -62 -94 -72 -169 -7 -59 15 -150 50 -200 15
-22 108 -117 206 -210 98 -94 201 -199 229 -235 51 -62 85 -84 104 -65 6 6 -6
26 -32 54 -22 24 -50 62 -61 83 -22 45 -51 149 -51 187 0 20 -6 27 -27 32
-128 28 -184 60 -209 119 -17 41 -4 100 30 133 31 32 110 40 178 19 50 -16 59
-12 72 28 3 11 28 44 56 73 39 41 50 60 50 85 0 47 -20 70 -110 121 -88 51
-105 77 -76 121 48 73 286 167 508 200 129 20 139 19 182 -10 20 -14 39 -25
42 -25 6 0 -47 83 -60 93 -20 15 53 -2 94 -22 22 -10 40 -16 40 -11 0 4 -20
26 -45 49 -25 23 -45 43 -45 46 0 6 54 -11 88 -29 17 -9 34 -16 37 -16 14 0
-49 66 -88 93 -22 15 -34 28 -26 28 38 4 113 -3 136 -12 23 -9 25 -8 13 6 -7
9 -33 28 -58 42 -42 25 -71 31 -151 32 -29 1 -32 3 -21 17 8 8 33 27 57 41 24
14 42 28 39 30 -8 8 -112 -17 -150 -36 -47 -25 -46 -18 6 19 22 16 37 29 32
29 -5 -1 -25 -4 -45 -8z"/>
<path d="M3332 8531 c-76 -20 -123 -43 -137 -71 -8 -15 -29 -34 -48 -43 -41
-20 -58 -39 -87 -97 -18 -35 -60 -145 -60 -156 0 -1 26 -12 58 -24 78 -30 156
-25 206 13 35 27 48 57 61 140 4 22 11 37 20 37 14 0 65 -55 65 -71 0 -15 72
-89 102 -105 58 -30 63 10 14 113 -19 39 -50 89 -70 111 -48 53 -45 60 8 22
47 -34 54 -47 93 -155 33 -92 41 -100 90 -88 33 8 38 13 36 37 -5 69 -118 246
-192 300 -55 40 -101 51 -159 37z"/>
<path d="M6384 8265 c-23 -23 -25 -31 -19 -76 7 -47 5 -53 -21 -80 -15 -16
-31 -29 -34 -29 -3 0 -20 20 -38 45 -19 27 -39 45 -51 45 -25 0 -126 -69 -173
-117 -111 -115 -140 -293 -78 -471 23 -65 42 -83 123 -112 61 -22 69 -36 37
-65 -27 -25 -37 -65 -45 -182 l-7 -103 55 -57 c60 -64 82 -100 92 -156 4 -20
11 -37 16 -37 5 0 21 19 36 43 26 39 28 49 30 165 1 84 7 131 16 150 8 15 31
57 51 93 58 108 68 144 76 279 6 115 9 130 39 186 41 77 53 186 27 248 -23 55
-20 68 19 109 19 20 35 41 35 46 0 16 -67 74 -102 88 -43 18 -55 16 -84 -12z"/>
<path d="M4760 8249 c-38 -6 -78 -19 -95 -31 -25 -18 -28 -19 -15 -3 14 17 13
18 -5 11 -11 -4 -29 -10 -40 -12 -23 -4 -148 -53 -216 -83 -57 -25 -99 -64
-99 -90 0 -24 61 -73 94 -75 13 0 23 -2 21 -4 -2 -2 12 -18 30 -35 33 -32 69
-116 59 -140 -2 -7 -22 -23 -43 -36 -45 -28 -91 -94 -91 -131 0 -56 48 -75
235 -96 53 -5 64 -10 97 -46 20 -22 47 -55 60 -74 13 -19 25 -34 28 -34 3 0
11 13 17 30 15 40 38 47 92 26 97 -37 162 -48 224 -37 72 13 141 46 173 84 28
34 32 91 8 125 -12 17 -14 39 -11 91 8 102 -7 155 -51 189 -20 15 -55 36 -77
46 -38 16 -42 21 -58 85 -14 53 -31 85 -78 147 -34 43 -67 82 -74 86 -23 13
-119 17 -185 7z"/>
<path d="M3368 8149 c-23 -13 -68 -90 -68 -115 0 -24 45 -74 68 -75 9 0 142
-2 295 -4 l279 -2 10 22 c12 27 -3 61 -29 69 -10 3 -61 14 -113 25 -52 10
-108 25 -125 31 -16 7 -68 13 -115 14 -69 1 -92 5 -121 24 -40 24 -55 26 -81
11z"/>
<path d="M2909 8044 c-29 -48 -85 -123 -125 -167 -40 -44 -102 -123 -139 -176
-36 -53 -75 -107 -85 -121 -34 -43 -54 -145 -54 -275 -1 -125 9 -175 44 -215
25 -28 37 -20 45 32 10 57 51 98 99 98 41 0 47 -17 16 -45 -59 -53 17 -63 82
-10 24 19 53 40 65 46 13 7 31 38 48 84 14 40 40 94 56 120 39 62 65 145 74
234 4 47 15 92 30 120 29 57 104 160 163 223 56 60 49 73 -49 82 -73 8 -167
31 -183 47 -21 20 -37 6 -87 -77z"/>
<path d="M3244 7968 c-45 -49 -136 -181 -154 -221 -10 -23 -20 -81 -24 -130
-7 -99 -21 -141 -60 -181 -29 -28 -70 -111 -81 -162 -6 -31 -5 -32 38 -38 25
-4 61 -15 82 -26 27 -14 43 -16 61 -10 l24 10 0 196 0 196 81 165 c78 159 81
167 68 195 l-14 29 -21 -23z"/>
<path d="M6856 7966 c-8 -14 -70 -79 -135 -145 -135 -136 -233 -273 -257 -361
-56 -200 -70 -241 -100 -297 -19 -34 -34 -70 -34 -81 0 -27 40 -52 127 -81 91
-30 109 -48 94 -92 -19 -55 -14 -85 21 -114 l32 -27 26 76 c24 66 37 86 115
168 139 146 214 276 246 427 17 81 6 261 -21 346 -25 78 -75 191 -89 199 -5 3
-16 -5 -25 -18z"/>
<path d="M4175 7616 c-5 -3 -22 -7 -37 -10 -64 -14 -77 -73 -28 -125 17 -17
34 -31 38 -31 4 0 61 -11 126 -25 131 -28 186 -32 186 -13 0 26 -74 120 -109
139 -20 10 -47 28 -61 39 -24 18 -93 34 -115 26z"/>
<path d="M2498 7558 c-53 -70 -128 -251 -153 -368 -8 -39 -31 -101 -50 -137
-19 -36 -35 -78 -35 -93 0 -29 27 -59 76 -83 l30 -16 -17 52 c-10 29 -18 60
-19 69 0 31 41 47 128 50 45 2 82 4 82 5 0 1 -13 23 -30 49 -44 69 -55 140
-42 251 7 50 23 127 36 169 14 43 24 80 22 81 -2 2 -14 -11 -28 -29z"/>
<path d="M4585 7480 c-11 -4 -37 -23 -59 -42 l-38 -33 44 -32 c25 -18 64 -58
89 -90 58 -77 141 -174 213 -250 32 -34 68 -78 80 -97 12 -19 45 -52 73 -75
29 -23 61 -53 70 -68 l17 -26 7 24 c12 43 9 120 -7 181 -8 33 -13 62 -10 65 7
8 45 -57 58 -100 9 -28 8 -50 0 -88 -7 -28 -12 -67 -12 -86 l0 -36 30 45 c16
25 72 85 122 134 110 104 117 115 118 174 0 43 -3 48 -76 118 l-76 72 7 46 c3
26 11 57 17 70 6 13 9 26 7 28 -2 3 -33 -9 -67 -25 -95 -46 -154 -49 -245 -10
-42 17 -82 31 -91 31 -9 0 -20 -19 -30 -52 -25 -82 -28 -84 -64 -31 -38 59
-110 137 -137 151 -11 5 -29 6 -40 2z"/>
<path d="M5807 7456 c-90 -55 -161 -146 -180 -231 -11 -50 -19 -61 -78 -113
-156 -136 -327 -292 -362 -331 -46 -51 -94 -148 -103 -206 -4 -27 0 -58 10
-89 13 -39 14 -58 5 -115 -10 -61 -9 -75 9 -127 11 -33 25 -85 32 -116 13 -68
37 -101 93 -130 35 -18 61 -22 159 -24 105 -1 123 -4 168 -28 82 -43 131 -34
208 37 106 99 154 112 292 82 94 -21 102 -19 81 14 -8 13 -12 13 -28 0 -16
-13 -17 -13 -4 4 12 15 10 25 -14 79 -24 54 -27 71 -24 142 4 93 3 282 -1 390
-2 80 6 115 52 218 l31 67 -50 45 c-73 66 -79 86 -58 201 20 115 15 151 -28
192 -70 67 -143 80 -210 39z"/>
<path d="M4326 7338 c15 -120 31 -151 156 -296 84 -98 100 -128 117 -216 14
-75 38 -102 105 -115 111 -22 110 -22 116 32 l5 47 69 -59 c61 -53 118 -82
132 -68 3 3 -5 22 -18 44 -42 66 -42 69 -2 31 22 -21 45 -38 51 -38 30 0 -24
92 -82 140 -76 63 -142 132 -225 234 -50 61 -107 123 -128 137 -47 34 -283
169 -294 169 -4 0 -5 -19 -2 -42z"/>
<path d="M2909 7210 c-14 -4 -65 -37 -113 -74 -47 -36 -91 -66 -97 -66 -5 0
-17 16 -25 35 -25 61 -55 40 -69 -47 -7 -44 -24 -52 -111 -50 -33 0 -67 -4
-75 -8 -30 -19 12 -34 128 -47 65 -7 127 -14 138 -15 15 -2 20 5 26 37 5 32
18 50 63 91 81 73 148 108 196 100 39 -6 70 0 70 14 0 19 -93 40 -131 30z"/>
<path d="M3175 7185 c-146 -32 -245 -93 -245 -150 0 -13 12 -61 26 -107 24
-77 31 -88 97 -154 133 -130 234 -154 430 -100 56 15 62 14 119 -6 50 -17 62
-18 69 -7 15 24 10 45 -24 111 -19 35 -47 101 -62 148 -43 128 -109 218 -190
256 -57 27 -125 30 -220 9z"/>
<path d="M2806 7074 c-73 -61 -79 -79 -44 -128 25 -36 130 -128 249 -218 128
-98 130 -97 35 7 -79 87 -107 147 -126 271 -13 87 -25 124 -39 124 -6 0 -39
-25 -75 -56z"/>
<path d="M6348 6983 c-40 -45 -60 -103 -56 -159 6 -68 32 -107 79 -115 19 -3
47 -11 62 -18 64 -25 87 -1 87 94 0 87 -22 126 -104 186 -46 34 -48 34 -68 12z"/>
<path d="M4347 6892 l-128 -95 28 -23 c55 -46 86 -54 195 -54 141 0 150 3 143
49 -16 94 -29 133 -62 175 -20 26 -38 46 -42 45 -3 0 -64 -44 -134 -97z"/>
<path d="M2383 6908 c4 -34 25 -87 59 -154 l52 -102 56 -6 c126 -13 500 -19
500 -8 0 13 -44 46 -124 93 -32 19 -81 56 -110 82 -77 73 -113 88 -230 96 -73
6 -113 14 -143 29 -62 32 -67 30 -60 -30z"/>
<path d="M6137 6833 c-19 -59 -38 -126 -41 -148 -7 -43 24 -241 44 -287 9 -18
9 -35 2 -62 -9 -33 -6 -48 24 -128 31 -80 35 -99 31 -157 -3 -36 -6 -67 -6
-67 -1 -1 -38 9 -83 22 -95 28 -195 31 -238 9 -17 -9 -30 -20 -30 -25 0 -12
37 -32 75 -40 23 -4 31 -12 36 -40 7 -32 37 -65 69 -74 8 -2 46 -7 83 -11 l68
-7 -43 -21 c-24 -12 -43 -29 -43 -37 0 -21 43 -40 93 -40 37 0 44 -3 53 -27
15 -39 -9 -291 -31 -318 -4 -5 -5 -66 -1 -135 3 -69 3 -161 -1 -205 -3 -44 -5
-81 -5 -82 1 -1 25 52 54 116 63 144 103 262 137 405 29 125 100 280 169 368
82 105 117 223 117 398 0 58 -6 143 -14 190 -8 47 -20 123 -27 169 -17 108
-79 213 -79 132 0 -15 -11 -45 -25 -65 -14 -20 -25 -41 -25 -46 0 -16 -13 -11
-50 20 -19 17 -43 30 -53 30 -21 0 -56 -72 -65 -132 -2 -21 -8 -41 -12 -43
-10 -6 -36 64 -60 165 -18 80 -77 270 -85 278 -2 2 -19 -45 -38 -105z"/>
<path d="M3668 6919 c-27 -8 -38 -17 -38 -30 0 -24 41 -109 90 -186 63 -98 92
-177 91 -247 -1 -103 8 -118 169 -281 155 -157 210 -225 210 -257 0 -31 29
-85 54 -102 20 -12 34 -13 97 -2 l74 13 37 -33 c94 -84 112 -81 388 59 268
136 265 133 255 266 -3 46 -13 101 -21 122 -12 29 -14 51 -6 99 9 63 -6 220
-26 271 -12 30 -28 35 -132 44 -41 3 -117 15 -169 27 -87 20 -104 21 -220 10
-159 -14 -201 -6 -268 51 -75 64 -171 123 -248 153 -59 23 -89 27 -185 30 -63
2 -132 -2 -152 -7z"/>
<path d="M3427 6629 c-27 -14 -36 -24 -29 -32 5 -7 30 -38 55 -69 42 -53 56
-84 72 -160 10 -52 30 -61 116 -53 89 8 94 6 194 -73 60 -48 66 -51 42 -22
-68 85 -85 122 -92 194 -14 149 -37 181 -154 216 -86 25 -155 25 -204 -1z"/>
<path d="M2510 6611 c0 -15 85 -126 131 -171 178 -173 444 -280 701 -280 l76
0 26 44 c25 42 74 76 111 76 12 0 8 7 -14 26 -23 19 -37 46 -57 111 -32 105
-76 159 -154 187 -48 17 -64 18 -238 7 -137 -9 -216 -10 -297 -2 -134 13 -285
14 -285 2z"/>
<path d="M3620 6274 c-52 -14 -100 -30 -107 -36 -50 -41 72 -264 251 -456 55
-59 204 -180 307 -251 86 -58 257 -151 279 -151 12 0 10 46 -4 105 -2 11 -5
30 -5 43 -1 17 -11 27 -36 38 -38 16 -46 34 -16 34 27 0 34 15 20 39 -10 15
-9 24 4 45 9 14 17 32 17 41 0 17 -46 39 -61 30 -7 -5 -49 30 -178 149 -19 17
-53 61 -76 97 -24 36 -72 92 -109 125 -36 32 -71 71 -77 86 -12 29 -61 71 -94
81 -11 3 -63 -5 -115 -19z"/>
<path d="M5299 5937 c-36 -21 -37 -21 -78 -3 -33 16 -46 17 -66 8 -30 -14 -30
-17 -4 -76 11 -26 17 -55 14 -66 -10 -30 12 -58 53 -69 63 -16 177 -23 255
-16 63 6 76 10 85 29 5 12 33 47 61 78 l51 56 -44 -5 c-62 -7 -206 26 -206 48
0 10 -54 39 -72 39 -7 -1 -29 -11 -49 -23z"/>
<path d="M5760 5891 c-82 -43 -180 -135 -180 -171 0 -11 19 -38 41 -60 39 -37
41 -42 36 -82 -5 -39 -3 -47 34 -88 43 -49 45 -56 24 -83 -30 -41 -28 -91 6
-169 29 -63 33 -84 33 -153 0 -128 -18 -259 -41 -292 -11 -15 -46 -93 -78
-173 -56 -140 -118 -272 -151 -317 -15 -20 -11 -20 63 8 205 79 363 143 413
168 l55 27 5 90 c4 71 10 99 32 139 93 173 101 201 119 409 15 167 10 186 -51
186 -22 0 -40 4 -40 9 0 5 26 29 58 53 l57 44 3 74 c2 41 1 98 -3 126 l-6 52
-60 4 c-38 3 -66 10 -77 22 -16 15 -16 19 -1 45 l16 28 -53 17 c-36 11 -62 27
-76 46 -18 25 -24 28 -37 17 -8 -6 -5 1 7 17 12 16 22 33 22 37 0 5 -21 9 -47
9 -35 -1 -68 -11 -123 -39z"/>
<path d="M5015 5891 c-78 -28 -136 -60 -184 -102 -24 -22 -50 -39 -57 -39 -19
0 -18 -16 2 -24 30 -12 99 -6 173 15 54 15 88 19 124 15 l49 -7 -4 71 c-5 95
-15 102 -103 71z"/>
<path d="M4380 5765 c-9 -11 -9 -26 0 -68 11 -48 10 -57 -9 -96 l-22 -42 20
-42 c15 -31 21 -73 26 -162 19 -358 58 -584 118 -672 23 -34 37 -28 37 15 0
31 16 28 62 -14 56 -50 64 -36 43 67 -9 46 -23 98 -31 117 -22 53 -18 116 12
174 35 68 29 112 -25 190 -48 69 -61 112 -61 199 1 35 -4 81 -9 102 -11 47 -3
116 16 139 16 18 10 38 -12 38 -8 0 -40 16 -72 35 -65 39 -75 41 -93 20z"/>
<path d="M5005 5719 c-56 -4 -128 -14 -162 -23 -33 -9 -95 -16 -136 -16 -64 0
-80 -3 -102 -22 l-26 -23 10 -143 c5 -79 12 -146 15 -149 2 -3 18 10 34 29 17
18 51 44 77 57 40 20 56 23 113 17 202 -18 222 -18 249 -7 16 6 35 22 43 34
19 30 27 221 10 242 -7 8 -15 14 -19 14 -3 -1 -51 -5 -106 -10z"/>
<path d="M5186 5653 c-3 -21 -6 -63 -6 -94 0 -47 5 -63 30 -98 17 -23 36 -44
43 -47 7 -2 56 -1 109 4 53 4 95 6 93 3 -3 -2 34 -17 81 -32 95 -32 119 -28
130 17 5 18 0 38 -15 65 -12 21 -23 55 -24 74 -1 23 -6 34 -14 30 -10 -3 -10
0 -1 14 9 14 7 23 -8 44 -31 42 -61 49 -206 45 -73 -2 -149 0 -169 5 -36 7
-36 7 -43 -30z"/>
<path d="M4699 5380 c-49 -52 -56 -78 -34 -146 12 -38 16 -76 13 -122 -4 -64
-3 -69 28 -105 31 -37 44 -74 44 -123 0 -13 4 -24 9 -24 5 0 39 34 76 75 37
41 82 84 100 95 35 22 106 27 148 11 40 -16 66 -2 87 45 27 58 25 72 -5 44
-13 -12 -22 -26 -20 -30 2 -4 -3 -7 -11 -7 -9 0 1 16 26 42 36 37 40 46 40 90
0 60 -24 153 -43 173 -13 12 -16 10 -25 -17 -13 -37 -16 -37 -74 -11 -52 23
-199 50 -271 50 -46 0 -54 -4 -88 -40z"/>
<path d="M5243 5375 c-8 -14 -6 -41 14 -180 14 -104 50 -146 135 -159 24 -4
75 -22 115 -42 77 -38 128 -50 166 -40 20 5 26 15 37 76 12 61 11 77 -4 137
-10 38 -22 80 -27 94 -20 53 -162 109 -289 114 -47 2 -97 6 -112 10 -19 5 -29
2 -35 -10z"/>
<path d="M5251 4995 c-30 -35 -31 -38 -31 -133 0 -67 -5 -106 -15 -126 -19
-36 -18 -37 90 -70 167 -50 239 -44 303 29 43 49 102 161 102 193 0 21 -6 24
-100 38 -25 3 -67 18 -95 32 -58 29 -181 72 -206 72 -9 0 -31 -16 -48 -35z"/>
<path d="M4995 4991 c-22 -10 -86 -53 -143 -95 -57 -43 -115 -81 -130 -85 -37
-11 -33 -43 12 -113 46 -73 85 -104 146 -117 65 -14 93 -14 124 1 29 12 32 26
40 156 6 84 28 152 51 152 37 0 107 96 82 112 -23 15 -141 8 -182 -11z"/>
<path d="M4698 4655 c-3 -33 -40 -49 -70 -31 -31 19 -33 -5 -3 -61 49 -95 136
-183 298 -304 89 -66 112 -73 247 -73 124 -1 186 20 236 77 36 41 98 162 147
283 l25 62 -37 -5 c-46 -6 -195 21 -288 53 -39 13 -87 24 -107 24 -33 0 -38
-4 -58 -46 -26 -57 -83 -87 -168 -88 -67 -1 -130 32 -183 96 l-35 42 -4 -29z"/>
<path d="M4537 4549 c-9 -23 -14 -47 -10 -53 3 -6 2 -8 -2 -3 -5 4 -14 -5 -20
-20 -11 -27 -8 -31 50 -89 54 -54 67 -74 100 -160 71 -188 88 -229 141 -347
29 -65 68 -143 86 -174 42 -70 149 -173 178 -173 33 0 77 52 160 186 144 236
328 449 465 539 181 119 365 124 497 14 26 -21 48 -39 51 -39 5 0 -9 88 -19
115 -14 40 -68 111 -107 142 l-41 31 -40 -44 c-30 -31 -57 -49 -101 -63 -33
-11 -59 -24 -58 -29 1 -5 -8 -7 -21 -5 -16 3 -72 -20 -167 -70 -190 -98 -405
-167 -524 -167 -196 0 -405 143 -552 378 -25 39 -46 72 -48 72 -1 0 -9 -19
-18 -41z"/>
<path d="M4403 4333 c-177 -243 -310 -554 -367 -858 -27 -148 -40 -364 -27
-484 25 -239 87 -369 238 -497 38 -31 76 -71 86 -88 l18 -31 -5 54 c-7 69 -44
127 -137 210 -79 72 -117 123 -129 175 -11 50 0 45 34 -17 30 -52 236 -269
222 -232 -4 11 -19 48 -32 83 -13 34 -41 97 -63 140 -79 159 -111 286 -111
448 0 170 35 348 105 529 40 102 61 145 164 333 40 74 71 136 68 138 -2 3 -25
-11 -51 -31 -25 -19 -46 -33 -46 -30 0 3 15 36 34 73 36 74 61 141 53 148 -2
3 -27 -26 -54 -63z"/>
<path d="M4496 4323 c-13 -27 -14 -38 -5 -43 14 -9 6 -62 -17 -105 -33 -63
-30 -129 14 -265 98 -301 131 -451 141 -641 9 -170 11 -174 129 -356 127 -192
139 -214 196 -333 50 -107 59 -138 97 -326 12 -62 34 -96 48 -75 5 8 12 35 16
60 9 60 89 300 176 528 l71 183 -60 98 c-77 126 -163 291 -192 367 -20 52 -29
63 -64 79 -59 29 -174 150 -227 242 -26 43 -63 122 -83 175 -63 171 -197 449
-216 449 -4 0 -14 -16 -24 -37z"/>
<path d="M5855 4282 c-109 -38 -254 -136 -381 -258 -83 -80 -194 -241 -274
-397 l-75 -146 79 -158 c123 -249 176 -337 303 -503 154 -202 296 -380 300
-376 2 1 -24 74 -58 162 -97 254 -194 592 -176 611 7 6 78 -85 168 -217 95
-139 149 -201 206 -239 61 -40 68 -39 37 7 -82 119 -124 252 -124 389 0 51 4
95 10 98 12 7 138 -92 228 -179 34 -33 62 -58 62 -54 0 3 -14 50 -30 104 -88
284 -119 442 -121 619 -2 122 -1 129 14 113 79 -82 417 -488 552 -663 59 -77
112 -144 118 -150 5 -5 -25 58 -67 142 -88 173 -168 298 -231 363 -106 109
-166 281 -170 485 -1 66 -5 130 -9 141 -7 23 -91 83 -151 108 -49 21 -147 20
-210 -2z"/>
<path d="M4372 3943 c-147 -403 -210 -807 -154 -983 37 -114 105 -200 149
-186 11 4 27 31 42 73 38 112 81 190 127 233 29 27 45 52 50 77 22 117 -54
528 -137 744 -42 108 -51 113 -77 42z"/>
<path d="M6035 3750 c20 -206 76 -483 128 -635 180 -523 207 -588 279 -670 23
-26 60 -52 99 -69 56 -26 70 -28 157 -25 l96 4 26 -40 c15 -22 34 -58 44 -80
l17 -40 -5 82 c-13 203 -81 497 -153 655 -54 119 -91 175 -232 343 -178 213
-386 458 -434 510 l-28 30 6 -65z"/>
<path d="M5890 3182 c0 -40 31 -200 52 -262 25 -78 57 -136 95 -172 28 -26
230 -138 250 -138 23 0 -55 217 -110 305 -30 47 -232 255 -269 276 -14 8 -18
6 -18 -9z"/>
<path d="M5600 3152 c0 -22 146 -453 198 -582 112 -281 214 -464 306 -547 102
-94 269 -122 336 -58 33 32 68 131 77 220 10 94 -31 185 -130 291 -93 99 -178
153 -312 199 -60 20 -128 47 -151 60 -79 46 -191 187 -285 359 -21 39 -39 65
-39 58z"/>
<path d="M4530 3034 c-45 -64 -115 -217 -136 -294 -27 -100 -23 -243 10 -355
72 -243 165 -340 383 -396 94 -24 128 -24 173 -1 49 24 70 71 70 157 0 131
-43 264 -150 470 -143 272 -269 465 -306 465 -7 0 -27 -21 -44 -46z"/>
<path d="M4356 2322 c-8 -13 -25 -94 -36 -172 -12 -84 -26 -51 152 -358 184
-318 291 -483 303 -470 9 9 -32 109 -95 229 -161 309 -163 313 -145 396 12 53
-2 93 -70 207 -35 60 -69 124 -75 142 -11 33 -24 42 -34 26z"/>
<path d="M6600 2307 c-34 -17 -51 -56 -62 -146 -16 -124 24 -216 114 -260 74
-36 140 -22 192 40 27 31 28 37 22 99 -8 90 -28 163 -57 205 -43 62 -147 94
-209 62z"/>
<path d="M6928 2034 c-3 -5 -9 -27 -13 -49 -11 -64 -40 -110 -81 -130 -33 -16
-45 -16 -104 -6 -73 13 -157 48 -207 87 l-32 24 -85 -45 -85 -44 41 -53 c70
-89 170 -181 243 -225 116 -69 234 -188 435 -438 36 -44 99 -117 142 -161 68
-73 86 -99 157 -244 60 -121 95 -179 138 -229 100 -112 103 -118 103 -176 0
-44 -16 -135 -47 -271 -5 -20 0 -21 169 -27 95 -4 254 -7 353 -7 l179 0 -99
66 c-127 84 -191 138 -221 186 -18 28 -31 38 -50 38 -41 0 -79 34 -139 124
-106 160 -176 339 -234 599 -35 158 -82 289 -152 430 -60 122 -94 170 -185
269 -74 81 -114 148 -114 193 0 16 -7 28 -17 31 -54 18 -72 28 -80 47 -5 11
-12 17 -15 11z"/>
<path d="M4577 2013 c-3 -5 -6 -36 -6 -68 0 -54 8 -77 86 -245 127 -274 178
-430 140 -430 -39 0 -255 278 -314 405 -13 28 -13 24 -8 -50 16 -204 65 -340
212 -590 204 -346 368 -655 394 -744 13 -43 12 -44 -17 -68 -16 -13 -93 -67
-172 -121 l-142 -97 441 -3 c243 -1 444 0 446 2 2 2 -21 77 -51 167 -81 241
-102 334 -115 504 -15 195 -19 215 -39 222 -89 29 -191 98 -294 200 -38 37
-68 62 -68 56 0 -9 179 -518 201 -571 5 -13 24 -29 42 -37 44 -18 52 -30 67
-95 13 -60 29 -90 68 -132 18 -20 21 -28 11 -28 -31 0 -62 35 -94 105 -38 83
-52 97 -61 60 -11 -45 3 -237 21 -286 19 -55 40 -76 92 -95 l38 -13 -42 -1
c-34 0 -50 7 -78 31 -62 55 -66 72 -69 263 l-3 171 -62 135 c-78 168 -108 249
-157 423 -29 105 -42 136 -53 132 -11 -4 -12 -3 -1 10 10 12 8 18 -11 33 -19
16 -23 30 -27 104 -5 106 11 255 44 388 28 117 31 188 9 196 -8 3 -52 1 -97
-5 -121 -16 -226 6 -305 64 -11 9 -23 12 -26 8z"/>
<path d="M5051 1848 c-19 -89 -44 -227 -56 -308 -22 -137 -25 -168 -20 -190 7
-29 54 -82 66 -74 5 3 6 -1 3 -9 -10 -26 299 -295 366 -319 60 -20 110 45 110
145 0 121 -157 508 -281 692 -39 58 -140 165 -156 165 -6 0 -20 -46 -32 -102z"/>
<path d="M7110 1892 c0 -42 23 -78 93 -147 82 -80 151 -179 217 -310 59 -116
86 -204 105 -338 18 -133 36 -203 82 -332 35 -99 119 -277 153 -325 18 -26 66
-57 74 -49 3 3 -23 61 -58 130 -75 150 -129 310 -156 466 -12 63 -36 155 -56
205 -27 71 -37 113 -45 201 -8 98 -14 121 -46 185 -54 109 -171 222 -315 306
-46 27 -48 27 -48 8z"/>
<path d="M6635 1488 c12 -78 84 -277 135 -377 57 -112 134 -203 221 -262 131
-89 264 -238 333 -374 34 -67 47 -113 61 -219 6 -40 14 -57 45 -85 21 -20 44
-48 52 -64 14 -27 15 -25 46 87 18 62 32 126 32 140 0 17 -17 44 -49 80 -56
61 -111 153 -175 288 -51 106 -65 126 -197 268 -52 56 -112 127 -134 157 -104
145 -339 403 -366 403 -7 0 -8 -15 -4 -42z"/>
</g>
</svg>
