<?xml version="1.0" standalone="no"?>
<!DOCTYPE svg PUBLIC "-//W3C//DTD SVG 20010904//EN"
 "http://www.w3.org/TR/2001/REC-SVG-20010904/DTD/svg10.dtd">
<svg version="1.0" xmlns="http://www.w3.org/2000/svg"
 width="250.000000pt" height="310.000000pt" viewBox="0 0 250.000000 310.000000"
 preserveAspectRatio="xMidYMid meet">
<metadata>
Created by potrace 1.16, written by Peter Selinger 2001-2019
</metadata>
<g transform="translate(0.000000,310.000000) scale(0.120773,-0.088319)"
fill="#000000" stroke="none">
<path d="M1453 3203 c-34 -24 -38 -108 -5 -117 65 -18 101 -17 121 3 12 12 30
21 41 21 20 0 20 1 5 31 -16 29 -15 30 2 20 19 -10 110 -131 98 -131 -3 0 17
-32 45 -72 27 -39 50 -77 50 -84 0 -7 6 -11 13 -8 10 3 13 -5 13 -31 -1 -42
-3 -43 -17 -7 -10 25 -12 26 -19 7 -4 -11 -6 -32 -4 -47 2 -16 -2 -28 -8 -28
-6 0 -9 -3 -6 -6 4 -3 16 -1 27 6 29 15 27 -5 -1 -24 -13 -7 -40 -17 -60 -20
-27 -5 -42 -15 -57 -40 -12 -18 -21 -39 -21 -47 0 -7 -10 -23 -22 -37 l-23
-24 30 8 c17 4 47 15 68 26 20 10 37 16 37 13 0 -2 -18 -14 -40 -25 -43 -22
-147 -40 -120 -21 8 6 11 11 5 11 -5 1 5 7 24 15 28 13 32 19 27 40 -5 21 0
31 25 53 17 15 50 33 73 39 39 12 37 13 -44 10 -47 -2 -78 -2 -70 1 39 12 41
25 6 48 -19 13 -39 24 -44 24 -13 0 -28 -20 -36 -47 -6 -19 -2 -24 26 -32 29
-8 30 -9 8 -10 -38 -1 -65 -25 -80 -70 -12 -38 -12 -43 6 -57 19 -15 19 -16 0
-9 -19 6 -36 -9 -36 -32 0 -20 72 -34 123 -24 67 12 122 49 215 144 78 79 95
108 72 122 -5 3 -10 19 -10 34 0 43 -37 119 -82 167 -48 52 -74 60 -29 9 29
-33 71 -105 71 -121 0 -4 -14 14 -31 39 -17 26 -44 56 -59 67 -18 13 -26 26
-24 38 3 10 -16 42 -51 84 -42 51 -65 70 -94 78 -59 16 -125 22 -138 13z"/>
<path d="M450 3118 c-25 -28 -44 -55 -42 -61 2 -5 -4 -17 -11 -26 -39 -43 -51
-87 -57 -194 -3 -59 -3 -107 0 -107 21 0 30 33 30 109 1 77 4 92 33 147 27 51
35 59 46 47 7 -8 25 -13 39 -11 22 2 28 9 30 36 2 19 -1 32 -8 32 -6 0 -8 5
-5 10 3 6 13 10 22 10 12 0 14 -7 10 -35 -5 -33 -4 -34 14 -24 11 5 25 21 31
35 10 22 8 28 -23 54 -19 16 -41 29 -49 29 -8 -1 -35 -24 -60 -51z"/>
<path d="M890 3143 c-73 -38 -88 -62 -94 -150 -2 -40 -7 -77 -11 -83 -3 -5 1
-13 9 -16 9 -3 16 -17 16 -31 0 -13 7 -31 15 -39 8 -9 15 -24 15 -35 0 -14 7
-19 30 -19 44 0 37 -16 -24 -50 -55 -32 -70 -49 -60 -74 8 -21 -47 -26 -63 -6
-10 13 -15 12 -36 -8 -36 -33 -85 -38 -141 -14 -40 18 -76 21 -76 6 0 -10 79
-111 106 -135 27 -25 81 -49 109 -49 19 0 65 73 65 102 0 29 -23 53 -44 45 -8
-3 -16 0 -19 6 -7 18 45 15 60 -3 7 -8 13 -25 13 -37 0 -26 30 -48 77 -58 52
-11 63 -38 38 -97 -9 -22 61 -69 107 -71 29 -2 34 2 45 33 l12 35 0 -31 c1
-32 15 -44 52 -44 30 0 56 34 68 90 10 45 9 54 -4 64 -23 16 1 45 50 62 l39
13 -27 -22 c-17 -14 -27 -31 -27 -47 1 -14 -2 -38 -5 -55 -3 -16 -11 -57 -17
-89 -9 -48 -13 -55 -20 -37 -7 19 -13 21 -45 16 -21 -4 -43 -8 -49 -10 -7 -2
-9 -47 -6 -139 3 -79 1 -136 -5 -136 -5 0 -7 30 -5 68 1 37 -1 100 -5 141 l-8
74 -28 -24 c-39 -34 -41 -119 -4 -201 l26 -58 -87 0 -87 0 -37 -40 c-21 -22
-38 -49 -38 -60 0 -11 12 -45 26 -77 24 -56 35 -118 49 -285 8 -87 11 -90 74
-58 39 19 78 63 120 132 l22 37 -84 83 c-46 46 -93 97 -102 113 -23 37 -9 23
29 -28 15 -21 46 -52 69 -68 22 -16 50 -44 61 -62 20 -32 20 -32 24 -7 4 22
57 110 68 110 2 0 -7 -17 -20 -37 -43 -65 -43 -89 -5 -130 43 -44 99 -73 147
-76 36 -2 37 -1 35 33 -1 19 0 42 3 50 4 13 6 13 15 0 8 -11 9 0 6 38 -3 41
-10 60 -31 80 l-26 27 6 -35 c4 -19 13 -45 20 -57 21 -33 16 -42 -6 -13 -11
14 -20 31 -20 38 0 8 -9 26 -20 41 -10 15 -18 37 -17 49 1 19 3 20 17 7 25
-23 59 -18 90 14 41 40 46 70 21 125 -11 25 -24 46 -29 46 -9 0 -35 -26 -122
-120 -28 -30 -27 -28 5 15 21 28 54 67 74 89 l36 39 -107 -6 -108 -6 31 55
c23 40 33 72 37 119 l5 65 22 -49 c13 -27 27 -51 31 -53 5 -3 4 -3 -3 -2 -14
3 -19 -10 -28 -69 l-7 -46 66 1 c36 0 70 6 76 12 11 15 26 146 15 146 -4 0
-20 -11 -37 -25 -16 -14 -37 -25 -46 -25 -14 1 -13 3 3 11 62 34 100 69 139
128 24 36 58 83 75 105 36 45 42 99 13 115 -11 6 -24 6 -33 0 -7 -5 -31 -14
-52 -20 -50 -13 -69 0 -60 43 8 43 -13 52 -57 26 l-35 -20 19 21 c11 12 23 45
27 78 7 49 5 60 -11 75 -10 9 -20 21 -21 26 -2 5 -30 20 -62 35 -77 35 -90 65
-81 185 6 81 4 90 -18 122 -31 46 -84 80 -123 80 -17 0 -56 -12 -85 -27z"/>
<path d="M439 3142 c-15 -9 -45 -29 -68 -45 -22 -15 -41 -32 -41 -37 0 -5 -30
-53 -67 -107 -74 -109 -87 -143 -97 -253 l-6 -75 131 -89 c142 -95 174 -106
248 -86 l44 12 -25 24 c-23 24 -25 24 -60 9 -36 -14 -38 -14 -90 20 -29 19
-56 35 -59 35 -4 0 -16 15 -27 34 -16 27 -29 36 -59 41 -63 11 -72 15 -84 38
-11 21 -11 21 7 5 18 -16 19 -14 22 69 3 104 21 149 87 218 48 50 44 38 -7
-23 -35 -41 -53 -83 -62 -145 -7 -48 -7 -48 19 -41 18 4 32 1 45 -11 19 -17
20 -17 31 11 7 18 9 57 5 101 -5 65 -3 76 24 130 31 61 36 78 20 68 -5 -3 -10
1 -10 10 0 9 12 20 28 26 15 5 40 25 55 44 32 40 32 41 -4 17z"/>
<path d="M1631 3068 l22 -33 -27 28 c-40 41 -49 32 -16 -15 23 -33 32 -59 37
-108 3 -36 9 -67 12 -70 3 -3 11 -14 17 -25 9 -17 54 -35 54 -23 0 17 -37 122
-56 161 -14 26 -22 47 -19 47 11 0 76 -146 82 -182 4 -28 1 -40 -15 -56 -15
-15 -17 -23 -9 -31 29 -29 74 2 63 44 -4 14 -2 25 3 25 5 0 12 11 15 26 5 20
-5 42 -55 112 -77 107 -99 132 -116 132 -11 0 -9 -9 8 -32z"/>
<path d="M1340 2787 c-22 -11 -25 -19 -22 -57 2 -25 -2 -55 -9 -67 -10 -19 -8
-27 20 -58 19 -22 31 -47 31 -64 0 -15 3 -30 6 -34 10 -10 101 40 118 65 9 12
16 37 16 54 0 17 10 43 21 58 16 20 19 30 10 39 -6 6 -11 19 -11 28 0 27 -21
37 -90 43 -46 5 -72 3 -90 -7z"/>
<path d="M660 2753 c-49 -6 -101 -24 -95 -33 4 -6 -1 -10 -9 -10 -15 0 -36
-29 -36 -49 0 -6 8 -11 18 -11 9 0 26 -7 36 -15 28 -21 72 -19 96 5 26 26 25
35 -2 54 -12 9 -18 16 -12 16 6 0 23 -11 38 -25 l27 -25 39 20 c42 22 51 43
23 55 -29 11 -96 21 -123 18z"/>
<path d="M741 2465 c-40 -36 -62 -42 -105 -25 -61 23 -5 -81 91 -169 78 -72
103 -107 103 -146 0 -42 21 -85 42 -85 17 0 19 5 14 33 l-5 32 11 -32 c10 -30
15 -33 49 -33 22 0 39 1 39 3 0 1 -9 26 -20 55 -15 38 -19 65 -14 90 l7 37
-40 -44 c-24 -27 -44 -42 -51 -37 -16 10 -15 29 1 23 22 -8 46 13 76 65 36 62
32 74 -39 117 -46 28 -50 34 -50 69 0 25 -6 44 -17 54 -36 30 -52 29 -92 -7z"/>
<path d="M1366 1893 c-4 -12 -17 -34 -29 -50 -18 -23 -22 -41 -23 -113 -1 -47
-5 -102 -9 -123 -7 -34 -4 -41 33 -81 22 -24 49 -61 60 -83 38 -73 92 -231 86
-250 -5 -15 -4 -15 5 -3 6 8 11 30 11 48 0 18 7 46 15 61 8 16 19 58 25 95 14
89 -5 179 -69 315 -27 58 -52 118 -55 132 -3 15 -14 37 -25 50 l-18 23 -7 -21z"/>
<path d="M756 1738 c-52 -94 -58 -114 -63 -228 -5 -88 -2 -118 17 -187 12 -45
28 -90 35 -100 13 -17 15 -15 29 19 9 21 18 69 20 107 3 51 9 77 25 100 22 31
22 34 10 169 -11 126 -21 182 -33 182 -3 0 -21 -28 -40 -62z"/>
<path d="M1056 1645 c-18 -18 -31 -78 -21 -95 4 -6 0 -26 -9 -44 -9 -19 -23
-67 -31 -107 -22 -106 -83 -249 -106 -249 -16 0 -17 -4 -9 -27 9 -25 8 -26 -3
-11 -8 10 -17 15 -20 11 -4 -3 -7 -59 -7 -122 0 -89 -4 -122 -15 -138 -15 -21
-14 -23 8 -28 31 -8 73 9 88 36 15 28 6 95 -22 158 l-21 49 22 22 c14 14 20
29 17 42 -4 14 7 37 32 72 21 28 47 76 56 106 10 30 31 82 47 115 23 50 28 73
28 137 0 81 -8 98 -34 73z"/>
<path d="M1105 1601 c-12 -21 8 -123 31 -154 13 -18 38 -61 55 -97 17 -36 42
-80 57 -99 15 -19 37 -55 49 -80 16 -35 22 -41 22 -23 1 12 -27 78 -62 145
-35 67 -80 166 -101 220 -21 53 -39 97 -41 97 -2 0 -6 -4 -10 -9z"/>
<path d="M1240 1474 c33 -98 59 -144 109 -196 41 -44 65 -51 51 -14 -5 13 -12
53 -15 88 -6 48 -16 79 -47 129 -38 66 -56 79 -105 79 l-22 0 29 -86z"/>
<path d="M1000 1542 c0 -13 -94 -62 -119 -62 -31 0 -49 -36 -67 -140 -9 -52
-22 -110 -30 -129 -18 -44 -19 -44 16 -26 27 14 30 14 39 -3 7 -11 13 -13 18
-6 5 6 19 11 33 10 24 -1 26 5 56 124 18 69 41 148 53 177 12 31 17 55 11 58
-6 3 -10 2 -10 -3z"/>
<path d="M1394 1171 c-44 -11 -52 -17 -76 -64 -30 -58 -31 -165 -3 -197 26
-29 57 -40 73 -28 8 7 12 7 12 0 0 -6 -7 -15 -15 -19 -14 -8 -13 -16 4 -65 22
-64 41 -176 41 -242 0 -36 4 -46 20 -51 20 -6 70 -70 70 -90 0 -5 -11 7 -25
27 -36 53 -59 64 -85 38 -26 -26 -25 -29 7 -76 14 -21 34 -59 43 -84 9 -27 26
-50 40 -57 27 -14 122 -18 134 -6 3 4 -17 31 -46 60 -29 30 -45 51 -34 47 17
-6 18 -3 11 37 -4 24 -11 51 -15 59 -17 35 -21 171 -6 242 21 106 31 254 17
262 -6 4 -11 1 -11 -6 0 -20 -61 -202 -71 -212 -14 -15 -21 0 -39 82 -10 46
-22 76 -29 74 -7 -1 -11 9 -10 25 1 16 -2 46 -6 67 -7 35 -6 38 9 33 10 -4 22
-7 27 -7 5 0 9 -15 9 -34 0 -62 55 -75 67 -16 4 24 10 29 24 25 17 -6 19 -1
19 35 0 48 -11 73 -53 118 -31 32 -47 36 -103 23z"/>
<path d="M731 1076 c-19 -23 -51 -127 -51 -166 0 -55 56 -95 94 -67 14 10 15
18 7 38 -5 14 -12 67 -16 117 -8 92 -13 104 -34 78z"/>
<path d="M704 790 c3 -30 9 -118 12 -196 8 -163 4 -176 -62 -206 -25 -10 -42
-23 -39 -27 7 -12 89 -32 152 -38 39 -4 54 -1 57 9 2 7 11 36 20 63 14 45 15
57 2 119 -15 68 -15 70 15 165 17 53 37 106 45 119 18 27 11 28 -33 1 -23 -14
-38 -18 -46 -11 -7 5 -29 12 -51 15 -21 3 -48 14 -59 24 -20 18 -20 18 -13
-37z"/>
</g>
</svg>
