<?xml version="1.0" standalone="no"?>
<!DOCTYPE svg PUBLIC "-//W3C//DTD SVG 20010904//EN"
 "http://www.w3.org/TR/2001/REC-SVG-20010904/DTD/svg10.dtd">
<svg version="1.0" xmlns="http://www.w3.org/2000/svg"
 width="250.000000pt" height="250.000000pt" viewBox="0 0 250.000000 250.000000"
 preserveAspectRatio="xMidYMid meet">
<metadata>
Created by potrace 1.16, written by Peter Selinger 2001-2019
</metadata>
<g transform="translate(0.000000,250.000000) scale(0.053879,-0.053763)"
fill="#000000" stroke="none">
<path d="M1343 4631 c-105 -39 -179 -117 -253 -266 -83 -168 -90 -310 -21
-408 17 -23 33 -61 37 -85 6 -37 11 -44 35 -49 40 -8 76 -51 89 -108 29 -123
20 -110 79 -110 39 0 55 -4 62 -17 6 -10 18 -18 28 -18 12 0 22 -13 30 -39 10
-34 17 -41 54 -53 30 -10 50 -26 69 -55 53 -77 111 -63 244 60 47 44 102 84
136 99 110 50 111 98 4 202 -39 38 -79 81 -88 95 -28 41 -22 94 17 174 41 83
43 113 16 244 -33 161 -108 265 -229 321 -78 36 -230 42 -309 13z"/>
<path d="M3120 4409 c-25 -5 -77 -24 -116 -44 -60 -29 -89 -54 -191 -162 -126
-135 -157 -175 -151 -194 3 -9 49 -13 159 -14 138 -1 161 -4 226 -27 125 -44
204 -103 259 -189 30 -48 47 -49 134 -8 56 27 72 30 117 24 92 -11 129 33 120
142 -7 96 -98 276 -181 358 -69 69 -108 90 -204 110 -74 16 -106 17 -172 4z"/>
<path d="M1900 4295 c0 -12 7 -48 16 -80 18 -70 15 -92 -26 -186 -49 -111 -33
-151 102 -265 51 -43 123 -107 160 -142 l66 -64 51 76 c28 41 82 114 120 162
38 47 86 118 106 157 47 90 83 128 165 177 76 45 161 127 139 134 -51 17 -102
26 -154 26 -62 0 -117 -23 -334 -139 -138 -74 -203 -67 -297 31 -33 35 -72 79
-87 98 -22 29 -27 32 -27 15z"/>
<path d="M3707 3989 c58 -115 77 -144 139 -204 39 -39 109 -92 155 -119 46
-27 116 -80 155 -118 106 -102 114 -93 47 52 -40 89 -209 316 -287 388 -38 34
-82 61 -142 86 -149 63 -145 68 -67 -85z"/>
<path d="M2685 3970 c-55 -11 -123 -42 -167 -76 -20 -16 -84 -87 -142 -157
-102 -123 -106 -130 -106 -176 0 -35 9 -65 31 -107 48 -89 75 -120 154 -174
63 -44 77 -60 120 -137 112 -202 205 -239 348 -138 34 24 96 62 137 85 103 55
165 103 195 149 76 114 102 305 56 408 -23 51 -89 123 -113 123 -6 0 -9 2 -6
5 10 10 56 -14 82 -42 21 -22 26 -24 26 -10 0 62 -52 118 -163 174 -137 68
-324 99 -452 73z"/>
<path d="M3705 3931 c14 -24 -9 -97 -42 -130 l-33 -33 33 -47 c19 -25 55 -84
82 -131 26 -47 65 -114 85 -150 20 -36 40 -72 44 -80 6 -15 2 72 -10 192 -4
44 -2 84 6 112 l12 45 -43 53 c-24 30 -62 82 -84 116 -22 34 -44 62 -48 62 -5
0 -6 -4 -2 -9z"/>
<path d="M3432 3750 c-95 -41 -98 -46 -86 -133 15 -100 34 -135 128 -232 82
-85 184 -158 279 -199 100 -44 93 -46 112 37 20 88 15 103 -64 220 -27 41 -63
101 -79 134 -37 77 -84 144 -122 177 -41 34 -85 33 -168 -4z m26 -91 c34 -30
90 -65 139 -87 109 -49 168 -92 193 -141 30 -59 25 -59 -20 0 -21 29 -52 61
-68 71 -33 21 -143 60 -150 54 -7 -8 55 -91 99 -130 23 -21 75 -54 115 -72 83
-39 107 -61 53 -50 -94 18 -203 103 -276 216 -20 30 -63 85 -95 123 -33 37
-57 67 -53 67 4 0 32 -23 63 -51z"/>
<path d="M2047 3672 c8 -31 -14 -67 -58 -97 -107 -72 -169 -120 -169 -132 0
-17 8 -16 61 3 72 25 169 46 249 53 103 8 103 21 3 117 -43 40 -81 74 -84 74
-4 0 -5 -8 -2 -18z"/>
<path d="M3883 3664 c-9 -25 5 -196 20 -238 10 -27 12 -49 5 -75 -33 -136 -41
-197 -42 -341 -1 -143 1 -158 22 -197 12 -24 31 -61 43 -82 33 -64 60 -221 67
-394 l7 -159 49 34 c69 46 72 53 56 139 -12 63 -12 88 3 198 51 387 97 789 97
844 0 59 -28 117 -72 150 -38 27 -231 137 -241 137 -4 0 -10 -7 -14 -16z"/>
<path d="M335 3620 c-106 -32 -298 -306 -312 -444 -4 -44 -2 -54 17 -71 28
-25 115 -24 210 2 51 14 66 23 68 39 2 16 14 24 44 30 79 17 77 80 -4 124 -57
31 -73 45 -35 31 44 -17 70 -32 94 -54 12 -11 28 -17 36 -14 24 9 68 73 62 89
-3 9 -27 27 -53 41 -61 34 -37 35 29 1 55 -28 72 -23 83 22 9 33 -7 59 -44 74
-17 7 -29 15 -26 17 2 2 17 -2 34 -11 36 -19 52 -6 52 41 0 47 -29 69 -103 77
-34 3 -75 8 -92 10 -16 3 -44 1 -60 -4z"/>
<path d="M1972 3449 c-52 -11 -124 -33 -160 -50 -171 -79 -231 -91 -341 -70
-152 30 -340 -73 -461 -249 -40 -59 -94 -160 -88 -165 3 -3 326 -8 394 -6 12
1 52 28 88 61 36 32 80 66 98 75 32 15 32 15 8 -2 -58 -40 -140 -130 -140
-154 0 -13 20 -49 44 -81 34 -43 61 -64 113 -90 l68 -33 270 0 c259 0 272 -1
324 -23 48 -20 60 -22 105 -12 69 15 182 71 235 116 55 47 91 122 91 189 0 91
-41 156 -207 328 -81 84 -161 160 -177 170 -41 23 -143 21 -264 -4z"/>
<path d="M3482 3293 c60 -81 118 -163 128 -182 l19 -36 0 70 0 70 -115 105
c-64 58 -122 108 -129 112 -7 4 37 -58 97 -139z"/>
<path d="M3335 3348 c-9 -40 -30 -91 -45 -113 -96 -139 -93 -200 16 -298 30
-27 66 -68 80 -92 36 -63 90 -108 122 -102 52 10 81 -64 47 -123 -33 -57 -12
-118 52 -155 23 -14 44 -31 44 -38 3 -24 -3 -42 -22 -65 -31 -40 -27 -161 8
-230 30 -60 83 -112 114 -112 38 0 100 43 126 88 40 67 36 126 -17 243 -108
240 -195 483 -210 588 -12 86 -51 160 -165 316 -138 188 -129 182 -150 93z"/>
<path d="M4230 3381 c-19 -36 -10 -125 25 -263 50 -194 66 -313 59 -429 -5
-67 -3 -107 6 -135 l14 -39 7 35 c4 19 15 112 24 205 19 180 16 423 -5 522
-20 92 -101 157 -130 104z"/>
<path d="M4206 3160 c-3 -25 -15 -126 -26 -225 -11 -99 -26 -238 -35 -310 -24
-202 -21 -268 14 -340 83 -167 140 -150 166 48 14 104 13 108 -8 154 -19 42
-23 71 -28 248 -6 184 -9 211 -41 335 -34 132 -35 134 -42 90z"/>
<path d="M264 3090 c-11 -4 -66 -11 -122 -15 -97 -7 -102 -9 -97 -29 3 -11 29
-145 59 -296 59 -295 92 -405 163 -540 45 -87 195 -296 224 -314 11 -6 68 -5
168 4 153 14 171 22 73 33 -30 4 -70 14 -90 24 -30 15 -37 23 -37 48 0 27 6
33 62 60 94 45 101 58 28 50 -101 -12 -201 39 -325 164 -73 74 -123 162 -163
286 -54 166 -97 465 -67 465 7 0 36 -14 63 -31 54 -33 127 -63 135 -55 2 3 -7
19 -22 36 -25 30 -27 58 -4 44 8 -5 9 1 5 17 -4 13 -7 32 -7 42 0 18 -13 21
-46 7z"/>
<path d="M3033 3043 c-12 -2 -42 -22 -67 -44 -24 -22 -69 -50 -99 -64 -54 -23
-74 -46 -60 -68 4 -7 34 -48 66 -92 56 -75 89 -135 117 -212 23 -62 83 -56
101 10 25 99 55 124 172 147 81 17 82 17 85 49 4 37 -32 121 -72 168 -19 22
-45 38 -81 48 -30 9 -64 24 -77 34 -28 22 -55 30 -85 24z"/>
<path d="M153 2984 c-13 -34 62 -359 110 -474 64 -156 174 -288 272 -326 43
-16 49 -16 79 -1 38 18 93 82 126 145 28 54 23 126 -14 199 -42 84 -143 209
-213 264 -36 29 -86 80 -110 112 -23 33 -43 52 -43 44 0 -21 -31 -30 -62 -18
-14 5 -48 23 -75 40 -58 36 -62 36 -70 15z"/>
<path d="M907 2881 c-72 -10 -129 -47 -167 -108 -45 -70 -48 -107 -16 -168 38
-72 82 -122 129 -147 133 -69 426 37 488 177 25 57 34 135 19 179 -19 60 -50
69 -235 72 -88 1 -186 -1 -218 -5z"/>
<path d="M2695 2850 c-28 -10 -42 -30 -47 -60 -2 -21 -22 -34 -115 -80 -61
-30 -121 -64 -132 -74 -45 -42 -14 -80 104 -129 l79 -32 26 -65 c22 -55 30
-65 54 -68 40 -5 146 34 188 68 20 16 53 36 74 42 23 8 44 24 54 41 14 26 13
31 -29 112 -64 123 -122 207 -156 226 -40 22 -75 29 -100 19z"/>
<path d="M1380 2717 c0 -13 -7 -48 -16 -78 -22 -73 -70 -117 -195 -176 -112
-53 -119 -68 -13 -27 233 89 291 94 336 26 l15 -23 7 32 c11 57 -19 137 -82
222 -40 52 -52 58 -52 24z"/>
<path d="M1470 2696 c0 -2 11 -28 25 -57 32 -72 44 -153 33 -231 -8 -62 -8
-64 21 -89 106 -97 332 -180 579 -214 143 -19 202 -20 202 -1 0 7 -14 39 -30
70 l-30 56 20 40 c24 47 25 78 4 108 -21 30 -50 28 -66 -5 -24 -51 -88 -38
-114 22 -24 58 -18 88 26 133 58 59 52 86 -26 126 -54 27 -107 29 -228 11
-150 -23 -300 -18 -368 13 -27 11 -48 19 -48 18z"/>
<path d="M3317 2640 c-75 -19 -148 -61 -179 -104 -29 -39 -30 -45 -25 -117 5
-84 37 -171 71 -194 27 -20 62 -18 111 4 52 23 161 114 185 153 25 41 36 158
18 194 -28 59 -100 84 -181 64z"/>
<path d="M2256 2611 c-3 -5 1 -14 9 -21 25 -21 38 -80 27 -129 -9 -38 -8 -46
10 -65 33 -35 40 -66 33 -152 -6 -70 -5 -85 11 -110 11 -15 24 -46 31 -69 6
-22 18 -63 26 -91 36 -125 145 -224 248 -224 55 0 128 -31 176 -74 52 -47 107
-78 166 -94 l39 -11 -7 27 c-12 49 -74 197 -107 256 -60 107 -84 126 -166 139
-73 12 -88 21 -53 32 11 3 27 17 36 32 16 24 16 27 -3 52 -10 14 -37 35 -60
46 -40 19 -41 20 -35 65 5 42 3 49 -22 68 -15 12 -36 22 -46 22 -15 0 -17 5
-13 30 5 25 1 35 -28 62 -19 18 -56 46 -82 62 -55 33 -78 64 -80 108 -1 21 -8
34 -21 39 -28 11 -83 11 -89 0z"/>
<path d="M2213 2552 c-31 -10 -72 -48 -83 -78 -14 -37 21 -104 55 -104 19 0
31 12 55 53 60 104 50 151 -27 129z"/>
<path d="M1254 2451 c-77 -27 -158 -58 -180 -69 -54 -28 -181 -147 -224 -211
-24 -35 -53 -62 -90 -83 -103 -58 -123 -92 -74 -124 92 -61 512 11 634 107 92
73 170 225 170 331 0 39 -5 54 -25 73 -13 14 -34 25 -47 25 -13 0 -86 -22
-164 -49z"/>
<path d="M797 2434 c-4 -4 -7 -29 -7 -56 0 -46 -3 -52 -70 -124 -39 -42 -69
-81 -67 -88 2 -6 25 -11 51 -11 35 0 50 -5 57 -18 6 -9 13 -17 18 -17 4 0 32
30 62 68 29 37 84 99 122 139 78 81 80 98 8 90 -45 -5 -120 3 -152 17 -8 4
-18 3 -22 0z"/>
<path d="M2850 2345 c-63 -30 -120 -55 -127 -55 -19 0 -16 -58 6 -105 24 -54
73 -101 112 -109 52 -10 150 24 205 72 28 24 54 75 54 104 -1 31 -32 99 -57
120 -40 37 -71 32 -193 -27z"/>
<path d="M3408 2223 c-134 -82 -149 -95 -155 -141 -4 -30 2 -52 27 -103 45
-90 55 -99 109 -99 33 0 61 9 98 30 57 32 73 65 73 145 0 22 7 65 15 95 19 70
19 95 -1 114 -28 28 -67 18 -166 -41z"/>
<path d="M4126 2235 c-9 -14 -41 -41 -70 -60 -67 -43 -76 -67 -76 -201 l0
-102 51 -101 c58 -117 112 -181 153 -181 35 0 41 19 22 65 -25 59 -18 66 8 8
25 -53 50 -70 86 -58 24 8 25 19 5 75 -19 55 -19 73 2 35 34 -65 58 -78 88
-48 14 13 16 28 12 65 -5 43 3 62 17 39 9 -14 59 -20 78 -10 19 10 26 73 9 83
-17 11 -49 92 -60 151 -13 71 -40 127 -85 178 l-34 38 -30 -31 c-50 -50 -89
-37 -140 48 l-19 33 -17 -26z"/>
<path d="M3891 2034 c-27 -77 -76 -151 -147 -227 -194 -206 -373 -286 -608
-274 -161 8 -241 36 -330 115 -48 43 -137 84 -172 80 -24 -3 -17 -12 83 -98
61 -52 152 -129 204 -171 52 -42 99 -87 106 -100 6 -13 18 -67 26 -120 10 -67
25 -120 53 -180 36 -77 39 -91 39 -171 l0 -87 42 41 c23 22 47 55 53 72 31 83
47 111 96 167 52 60 59 74 84 172 7 27 28 65 50 90 20 23 79 103 131 177 52
74 154 208 227 297 93 113 132 169 132 187 0 26 -29 96 -39 96 -4 0 -17 -30
-30 -66z"/>
<path d="M3010 2079 c-14 -7 -58 -20 -99 -30 -40 -10 -76 -21 -80 -24 -3 -4
13 -23 36 -43 32 -28 48 -52 63 -97 11 -33 25 -64 30 -69 5 -5 26 -2 51 8 23
10 65 21 93 27 81 15 105 28 114 63 13 48 4 70 -48 121 -40 39 -55 48 -91 51
-24 2 -55 -1 -69 -7z"/>
<path d="M3609 1964 c-139 -100 -344 -178 -498 -190 -102 -8 -111 -11 -111
-38 0 -30 74 -141 108 -164 15 -10 45 -16 76 -16 59 0 242 53 333 96 110 52
179 158 190 296 5 57 4 62 -14 62 -10 0 -48 -21 -84 -46z"/>
<path d="M3867 1826 c-138 -163 -197 -245 -237 -331 -20 -44 -63 -111 -95
-150 -31 -38 -71 -97 -87 -130 -17 -33 -60 -98 -96 -144 -35 -45 -74 -106 -84
-135 -11 -28 -44 -86 -74 -128 -44 -63 -54 -85 -54 -118 0 -78 22 -185 57
-274 31 -80 83 -281 98 -378 5 -32 10 -38 30 -38 24 0 25 2 25 70 0 206 90
443 319 840 62 107 137 245 166 305 225 467 217 446 182 498 -27 41 -47 114
-47 177 0 22 -3 40 -7 39 -5 0 -48 -46 -96 -103z"/>
<path d="M2480 1657 c-118 -100 -298 -281 -480 -485 -228 -257 -324 -391 -365
-514 -14 -42 -14 -42 3 -18 9 14 61 80 114 146 135 168 270 294 402 372 160
95 302 215 436 367 38 43 70 84 70 89 0 18 -72 116 -84 115 -6 0 -49 -32 -96
-72z"/>
<path d="M4010 1533 c-30 -82 -52 -128 -143 -293 -19 -36 -47 -100 -63 -143
l-27 -78 41 -77 c55 -103 97 -221 124 -345 18 -84 22 -133 22 -282 0 -99 -5
-199 -11 -222 -16 -65 0 -44 56 72 176 361 261 671 233 842 -18 108 -49 196
-89 255 -34 49 -37 60 -44 153 -5 55 -12 114 -17 131 -11 34 -34 74 -43 74 -4
0 -21 -39 -39 -87z"/>
<path d="M2698 1563 c-97 -232 -191 -369 -295 -430 -34 -20 -44 -31 -49 -61
-41 -246 -75 -399 -126 -552 -50 -156 -154 -346 -222 -409 -14 -14 -26 -27
-26 -30 0 -3 19 -7 43 -7 61 -2 90 -19 84 -50 -4 -24 -4 -24 22 -7 64 42 116
65 239 108 161 55 282 113 357 172 59 46 157 160 301 350 l89 117 0 106 c0
105 -1 108 -36 166 -49 80 -50 85 -58 197 -9 115 -3 108 -188 258 l-123 100
-12 -28z"/>
<path d="M4100 1581 c0 -4 9 -34 20 -67 12 -32 25 -94 31 -137 6 -49 22 -106
44 -156 47 -106 65 -200 65 -336 0 -123 -17 -234 -54 -347 -31 -92 -154 -371
-204 -457 -20 -36 -38 -69 -40 -73 -2 -5 21 -8 51 -8 51 0 57 3 89 38 147 163
238 422 238 681 0 113 -22 269 -57 399 -42 160 -53 213 -60 296 -5 61 -11 84
-30 106 -25 30 -93 75 -93 61z"/>
<path d="M2605 1513 c-54 -75 -205 -229 -285 -289 -36 -27 -121 -86 -190 -132
-68 -45 -122 -82 -120 -82 27 0 309 112 365 144 92 54 225 236 261 356 8 28
14 53 12 55 -2 2 -21 -22 -43 -52z"/>
<path d="M2045 1320 c-289 -224 -461 -458 -509 -692 -17 -80 -21 -164 -10
-193 4 -11 19 26 40 97 68 236 138 345 487 746 55 63 97 115 95 117 -1 2 -48
-32 -103 -75z"/>
<path d="M2225 1066 c-119 -50 -251 -116 -320 -161 -105 -68 -217 -208 -295
-370 -93 -192 -74 -358 48 -436 163 -103 307 -28 435 228 103 203 202 496 233
683 16 99 16 100 7 99 -5 0 -53 -19 -108 -43z"/>
<path d="M3693 873 c-177 -302 -302 -614 -319 -798 l-7 -75 246 0 246 0 15 28
c34 66 58 170 63 273 7 129 -8 240 -49 369 -29 91 -121 300 -132 300 -3 0 -31
-44 -63 -97z"/>
<path d="M1475 310 c-43 -68 -58 -119 -59 -200 -1 -121 -32 -110 311 -110 228
1 304 4 322 14 42 23 6 28 -115 15 -190 -19 -263 -2 -336 79 -39 43 -78 135
-78 185 0 59 -15 64 -45 17z"/>
</g>
</svg>
