<?xml version="1.0" standalone="no"?>
<!DOCTYPE svg PUBLIC "-//W3C//DTD SVG 20010904//EN"
 "http://www.w3.org/TR/2001/REC-SVG-20010904/DTD/svg10.dtd">
<svg version="1.0" xmlns="http://www.w3.org/2000/svg"
 width="250.000000pt" height="250.000000pt" viewBox="0 0 250.000000 250.000000"
 preserveAspectRatio="xMidYMid meet">
<metadata>
Created by potrace 1.16, written by Peter Selinger 2001-2019
</metadata>
<g transform="translate(0.000000,250.000000) scale(0.138889,-0.133690)"
fill="#000000" stroke="none">
<path d="M858 1824 c-35 -18 -48 -43 -48 -88 0 -19 -4 -38 -10 -41 -10 -6 -2
-65 11 -80 5 -5 9 -21 9 -36 0 -29 38 -82 71 -100 11 -5 28 -7 39 -4 28 9 80
84 80 116 0 14 7 32 15 39 17 14 20 66 5 75 -5 3 -10 20 -10 36 0 41 -15 66
-50 84 -36 19 -77 19 -112 -1z"/>
<path d="M530 1458 c-27 -14 -51 -36 -61 -55 -9 -18 -19 -30 -22 -27 -13 13
-81 -21 -117 -59 -46 -47 -58 -75 -39 -89 11 -7 9 -8 -6 -6 -28 4 -45 -10 -44
-35 l0 -22 11 21 c8 17 23 24 64 29 39 5 54 11 54 22 0 11 -6 14 -21 10 -19
-5 -19 -4 3 16 l23 22 3 -23 c2 -13 14 -28 28 -34 22 -10 22 -12 6 -24 -16
-12 -15 -15 12 -43 17 -17 38 -31 48 -31 39 0 131 111 114 139 -3 4 4 15 15
24 10 9 19 23 19 32 0 25 31 81 54 95 21 12 21 12 -1 -12 -31 -33 -49 -86 -34
-101 6 -6 11 -25 11 -42 0 -53 19 -68 76 -62 83 9 111 18 143 45 28 24 32 35
37 99 l7 71 -34 17 c-33 18 -116 17 -164 0 -19 -7 -19 -7 -1 7 26 21 10 28
-71 34 -58 5 -75 2 -113 -18z"/>
<path d="M1144 1447 c39 -24 75 -63 80 -87 5 -18 1 -15 -11 10 -11 21 -33 42
-56 53 -53 27 -143 33 -188 14 -36 -15 -37 -16 -44 -88 -7 -72 -7 -73 21 -96
16 -13 25 -23 20 -23 -6 0 -19 9 -31 20 -20 19 -21 19 -50 -6 l-30 -25 70 4
c45 2 82 -1 104 -10 58 -24 152 12 176 69 l12 29 15 -23 c8 -13 20 -34 27 -48
11 -24 11 -24 -3 -6 -9 11 -16 23 -16 28 0 15 -15 7 -53 -28 l-38 -35 13 -60
c9 -43 9 -70 2 -99 l-11 -39 29 21 c42 30 110 119 105 137 -3 9 -8 25 -13 36
-7 19 -7 19 9 3 9 -9 17 -23 17 -32 0 -13 36 -46 50 -46 3 0 19 23 35 50 31
51 40 57 65 39 13 -9 13 -9 -1 -7 -8 2 -29 -13 -45 -32 -31 -35 -70 -120 -56
-120 10 0 39 20 28 20 -4 0 15 19 43 43 36 30 51 49 51 68 0 14 5 30 11 36 9
9 2 23 -26 57 -38 47 -49 54 -60 36 -3 -5 -16 -15 -28 -21 -21 -11 -21 -11 -6
7 9 10 15 24 12 30 -10 27 50 -2 87 -42 22 -24 46 -44 53 -44 6 0 27 -9 45
-20 18 -11 35 -20 37 -20 13 0 -28 60 -73 107 -54 56 -114 79 -134 52 -7 -11
-8 -9 -4 5 9 26 -19 65 -58 81 -42 18 -211 19 -182 2z"/>
<path d="M613 1287 c-6 -6 -15 -28 -22 -47 -6 -19 -23 -46 -37 -61 l-26 -27
25 -38 c32 -51 119 -132 125 -115 2 6 -1 25 -8 41 -7 17 -12 52 -12 80 0 28
-4 53 -9 56 -5 3 -9 29 -9 59 0 55 -10 74 -27 52z"/>
<path d="M1497 1223 c-4 -3 -7 -19 -7 -35 0 -24 5 -30 30 -35 29 -5 52 -23 31
-23 -6 0 -11 -14 -11 -31 0 -17 -4 -39 -10 -49 -10 -19 -168 -115 -176 -107
-3 2 34 26 81 53 59 34 87 56 92 72 8 32 -1 36 -34 17 l-28 -17 27 24 c17 15
24 28 19 36 -12 20 -33 5 -76 -54 -21 -30 -55 -64 -75 -76 -19 -12 -48 -33
-65 -48 -29 -27 -85 -46 -85 -29 0 5 9 9 19 9 11 0 40 18 65 39 25 22 54 42
65 46 11 3 32 22 47 43 28 36 28 37 4 20 -14 -10 -43 -27 -65 -39 -22 -12 -63
-38 -90 -59 -31 -23 -58 -35 -70 -33 -11 3 -35 5 -53 6 -28 1 -31 3 -18 12 8
7 20 24 26 39 13 34 13 127 0 160 -10 27 -20 28 -114 17 -4 -1 -5 -9 -2 -18 5
-16 5 -16 -6 -2 -23 29 -56 41 -79 29 -28 -16 -20 -44 14 -48 15 -2 27 -8 27
-13 0 -5 11 -9 25 -9 14 0 25 5 25 11 0 23 30 -14 41 -51 9 -31 8 -47 -5 -88
-23 -67 -57 -214 -52 -219 6 -6 40 47 56 85 l13 33 16 -33 c9 -18 24 -41 33
-50 17 -17 21 -16 83 28 36 25 85 54 108 64 26 12 35 20 22 20 -11 0 -35 -9
-53 -20 -22 -13 -32 -16 -30 -8 8 23 70 46 108 41 75 -10 205 88 234 177 18
55 20 80 7 80 -6 0 -11 -16 -13 -35 -2 -28 -6 -33 -18 -25 -12 7 -12 12 -2 22
20 20 14 35 -24 57 -38 23 -47 25 -57 14z"/>
<path d="M322 1206 c-62 -13 -88 -46 -77 -97 15 -65 120 -179 167 -179 7 0 40
-13 73 -28 l60 -28 21 21 c26 25 19 56 -21 87 -16 12 -26 17 -22 10 17 -27
-23 1 -48 34 -15 19 -30 32 -35 29 -6 -3 -26 5 -47 19 -20 14 -39 23 -42 21
-6 -6 101 -105 113 -105 5 0 7 -2 4 -5 -3 -3 -19 1 -37 8 -17 7 -28 17 -24 21
4 4 0 4 -9 1 -12 -5 -16 -2 -14 12 2 11 -8 25 -26 35 -29 19 -39 58 -14 58 8
0 27 -11 42 -25 31 -29 40 -31 48 -9 7 17 -18 84 -32 84 -20 0 -21 -15 0 -37
12 -12 19 -25 16 -28 -2 -3 -18 9 -34 26 -27 28 -28 31 -11 43 17 13 24 47 10
45 -5 -1 -32 -6 -61 -13z"/>
<path d="M800 1195 c-19 -7 -51 -14 -71 -14 -50 -1 -63 -20 -55 -79 4 -26 9
-68 13 -94 3 -30 11 -48 19 -48 27 0 44 -31 44 -83 0 -55 16 -89 50 -107 19
-10 19 -9 8 17 -7 15 -16 33 -21 40 -5 7 -6 17 -2 23 4 6 -1 23 -11 38 -15 24
-16 25 -1 13 15 -12 17 -11 17 5 -1 11 -8 37 -16 59 -19 47 -33 133 -24 137 4
2 13 16 21 32 8 18 32 39 59 53 49 25 29 31 -30 8z"/>
<path d="M783 1064 c-25 -39 -8 -59 56 -61 41 -1 54 2 64 17 10 16 14 17 27 6
8 -8 37 -16 65 -18 54 -3 63 7 51 58 -6 22 -12 24 -62 24 -41 0 -56 -4 -61
-16 -5 -15 -7 -15 -15 0 -6 11 -23 16 -58 16 -42 0 -52 -4 -67 -26z"/>
<path d="M600 938 c0 -4 5 -10 10 -13 17 -11 11 -25 -15 -35 -14 -5 -25 -14
-25 -20 0 -14 37 -49 63 -59 66 -25 65 -25 88 23 22 47 20 105 -4 107 -45 5
-117 3 -117 -3z"/>
<path d="M1060 779 c-45 -39 -107 -69 -145 -69 -38 0 -100 28 -142 64 -38 32
-45 21 -9 -13 20 -19 23 -29 19 -69 -13 -148 -26 -173 -100 -178 -25 -1 -51
-8 -57 -14 -16 -16 -20 -146 -6 -209 12 -52 54 -151 65 -151 3 0 14 9 25 20
20 20 20 21 1 58 -10 20 -23 74 -29 119 -6 52 -18 95 -31 116 -30 48 -26 59 5
14 14 -21 30 -63 35 -95 28 -153 32 -168 40 -142 6 21 7 18 8 -17 1 -31 -5
-49 -22 -67 -24 -25 -24 -26 -8 -86 l16 -60 77 0 c42 0 80 4 83 10 3 5 7 47 8
92 1 75 -3 93 -37 178 -21 52 -45 106 -54 120 -16 25 -16 24 -39 -60 -12 -47
-21 -69 -18 -50 2 19 8 74 11 123 5 59 12 91 22 100 13 10 15 6 9 -32 l-5 -44
17 29 c29 47 47 116 42 160 -1 6 -12 28 -26 49 -15 20 -24 39 -21 42 2 3 28
-34 57 -81 35 -58 58 -86 70 -86 20 0 53 46 86 120 11 25 39 66 62 93 48 53
43 62 -9 16z"/>
<path d="M1086 769 c-8 -12 -13 -26 -10 -31 3 -5 0 -7 -8 -6 -7 2 -12 -5 -12
-14 1 -10 -2 -16 -6 -13 -5 3 -26 -28 -48 -70 -27 -52 -35 -75 -25 -75 7 0 16
-6 18 -12 2 -7 10 -26 16 -43 l11 -30 9 24 c7 18 15 22 34 19 24 -5 24 -5 8
25 -13 25 -13 36 -3 68 7 21 10 46 8 57 -6 20 -5 20 27 1 40 -24 69 -55 61
-67 -3 -5 1 -33 9 -63 8 -30 15 -55 15 -56 0 -1 -6 0 -14 3 -8 3 -19 28 -25
55 -13 58 -38 112 -50 105 -5 -3 -11 -24 -15 -46 -5 -30 -2 -45 9 -56 8 -9 15
-29 15 -45 0 -29 0 -29 -20 -9 -11 11 -25 20 -30 20 -19 0 -23 -29 -8 -53 8
-12 18 -51 21 -87 7 -62 43 -207 57 -222 14 -18 50 27 72 89 33 98 33 228 -1
298 -34 69 -35 74 -12 45 15 -18 21 -21 21 -9 0 44 -69 195 -99 213 -5 4 -17
-3 -25 -15z"/>
<path d="M690 733 c-32 -50 -44 -86 -55 -165 -5 -40 -4 -48 10 -48 9 0 26 11
39 25 20 21 25 23 30 9 5 -14 7 -14 22 1 14 13 15 28 10 82 -5 50 -3 71 8 88
12 18 13 25 3 33 -32 24 -37 22 -67 -25z"/>
<path d="M847 566 c-4 -24 -16 -64 -28 -88 l-21 -44 37 -75 c21 -41 46 -96 55
-124 l17 -50 -2 170 c-2 152 -4 174 -24 213 -12 23 -23 42 -25 42 -2 0 -6 -20
-9 -44z"/>
<path d="M936 533 c-27 -91 -30 -254 -6 -293 6 -10 10 -11 10 -3 0 7 18 55 41
107 l41 96 -20 52 c-21 56 -55 77 -66 41z"/>
<path d="M1006 379 c-62 -141 -71 -256 -24 -306 22 -23 58 -31 58 -13 0 6 11
27 24 48 36 56 40 91 16 151 -11 28 -20 71 -20 94 0 24 -6 52 -14 63 -14 18
-16 16 -40 -37z"/>
</g>
</svg>
