<?xml version="1.0" standalone="no"?>
<!DOCTYPE svg PUBLIC "-//W3C//DTD SVG 20010904//EN"
 "http://www.w3.org/TR/2001/REC-SVG-20010904/DTD/svg10.dtd">
<svg version="1.0" xmlns="http://www.w3.org/2000/svg"
 width="250.000000pt" height="250.000000pt" viewBox="0 0 250.000000 250.000000"
 preserveAspectRatio="xMidYMid meet">
<metadata>
Created by potrace 1.16, written by Peter Selinger 2001-2019
</metadata>
<g transform="translate(0.000000,250.000000) scale(0.039062,-0.035162)"
fill="#000000" stroke="none">
<path d="M4320 7089 c-14 -6 -36 -20 -49 -32 -26 -25 -91 -148 -91 -173 0 -32
32 -84 56 -90 39 -10 47 5 19 38 -14 16 -25 41 -24 56 l1 27 10 -30 c16 -46
67 -95 100 -95 35 0 36 13 3 34 -21 14 -25 24 -24 59 l1 42 7 -35 c10 -49 17
-57 51 -65 32 -7 35 -12 21 -34 -6 -9 -33 -15 -79 -16 -39 -2 -79 -6 -89 -9
-14 -4 -24 6 -42 45 -26 52 -41 51 -41 -4 0 -23 7 -31 44 -47 125 -53 262 -52
433 2 76 24 99 52 108 129 l7 54 -21 -33 c-33 -51 -97 -68 -133 -35 -18 16
-20 16 -41 -10 -23 -27 -82 -57 -114 -57 -14 0 -15 2 -4 9 10 6 11 13 2 29
-18 33 -12 49 8 23 17 -22 21 -23 47 -12 16 7 38 26 49 44 26 41 52 46 65 13
19 -52 99 -27 127 40 10 23 21 40 25 38 5 -3 8 -32 8 -64 0 -57 1 -59 48 -100
26 -23 81 -67 122 -98 155 -116 201 -180 216 -297 7 -63 18 -78 97 -138 40
-30 77 -92 77 -130 0 -37 -43 -69 -118 -88 l-67 -17 45 -21 c82 -38 238 -23
327 31 41 25 53 38 53 57 0 51 -44 189 -91 287 -61 128 -120 194 -225 253
-168 94 -329 208 -384 271 -76 87 -138 112 -373 145 -118 17 -133 17 -167 4z"/>
<path d="M1985 7014 c-113 -20 -179 -41 -206 -64 l-24 -20 25 -22 c14 -13 38
-49 53 -80 15 -31 42 -69 59 -83 l31 -27 -33 4 c-30 3 -36 8 -49 43 -18 51
-20 53 -32 35 -5 -8 -6 -28 -3 -44 6 -26 -5 -39 -128 -160 -74 -72 -154 -141
-177 -152 l-43 -22 51 -12 c28 -7 57 -21 65 -31 11 -16 15 -17 25 -6 6 8 29
22 51 32 59 26 67 14 47 -72 -8 -37 -18 -111 -21 -163 -4 -52 -9 -106 -12
-120 -5 -22 -1 -20 34 18 l40 42 7 163 c4 94 13 175 20 194 26 62 97 154 146
189 53 38 59 50 32 57 -17 4 -17 4 0 12 12 5 24 1 37 -10 10 -9 34 -18 52 -18
29 -2 33 1 36 26 2 15 -4 50 -13 77 -9 27 -15 60 -13 72 2 14 11 -10 22 -57
28 -128 38 -142 80 -112 16 12 16 17 -3 107 -11 52 -23 104 -27 114 -5 12 -4
17 3 13 17 -11 56 -149 57 -199 0 -51 11 -62 52 -52 40 10 44 31 24 126 -22
100 -41 143 -78 176 -18 16 -20 21 -7 14 53 -27 89 -92 105 -188 12 -77 25
-114 39 -114 5 0 19 8 31 18 l22 18 -30 94 c-16 52 -33 110 -37 128 -14 68
-128 88 -310 56z"/>
<path d="M3197 7020 c-104 -26 -180 -90 -224 -187 -22 -48 -24 -64 -21 -163 2
-84 0 -110 -10 -110 -23 0 -34 -52 -27 -129 7 -87 27 -141 54 -148 14 -3 22
-20 31 -66 6 -34 25 -97 42 -140 16 -43 28 -80 26 -81 -3 -2 -131 -52 -183
-71 -17 -6 -13 -10 24 -21 24 -7 96 -23 159 -34 129 -23 188 -45 238 -90 l35
-30 47 24 c26 13 137 52 247 86 165 51 305 109 305 125 0 2 -51 1 -114 -2
-103 -5 -118 -4 -157 16 -82 40 -79 34 -58 141 10 52 19 116 19 141 0 42 3 48
26 53 34 9 55 61 62 158 5 82 -4 108 -38 108 -24 0 -27 11 -35 121 -9 129 -20
164 -66 214 -59 64 -123 87 -244 91 -55 2 -117 -1 -138 -6z"/>
<path d="M1699 6850 c-17 -27 -57 -67 -88 -88 -31 -22 -131 -119 -223 -215
-137 -142 -174 -188 -204 -248 -47 -94 -53 -140 -24 -206 29 -68 60 -95 155
-135 68 -29 90 -34 148 -32 56 1 74 6 108 30 59 41 80 89 89 209 5 55 6 112 3
126 -3 14 2 40 11 57 9 17 16 33 16 37 0 12 -23 4 -53 -19 -18 -13 -45 -32
-61 -42 l-28 -18 6 32 c7 29 5 32 -31 48 -21 9 -54 19 -73 23 l-35 6 95 65
c52 35 137 106 189 156 l94 92 -5 67 c-4 50 -11 71 -26 86 -12 10 -23 19 -26
19 -2 0 -19 -22 -37 -50z"/>
<path d="M4732 6810 c-18 -21 -32 -44 -32 -51 0 -10 65 -93 109 -139 29 -30
73 -141 87 -222 35 -192 35 -191 81 -213 23 -11 51 -32 62 -47 12 -15 37 -32
57 -38 30 -10 42 -9 82 8 26 11 62 23 80 27 24 5 32 12 32 28 0 40 -34 91 -79
117 -62 36 -82 67 -85 132 -2 41 -11 71 -40 124 -47 85 -58 98 -123 140 -29
18 -85 65 -126 103 l-74 71 -31 -40z"/>
<path d="M4624 6185 c-64 -46 -83 -77 -104 -170 -6 -27 -23 -62 -36 -76 -14
-15 -36 -53 -49 -85 l-24 -59 57 -5 c31 -3 88 -18 126 -34 88 -36 109 -32 222
43 138 91 160 151 104 279 -25 57 -51 86 -109 123 -67 43 -111 39 -187 -16z"/>
<path d="M4890 6175 c0 -3 13 -23 29 -46 51 -70 67 -207 31 -266 -49 -82 -340
-212 -340 -153 0 16 -53 38 -117 49 -68 13 -93 7 -93 -19 0 -29 -35 -101 -69
-144 -61 -76 -30 -81 98 -16 43 21 94 42 114 45 36 7 37 6 37 -23 0 -52 9 -63
44 -57 28 5 177 -6 293 -21 35 -5 54 0 118 32 68 34 102 64 299 259 191 188
261 265 242 265 -2 0 -32 -19 -67 -42 l-64 -43 -111 -3 c-102 -3 -115 -2 -160
21 -61 31 -229 141 -238 156 -7 11 -46 16 -46 6z"/>
<path d="M1805 6102 c-67 -33 -83 -48 -117 -112 -49 -94 -27 -157 97 -285 134
-137 195 -146 366 -51 57 32 108 62 113 66 15 14 -50 136 -101 191 -26 28 -61
77 -78 108 -36 66 -88 100 -167 107 -44 4 -63 0 -113 -24z"/>
<path d="M1116 6075 c-4 -27 -14 -71 -22 -97 -15 -49 -17 -89 -8 -123 7 -27
177 -105 228 -105 37 0 48 13 21 24 -32 12 -13 37 54 71 38 19 72 39 75 44 3
5 -22 12 -57 16 -120 14 -242 97 -273 186 l-11 34 -7 -50z"/>
<path d="M4185 6106 c-59 -15 -145 -57 -165 -81 -54 -66 -232 -147 -435 -201
-151 -39 -190 -55 -203 -82 -5 -9 -14 -54 -21 -99 -11 -70 -11 -93 2 -155 9
-40 18 -93 22 -118 8 -58 48 -126 85 -145 22 -11 63 -15 161 -15 126 0 135 1
197 31 35 16 66 28 68 26 3 -2 -14 -16 -36 -31 -41 -27 -53 -56 -22 -56 28 0
116 45 154 79 20 18 54 58 74 89 21 31 84 105 141 164 130 135 168 194 178
273 10 88 33 145 71 185 30 31 62 96 53 104 -2 2 -30 13 -62 25 -66 24 -180
27 -262 7z"/>
<path d="M2232 6040 c-51 -15 -99 -31 -107 -34 -10 -3 8 -26 56 -73 70 -67
104 -120 129 -198 20 -64 70 -153 96 -170 66 -43 158 -143 189 -205 38 -75 96
-133 163 -162 39 -18 50 -19 85 -8 25 7 65 9 111 5 85 -8 135 3 197 44 42 28
47 29 93 18 71 -16 76 -6 76 162 0 75 5 177 10 226 10 89 10 90 -15 112 -30
26 -191 80 -374 124 -120 28 -144 38 -216 85 -166 108 -311 130 -493 74z"/>
<path d="M5340 5781 c-196 -199 -209 -210 -292 -250 -49 -24 -88 -44 -88 -46
0 -2 14 -13 30 -25 l30 -21 95 56 c74 44 116 79 189 157 86 91 256 321 245
332 -2 3 -96 -89 -209 -203z"/>
<path d="M1590 5941 c-51 -41 -171 -111 -191 -111 -9 0 -27 -8 -40 -19 l-23
-18 39 -21 40 -20 -30 -8 c-53 -15 -129 -9 -173 13 -23 11 -42 19 -42 16 0 -2
47 -57 105 -122 83 -95 123 -130 197 -179 183 -118 348 -187 492 -208 54 -7
54 -7 5 56 -15 19 -31 47 -34 62 -9 34 11 94 33 104 9 5 60 11 112 14 l95 5
-55 29 c-44 23 -68 29 -121 30 -83 1 -176 46 -253 122 -82 82 -141 225 -112
272 12 20 -8 13 -44 -17z"/>
<path d="M2227 5676 c-45 -17 -151 -96 -140 -106 15 -13 214 -80 239 -80 28 0
27 -5 14 80 -20 123 -32 135 -113 106z"/>
<path d="M4425 5557 c-87 -36 -107 -49 -155 -100 -110 -119 -145 -154 -159
-159 -12 -3 -9 -23 13 -110 15 -58 36 -129 48 -159 23 -59 25 -110 11 -316 -5
-62 -6 -113 -3 -112 3 0 54 63 115 140 60 76 141 174 179 216 123 137 142 217
107 440 -12 72 -21 148 -21 167 0 46 -7 46 -135 -7z"/>
<path d="M2355 5558 c3 -7 9 -35 14 -61 l9 -48 -24 16 c-22 14 -27 14 -62 -4
-55 -28 -82 -60 -129 -151 -70 -134 -62 -168 97 -405 80 -120 247 -315 270
-315 7 0 40 135 40 167 0 16 -5 20 -19 16 -22 -6 -51 30 -51 62 0 12 11 54 24
93 21 61 25 91 25 189 -1 110 -3 122 -30 180 -20 41 -48 78 -82 109 -41 36
-45 43 -21 30 42 -21 88 -75 125 -148 l31 -61 19 31 20 30 -35 70 c-19 38 -48
80 -64 93 -146 118 -166 132 -157 107z"/>
<path d="M4586 5522 c-6 -11 8 -98 25 -149 l10 -32 72 5 c98 7 202 30 262 57
l49 23 -89 49 -90 49 -116 4 c-70 2 -119 0 -123 -6z"/>
<path d="M2060 5476 c-64 -10 -76 -15 -87 -36 -7 -14 -13 -32 -13 -40 0 -24
79 -124 103 -132 35 -10 57 -9 57 3 0 7 15 44 34 83 28 57 42 75 70 89 46 21
45 33 -1 41 -46 7 -67 6 -163 -8z"/>
<path d="M3990 5234 c-36 -24 -66 -50 -68 -57 -1 -7 10 -25 26 -40 22 -21 42
-28 88 -33 l61 -7 -4 59 c-6 74 -16 117 -28 120 -6 1 -39 -18 -75 -42z"/>
<path d="M2610 5260 c0 -6 -10 -31 -22 -57 -12 -26 -22 -67 -22 -92 l-1 -46
46 -3 c44 -3 50 0 105 51 l58 55 -52 22 c-29 13 -63 36 -77 51 -25 30 -35 36
-35 19z"/>
<path d="M3108 5190 c-81 -25 -194 -139 -246 -248 l-35 -74 25 -25 c25 -25 26
-25 59 -8 19 10 67 44 107 76 85 69 119 78 182 50 55 -24 156 -36 191 -23 50
20 63 183 18 231 -17 18 -31 21 -112 21 -51 0 -108 2 -127 5 -19 2 -47 0 -62
-5z"/>
<path d="M3563 5134 c-80 -53 -118 -101 -107 -136 4 -13 24 -49 45 -80 22 -31
44 -69 49 -83 14 -38 83 -135 119 -169 26 -25 42 -30 92 -34 34 -3 86 1 116 8
44 9 56 17 65 38 16 41 -6 211 -40 312 -48 141 -50 144 -134 168 -105 32 -125
29 -205 -24z"/>
<path d="M2736 5113 l-66 -57 0 -55 c0 -56 -27 -121 -50 -121 -5 0 -10 -10
-10 -23 0 -12 -13 -84 -28 -158 -28 -135 -28 -136 -11 -188 10 -29 23 -89 29
-134 18 -137 80 -377 111 -432 15 -27 50 -77 76 -110 42 -52 62 -67 153 -112
58 -28 106 -50 107 -49 2 2 -12 36 -31 77 -28 62 -34 90 -40 174 -7 115 -36
265 -67 347 -11 31 -41 80 -65 108 -25 29 -52 67 -61 84 -24 46 -25 176 -2
251 11 33 23 93 28 134 10 78 52 177 95 224 l24 25 -23 6 c-12 3 -39 19 -60
36 -21 16 -39 30 -41 30 -1 0 -32 -26 -68 -57z"/>
<path d="M3887 5128 c40 -50 84 -262 86 -408 0 -67 -4 -95 -21 -131 -13 -28
-26 -84 -32 -145 -15 -136 -26 -189 -55 -259 -29 -72 -31 -109 -9 -237 l17
-97 -82 -77 c-45 -42 -86 -85 -92 -95 -24 -45 255 83 323 148 60 59 94 198
119 499 16 192 10 275 -23 344 -15 31 -42 108 -61 172 -33 115 -77 197 -142
271 -24 26 -47 39 -28 15z"/>
<path d="M4060 5077 c-22 -11 -25 -19 -23 -59 3 -92 43 -131 89 -87 38 35 30
112 -15 146 -20 15 -21 15 -51 0z"/>
<path d="M3115 4917 c-52 -24 -183 -135 -230 -195 -51 -64 -65 -103 -65 -180
0 -48 4 -58 34 -88 19 -19 44 -34 56 -34 13 0 69 25 126 55 l103 56 79 -7 c77
-6 79 -6 100 21 31 39 72 176 72 239 0 42 -5 57 -22 73 -64 58 -191 88 -253
60z"/>
<path d="M3466 4724 c-66 -24 -69 -29 -63 -114 3 -47 16 -109 36 -166 17 -51
31 -102 31 -113 0 -35 28 -80 53 -85 12 -3 63 -7 112 -9 78 -3 95 -7 129 -30
51 -35 72 -34 93 6 15 27 18 59 19 197 0 91 2 172 5 180 4 17 -4 17 -68 0 -56
-13 -122 1 -146 32 -76 98 -98 118 -130 117 -18 0 -50 -7 -71 -15z"/>
<path d="M3120 4480 c-32 -19 -61 -33 -159 -76 l-34 -15 6 -77 c7 -87 31 -178
55 -204 11 -13 30 -18 66 -18 29 0 79 -8 111 -17 78 -22 125 -20 173 7 90 51
104 143 46 293 -20 50 -38 94 -40 96 -5 5 -142 30 -169 30 -11 1 -36 -8 -55
-19z"/>
<path d="M3478 4182 c-10 -17 -18 -39 -18 -51 0 -33 48 -155 67 -168 11 -9 56
-13 135 -13 l119 0 19 43 c11 23 20 61 20 83 0 85 -66 124 -225 131 l-100 5
-17 -30z"/>
<path d="M2994 4019 c3 -13 10 -53 16 -89 29 -173 70 -247 159 -288 54 -25 61
-26 246 -24 l190 1 53 56 c35 38 69 90 102 158 27 56 47 103 46 105 -2 1 -16
-2 -32 -9 -16 -6 -101 -11 -194 -12 l-165 -2 -85 42 c-95 46 -180 71 -276 80
-65 6 -65 6 -60 -18z"/>
<path d="M2661 3679 c-36 -104 -79 -220 -97 -257 -18 -37 -32 -67 -31 -68 1 0
27 -6 57 -12 217 -48 580 -263 782 -464 23 -23 30 -22 59 0 104 81 349 232
469 290 121 58 204 84 287 90 61 4 77 1 109 -17 21 -13 34 -16 31 -9 -88 208
-176 425 -203 503 -19 55 -37 106 -39 114 -4 9 -21 -2 -58 -36 -152 -143 -390
-223 -663 -223 -282 0 -476 77 -609 242 l-30 37 -64 -190z"/>
<path d="M2525 3303 c-12 -58 -36 -133 -45 -138 -6 -4 -10 -39 -10 -78 0 -40
-7 -139 -15 -222 -16 -160 -32 -605 -22 -605 3 0 23 32 44 72 56 107 94 152
247 291 176 161 177 161 169 -20 -4 -99 -1 -159 15 -268 11 -77 23 -174 27
-215 3 -41 20 -119 37 -174 l31 -99 38 74 c21 41 52 111 70 156 17 45 46 99
64 120 48 56 144 193 166 235 14 28 24 86 36 223 9 102 15 186 12 188 -63 48
-456 332 -486 351 -23 15 -81 45 -130 65 -77 33 -118 46 -220 67 -18 3 -24 -1
-28 -23z"/>
<path d="M4173 3226 c-23 -8 -62 -25 -85 -39 -24 -13 -69 -32 -102 -41 -32
-10 -75 -28 -96 -41 -21 -13 -87 -46 -146 -73 -60 -27 -158 -80 -219 -118
l-110 -70 -6 -80 c-4 -43 -10 -114 -14 -156 -7 -63 -5 -86 10 -125 24 -65 67
-127 145 -210 81 -87 144 -193 205 -348 27 -66 73 -169 103 -229 47 -96 55
-107 65 -90 6 10 11 49 10 85 0 52 -6 79 -29 125 -25 52 -29 69 -28 144 1 66
72 668 100 848 4 28 24 47 24 23 0 -14 131 -209 190 -281 55 -69 90 -130 109
-195 22 -72 22 -72 37 -40 17 40 17 163 -1 250 -8 39 -19 179 -25 312 -8 215
-12 249 -32 300 -26 65 -37 70 -105 49z"/>
<path d="M4326 2939 c4 -171 11 -261 25 -333 10 -54 19 -126 19 -160 l0 -61
27 40 c14 21 34 64 44 94 10 31 18 46 18 34 1 -12 6 -34 11 -48 9 -23 13 -25
25 -15 34 28 11 315 -34 427 -11 26 -47 95 -80 152 l-60 105 5 -235z"/>
<path d="M2382 2980 c-92 -185 -125 -337 -124 -580 0 -168 20 -252 96 -402
l54 -107 7 36 c8 44 46 83 80 83 l26 0 -26 43 c-43 70 -81 159 -88 204 -8 48
6 332 29 599 8 99 14 196 12 215 -3 31 -8 24 -66 -91z"/>
<path d="M3987 2636 c-4 -103 -12 -178 -26 -232 -29 -111 -50 -239 -62 -379
-14 -153 -5 -184 66 -234 44 -32 56 -36 112 -36 57 0 65 3 98 35 92 88 149
302 125 469 -14 101 -33 138 -141 285 -52 69 -110 153 -130 185 l-36 60 -6
-153z"/>
<path d="M2680 2543 c-185 -187 -205 -220 -198 -321 3 -40 16 -92 32 -129 22
-53 25 -74 23 -145 -2 -77 1 -89 31 -151 58 -116 147 -151 252 -97 137 70 181
155 125 245 -20 33 -24 53 -25 115 0 82 -5 119 -45 350 -25 141 -26 159 -13
200 16 54 13 90 -10 90 -9 0 -87 -71 -172 -157z"/>
<path d="M4461 2439 c-80 -62 -100 -107 -101 -227 0 -69 18 -203 29 -214 10
-11 79 171 102 270 12 49 19 108 17 144 l-3 61 -44 -34z"/>
<path d="M4312 2010 c-33 -142 -60 -191 -134 -240 -53 -35 -67 -40 -118 -40
-55 0 -59 -2 -79 -34 -12 -18 -21 -44 -21 -58 0 -24 28 -62 51 -70 7 -2 13
-22 13 -45 1 -58 16 -70 99 -78 100 -10 107 -15 107 -76 0 -28 5 -59 11 -70
10 -20 11 -20 31 -2 12 10 38 54 58 98 30 63 41 106 56 205 19 131 20 290 2
324 -15 29 -38 116 -38 148 0 58 -16 32 -38 -62z"/>
<path d="M2457 1965 c-9 -8 -23 -37 -32 -65 -9 -27 -21 -52 -26 -55 -26 -17
-3 -165 42 -268 18 -39 35 -98 39 -129 7 -65 21 -81 84 -99 45 -12 84 -5 103
19 34 44 74 124 89 178 29 105 29 108 10 101 -37 -15 -93 5 -145 50 -72 63
-99 113 -105 196 -3 37 -8 72 -11 78 -9 14 -32 11 -48 -6z"/>
<path d="M2331 1665 c-20 -93 -23 -128 -18 -225 7 -147 31 -236 111 -419 88
-198 134 -315 142 -356 7 -40 39 -85 60 -85 19 0 27 40 15 74 -6 15 -18 59
-26 97 -8 38 -30 107 -49 152 -42 100 -56 150 -56 202 0 66 14 71 40 15 26
-55 43 -74 77 -84 19 -6 23 -2 29 21 4 15 13 37 20 48 10 13 14 51 14 116 l0
96 -25 -5 c-13 -2 -57 4 -97 13 -86 22 -118 48 -118 99 0 58 -20 137 -51 201
-16 33 -33 80 -37 105 -8 45 -8 45 -31 -65z"/>
<path d="M2883 1700 c-52 -23 -88 -76 -103 -155 -7 -33 -25 -99 -41 -146 -33
-98 -35 -128 -14 -168 11 -22 14 -63 13 -167 -1 -120 1 -147 20 -199 17 -46
22 -80 21 -146 -1 -94 10 -129 42 -129 18 0 20 4 13 32 -4 18 -7 67 -7 109 1
62 8 92 34 155 29 73 32 88 32 192 l0 113 40 40 40 39 -6 68 c-5 52 -18 90
-57 171 -56 114 -56 114 3 178 28 31 19 35 -30 13z"/>
<path d="M4405 1555 c-15 -138 -40 -199 -109 -272 -44 -48 -62 -43 -81 19 -8
28 -15 59 -15 69 0 35 -12 49 -42 49 -84 0 -88 -46 -18 -236 28 -75 50 -141
50 -148 0 -17 35 -47 92 -80 27 -15 55 -40 63 -56 13 -25 13 -33 0 -69 -23
-65 -34 -148 -36 -261 -4 -192 25 -236 34 -52 7 129 28 223 80 358 60 155 69
192 74 329 l5 130 -45 140 -45 139 -7 -59z"/>
<path d="M3927 1568 c-11 -9 -32 -68 -57 -168 -59 -230 -56 -370 12 -442 25
-27 38 -60 74 -193 24 -87 56 -231 70 -320 15 -88 30 -163 34 -168 3 -4 12 32
18 81 7 49 21 115 32 147 29 85 27 100 -19 126 -47 26 -56 43 -70 135 -6 40
-27 122 -46 184 -19 61 -35 121 -35 132 0 38 70 182 107 220 l36 37 -59 117
c-32 65 -64 119 -69 121 -6 2 -19 -2 -28 -9z"/>
<path d="M4051 1277 c-43 -70 -71 -143 -71 -188 0 -49 52 -287 74 -340 8 -19
33 -61 56 -93 l41 -59 -20 -106 c-11 -58 -25 -135 -31 -171 -7 -35 -18 -76
-26 -92 -9 -17 -14 -59 -14 -118 l0 -92 210 3 c116 2 210 5 210 6 0 2 -22 30
-48 63 -41 50 -56 82 -92 193 -38 115 -44 146 -48 242 -3 77 1 141 13 212 10
56 15 113 11 126 -3 14 -28 41 -54 62 -78 59 -150 198 -167 322 -4 29 -11 55
-15 58 -5 3 -17 -10 -29 -28z"/>
<path d="M2673 1046 c-29 -59 -53 -60 -105 -6 -36 39 -38 39 -38 17 0 -14 18
-52 41 -86 46 -69 59 -107 59 -172 0 -25 7 -70 16 -99 18 -61 14 -125 -10
-149 -15 -14 -19 -14 -46 2 l-30 18 0 -51 c0 -29 -15 -129 -34 -223 -19 -95
-37 -196 -41 -225 l-7 -52 159 1 c87 1 171 4 188 8 29 6 30 8 32 66 4 136 14
209 33 252 24 53 26 132 6 172 -11 20 -31 34 -75 50 -70 25 -67 19 -75 166 -4
55 -13 129 -22 165 -9 36 -19 94 -23 129 l-6 63 -22 -46z"/>
</g>
</svg>
