<?xml version="1.0" standalone="no"?>
<!DOCTYPE svg PUBLIC "-//W3C//DTD SVG 20010904//EN"
 "http://www.w3.org/TR/2001/REC-SVG-20010904/DTD/svg10.dtd">
<svg version="1.0" xmlns="http://www.w3.org/2000/svg"
 width="250.000000pt" height="250.000000pt" viewBox="0 0 250.000000 250.000000"
 preserveAspectRatio="xMidYMid meet">
<metadata>
Created by potrace 1.16, written by Peter Selinger 2001-2019
</metadata>
<g transform="translate(0.000000,250.000000) scale(0.021277,-0.021277)"
fill="#000000" stroke="none">
<path d="M11445 11542 c-66 -7 -145 -37 -294 -112 -174 -87 -221 -109 -435
-204 -181 -80 -206 -97 -281 -191 -62 -77 -138 -147 -202 -185 -32 -19 -126
-79 -209 -135 -505 -336 -759 -498 -818 -525 -38 -17 -128 -51 -201 -75 -252
-85 -338 -128 -523 -264 l-92 -69 33 -6 c71 -13 122 -105 138 -244 9 -83 5
-150 -17 -299 -5 -35 -4 -43 9 -43 22 0 103 58 267 190 174 139 223 173 297
206 84 37 162 96 234 176 59 65 90 105 233 301 27 36 72 82 100 101 59 41 334
157 432 183 57 15 73 25 103 61 32 38 45 45 151 78 242 75 289 108 400 284 32
51 74 103 107 130 55 46 69 80 32 80 -25 0 -59 17 -59 30 0 5 44 32 99 60 68
36 140 87 232 164 74 61 170 140 214 175 44 35 88 73 98 84 33 38 16 56 -48
49z"/>
<path d="M5124 10809 c-66 -11 -122 -35 -252 -110 -160 -92 -253 -161 -325
-242 -142 -158 -199 -330 -198 -592 0 -210 45 -339 170 -492 32 -40 69 -89 81
-110 13 -21 44 -72 70 -113 42 -68 49 -87 68 -195 11 -66 26 -186 33 -266 11
-130 10 -153 -5 -216 -16 -65 -16 -73 -2 -102 24 -45 50 -55 161 -61 98 -5
102 -6 145 -42 51 -41 117 -62 163 -52 18 3 72 26 120 51 62 31 125 52 209 71
104 23 124 31 141 54 19 25 19 33 9 104 -9 69 -7 100 24 313 22 153 34 269 33
330 -2 112 -1 113 110 136 132 28 174 45 213 86 57 59 63 109 33 255 -14 65
-25 135 -25 156 0 26 -6 41 -20 51 -17 12 -40 63 -40 89 0 5 10 18 21 29 26
26 28 63 5 88 -9 10 -47 35 -85 56 -38 20 -86 54 -106 75 -30 31 -38 47 -45
100 -10 72 -45 131 -134 227 -56 60 -56 61 -56 124 0 87 -13 108 -90 147 -109
54 -282 75 -426 51z"/>
<path d="M10115 10311 c-84 -31 -363 -179 -411 -218 -53 -44 -251 -277 -323
-378 -98 -139 -184 -205 -546 -420 -178 -105 -188 -112 -224 -170 -54 -86
-122 -207 -118 -211 7 -8 268 143 340 197 81 60 132 83 276 125 184 53 375
201 515 398 30 43 107 133 169 200 175 186 309 344 302 356 -4 6 -2 9 4 8 15
-4 91 91 91 113 0 23 -10 23 -75 0z"/>
<path d="M2970 9980 c-114 -18 -354 -96 -460 -150 -70 -36 -128 -88 -141 -127
-17 -53 -7 -171 21 -227 41 -86 99 -101 260 -66 96 21 104 21 144 6 51 -20 96
-21 121 -3 24 18 16 61 -31 152 -20 39 -44 97 -55 130 -18 59 -18 59 1 35 10
-13 35 -67 56 -120 75 -194 73 -190 108 -190 37 0 76 24 76 47 0 17 -93 258
-122 316 -35 71 -10 50 36 -30 60 -102 107 -216 111 -267 1 -23 3 -44 4 -48 2
-15 77 -8 101 9 52 35 52 47 -1 186 -63 169 -118 250 -194 290 -25 14 -27 16
-9 17 11 0 41 -14 66 -30 78 -52 118 -117 179 -295 42 -121 57 -137 105 -114
44 22 53 62 26 112 -22 40 -131 254 -155 307 -24 51 -134 77 -247 60z"/>
<path d="M8135 9743 c-343 -43 -703 -280 -919 -606 -82 -123 -186 -331 -186
-371 0 -15 9 -27 28 -36 37 -18 206 -23 384 -13 142 9 148 10 220 47 142 73
666 441 761 534 69 67 100 131 100 208 0 170 -158 266 -388 237z"/>
<path d="M2255 9701 c-38 -22 -58 -42 -80 -82 -46 -87 -112 -186 -213 -319
-126 -166 -123 -164 -307 -303 -250 -189 -356 -308 -424 -478 -55 -140 -79
-336 -61 -499 13 -115 24 -149 64 -197 24 -28 34 -33 72 -33 73 0 129 33 167
99 23 39 44 61 70 73 46 23 54 58 38 178 -17 123 -7 145 91 198 117 64 124 72
132 143 8 79 24 136 50 174 30 45 47 54 96 55 127 1 212 97 358 400 117 244
123 275 63 334 l-40 39 6 101 c5 96 -3 146 -25 146 -4 0 -30 -13 -57 -29z"/>
<path d="M3250 9440 c-45 -24 -127 -35 -162 -21 -23 9 -32 7 -55 -13 -38 -32
-21 -50 62 -66 57 -11 68 -10 102 6 34 17 103 97 92 108 -2 2 -20 -4 -39 -14z"/>
<path d="M8323 9116 c-90 -34 -158 -77 -307 -197 -72 -58 -159 -124 -193 -147
-76 -52 -189 -97 -262 -106 -71 -9 -102 -29 -155 -96 -45 -58 -130 -199 -124
-205 2 -2 72 -9 155 -15 166 -11 339 -1 412 25 135 47 369 228 387 299 12 50
-3 75 -51 88 -25 7 -45 15 -45 18 0 3 37 30 83 60 252 167 335 235 324 265
-16 40 -129 46 -224 11z"/>
<path d="M5836 9071 c-6 -9 -43 -203 -61 -311 -29 -183 -19 -250 48 -311 75
-69 203 -44 482 91 137 67 217 93 329 108 l56 7 -64 81 c-125 158 -170 180
-584 288 -112 29 -205 50 -206 47z"/>
<path d="M4639 8981 c-149 -58 -319 -179 -474 -335 -121 -123 -156 -175 -135
-201 23 -28 152 -94 233 -120 95 -31 150 -32 212 -4 47 21 113 23 156 5 14 -6
23 9 50 76 32 79 34 89 34 208 -1 86 -6 149 -19 203 -11 48 -17 100 -14 133 3
30 4 54 4 54 -1 -1 -22 -9 -47 -19z"/>
<path d="M8373 8889 c-58 -28 -96 -75 -90 -108 3 -14 -5 -54 -18 -88 -78 -205
-215 -318 -448 -368 -91 -20 -327 -19 -463 1 -103 15 -108 15 -133 -4 -29 -21
-75 -130 -86 -204 l-7 -47 38 -10 c22 -6 91 -14 154 -19 568 -45 963 234 1116
786 15 54 15 65 3 73 -19 12 -18 12 -66 -12z"/>
<path d="M6840 8777 c-68 -16 -140 -55 -140 -77 0 -23 42 -85 93 -138 41 -43
125 -107 131 -100 8 8 48 238 50 278 l1 45 -40 2 c-22 1 -65 -4 -95 -10z"/>
<path d="M1995 8699 c-98 -22 -114 -43 -145 -188 -11 -47 -27 -96 -38 -110
-10 -14 -52 -49 -93 -77 -86 -59 -102 -82 -95 -144 8 -76 23 -100 66 -100 29
0 243 69 254 82 2 1 16 23 31 47 15 25 58 77 95 116 63 67 69 76 75 128 7 54
-3 139 -25 220 -10 34 -13 37 -48 36 -20 -1 -55 -5 -77 -10z"/>
<path d="M7017 8686 c-15 -39 -29 -188 -24 -256 7 -93 29 -151 69 -185 37 -32
47 -31 79 3 51 53 289 389 289 407 0 1 -44 5 -97 9 -113 8 -270 25 -294 32 -9
2 -19 -2 -22 -10z"/>
<path d="M3379 8626 c-71 -20 -155 -62 -223 -110 -68 -49 -176 -149 -176 -162
1 -11 167 -138 388 -297 168 -120 273 -187 296 -187 8 0 16 33 24 96 7 53 21
116 31 139 20 45 106 151 209 256 l64 67 -113 75 c-121 79 -163 101 -244 123
-61 17 -194 17 -256 0z"/>
<path d="M2435 8546 c-125 -41 -251 -122 -320 -207 -19 -24 -49 -61 -66 -82
-86 -106 -41 -189 158 -287 135 -67 229 -91 373 -97 94 -4 131 -1 204 16 164
39 386 161 386 213 0 13 -33 44 -163 151 -58 49 -139 125 -179 170 -89 99 -93
103 -143 127 -56 27 -160 26 -250 -4z"/>
<path d="M6502 8550 c-52 -18 -206 -94 -227 -111 -24 -18 -163 -67 -200 -70
-22 -2 -79 0 -126 5 -104 9 -127 4 -317 -76 -85 -35 -174 -65 -219 -72 -62
-11 -79 -19 -99 -42 -62 -74 -90 -168 -99 -326 -6 -101 -4 -130 9 -160 21 -49
20 -85 -5 -204 -30 -143 -25 -291 13 -355 15 -25 43 -58 63 -73 114 -87 418
-176 606 -177 96 0 244 25 334 58 94 34 130 40 195 32 65 -7 111 6 138 41 11
14 39 63 64 110 24 47 79 132 123 190 43 58 88 128 100 155 12 28 35 79 50
115 15 36 43 98 61 138 47 102 83 232 91 324 5 65 2 87 -17 140 -51 140 -182
296 -294 349 -75 35 -162 39 -244 9z"/>
<path d="M4017 8320 c-49 -15 -126 -80 -184 -155 -102 -133 -135 -307 -98
-519 22 -125 100 -337 138 -379 7 -6 24 -28 39 -47 81 -107 265 -251 411 -321
42 -21 51 -22 83 -10 30 11 53 11 130 0 74 -10 107 -10 159 0 127 23 173 47
257 132 42 44 96 112 120 151 43 72 43 72 49 198 5 97 11 135 27 170 26 55 30
176 7 240 -11 32 -13 68 -8 159 8 149 0 171 -77 239 -80 71 -104 82 -177 82
-35 0 -119 9 -187 20 l-125 21 -80 -21 c-108 -27 -146 -25 -232 12 -79 33
-195 47 -252 28z"/>
<path d="M1869 8105 c-56 -20 -119 -55 -174 -94 -27 -20 -67 -45 -88 -56 -58
-30 -137 -107 -137 -133 0 -12 6 -22 13 -22 79 2 224 22 241 34 12 7 64 69
116 137 51 68 97 130 103 137 13 16 -26 15 -74 -3z"/>
<path d="M1895 7923 c-54 -81 -99 -152 -102 -159 -17 -44 321 -51 762 -15 322
27 383 21 442 -42 37 -39 53 -84 53 -150 0 -44 2 -48 16 -37 8 8 27 34 42 59
14 25 31 49 36 53 30 20 128 20 278 -2 133 -19 162 -21 188 -10 40 17 54 43
39 73 -35 64 -209 231 -352 336 -63 46 -69 46 -120 -8 -57 -59 -195 -117 -382
-162 -111 -27 -287 -29 -385 -6 -129 31 -276 103 -377 184 l-41 34 -97 -148z"/>
<path d="M1086 7983 c-19 -32 -30 -66 -33 -103 -4 -49 -2 -59 24 -92 43 -55
201 -156 224 -143 5 4 8 1 7 -5 -3 -11 288 -168 353 -191 22 -8 58 8 270 121
l244 130 -180 0 c-196 0 -255 9 -255 40 0 28 -26 31 -136 18 -157 -20 -320
-17 -374 7 -82 37 -101 69 -109 183 l-6 83 -29 -48z"/>
<path d="M7118 8014 c-34 -18 -43 -61 -29 -140 10 -55 9 -65 -15 -123 -14 -35
-32 -73 -40 -85 -8 -13 -26 -56 -40 -96 -49 -141 -90 -197 -200 -270 -110 -75
-118 -107 -42 -180 23 -22 40 -41 37 -43 -2 -1 -21 -14 -41 -27 -71 -47 -99
-140 -58 -192 35 -45 41 -79 45 -242 3 -140 6 -162 22 -174 26 -19 83 -6 182
41 92 44 148 93 285 252 38 44 100 114 138 156 205 227 282 363 330 584 17 80
17 363 -1 432 -7 29 -23 63 -36 78 -24 25 -26 25 -122 19 -56 -4 -135 -2 -183
4 -156 21 -203 22 -232 6z"/>
<path d="M2570 7723 c-361 -59 -372 -62 -713 -228 l-148 -73 60 -40 c309 -212
706 -276 1041 -170 126 40 209 79 240 112 20 22 25 38 25 78 0 68 -19 82 -104
74 l-63 -5 40 43 c54 59 65 82 58 122 -8 38 -42 66 -101 83 -37 10 -279 13
-335 4z"/>
<path d="M3185 7580 c-49 -19 -56 -52 -45 -195 18 -211 76 -391 173 -535 45
-67 166 -189 302 -305 121 -103 155 -139 223 -236 48 -68 119 -111 187 -113
45 -1 50 1 64 28 12 25 12 51 1 177 -12 144 -12 149 8 181 53 83 72 129 72
171 0 34 -5 48 -20 58 l-21 14 21 40 c41 81 25 111 -100 176 -105 54 -175 124
-228 227 -24 45 -47 84 -52 87 -6 3 -10 28 -10 55 0 65 -13 91 -63 123 -36 24
-52 27 -122 27 -44 0 -143 7 -220 15 -160 17 -144 16 -170 5z"/>
<path d="M5116 7177 c-17 -56 -28 -70 -108 -147 -48 -47 -88 -88 -88 -92 0 -5
7 -8 15 -8 9 0 38 -11 65 -25 57 -29 86 -31 126 -10 19 10 58 15 116 15 47 0
93 3 102 6 28 11 17 42 -26 76 -23 18 -56 48 -74 67 -35 36 -94 139 -94 165 0
35 -16 13 -34 -47z"/>
<path d="M6275 6909 c-59 -7 -110 -31 -125 -58 -6 -12 -7 -67 -3 -148 4 -100
10 -137 26 -168 28 -54 34 -180 14 -258 l-15 -57 65 6 66 7 -5 -40 c-9 -68
-78 -196 -169 -317 -46 -60 -59 -115 -57 -241 1 -103 -59 -477 -98 -607 -16
-54 103 10 326 176 121 90 217 186 257 256 69 120 106 286 119 537 6 103 5
124 -9 137 -8 9 -20 47 -27 86 -11 64 -10 81 10 166 27 114 24 205 -8 278 -14
30 -22 69 -22 102 l0 54 -40 0 c-46 0 -137 32 -174 61 -36 28 -73 36 -131 28z"/>
<path d="M5280 6883 c-42 -7 -132 -56 -153 -85 -17 -23 -18 -30 -7 -57 15 -37
62 -74 133 -105 54 -24 88 -32 192 -41 84 -8 152 -29 209 -65 67 -43 146 -56
250 -41 154 21 216 78 216 196 0 67 -24 120 -63 134 -31 12 -79 18 -361 46
-230 23 -351 28 -416 18z"/>
<path d="M4767 6859 c-162 -24 -337 -93 -378 -150 -35 -49 -26 -209 12 -209 5
0 31 11 57 24 49 25 159 59 225 71 82 14 220 7 286 -14 86 -28 135 -28 155 1
22 31 20 71 -4 93 -21 19 -35 57 -45 123 -11 67 -21 72 -143 71 -59 -1 -133
-5 -165 -10z"/>
<path d="M4295 6833 c-38 -8 -72 -17 -75 -20 -3 -2 -5 -42 -5 -88 0 -83 0 -84
-33 -107 l-33 -23 -4 -150 c-2 -93 -12 -195 -25 -270 -27 -154 -37 -422 -21
-563 20 -172 64 -314 132 -429 82 -136 288 -283 469 -333 54 -16 103 -31 109
-35 35 -21 -33 92 -159 265 -94 129 -132 215 -199 450 -47 165 -47 171 -16
235 25 50 26 59 14 83 -22 43 -22 45 -11 38 16 -10 42 4 42 23 0 9 -16 33 -36
52 -20 18 -49 50 -65 71 l-29 36 46 -1 c26 -1 49 3 51 9 2 6 -15 37 -37 70
-62 91 -71 132 -76 351 l-5 191 56 63 c84 94 86 99 28 98 -26 0 -79 -7 -118
-16z"/>
<path d="M5254 6564 c-20 -10 -39 -33 -57 -69 -41 -84 -43 -119 -12 -226 64
-222 134 -318 213 -288 45 17 221 23 272 9 92 -26 148 -9 291 86 108 72 150
114 177 174 32 71 40 171 19 223 -15 34 -19 37 -55 37 -31 0 -53 -10 -99 -44
-33 -24 -70 -49 -82 -55 -42 -23 -126 -15 -211 19 -25 10 -76 31 -115 46 -38
14 -110 44 -158 65 -95 42 -135 47 -183 23z"/>
<path d="M4628 6560 c-101 -16 -209 -85 -242 -154 -30 -64 -18 -131 41 -224
79 -125 193 -124 332 4 93 85 151 103 233 74 19 -7 47 -10 61 -6 35 8 69 59
75 111 10 91 -64 160 -197 185 -80 15 -238 20 -303 10z"/>
<path d="M4850 6199 c-19 -6 -60 -35 -92 -65 -33 -30 -91 -69 -132 -89 -81
-39 -95 -57 -103 -141 -6 -59 10 -119 35 -129 19 -7 274 -25 387 -28 63 -1 78
3 149 38 107 54 119 74 113 185 -6 130 -40 193 -117 219 -48 17 -198 23 -240
10z"/>
<path d="M6110 6132 c-30 -21 -103 -76 -163 -123 -59 -47 -123 -95 -143 -105
l-35 -19 -23 26 c-35 40 -56 48 -158 59 -128 13 -124 14 -160 -21 -23 -21 -39
-29 -54 -25 -35 9 -83 -13 -90 -41 -4 -15 5 -64 24 -126 19 -63 32 -135 36
-189 7 -115 37 -170 109 -197 44 -17 67 -14 221 29 168 46 238 75 288 119 49
42 56 67 61 206 5 138 23 196 77 236 91 67 144 149 127 193 -11 27 -59 18
-117 -22z"/>
<path d="M4686 5725 c-67 -23 -117 -98 -118 -176 -2 -62 52 -173 120 -249 47
-52 47 -52 117 -57 117 -9 210 16 310 82 46 31 98 61 114 66 54 19 51 105 -7
213 -36 65 -71 86 -147 86 -33 0 -114 11 -180 25 -137 28 -155 29 -209 10z"/>
<path d="M6520 5278 c-30 -28 -104 -88 -165 -133 -299 -222 -619 -370 -922
-427 -166 -31 -405 -30 -548 2 -204 45 -382 122 -548 236 -50 35 -94 61 -99
58 -4 -3 -8 -24 -8 -47 0 -41 2 -43 91 -107 224 -161 463 -381 568 -524 51
-68 78 -129 96 -216 50 -235 226 -573 341 -652 62 -43 89 -38 154 30 115 118
203 354 225 602 13 155 54 271 143 404 99 150 237 286 527 521 61 49 115 96
122 105 15 20 14 21 127 -154 l96 -149 0 109 c0 126 -18 221 -54 290 -24 48
-70 104 -84 104 -4 -1 -32 -24 -62 -52z"/>
<path d="M5640 5290 c-72 -12 -130 -46 -213 -124 -106 -101 -117 -104 -223
-76 -77 21 -91 22 -153 11 -70 -13 -162 -50 -195 -79 -27 -25 -37 -58 -25 -85
14 -32 104 -84 180 -104 176 -46 587 8 746 98 104 59 164 161 171 291 l5 78
-124 -1 c-68 -1 -144 -5 -169 -9z"/>
<path d="M6361 4903 c-78 -82 -190 -191 -249 -243 -178 -157 -235 -236 -293
-409 -28 -86 -32 -113 -39 -261 -6 -153 -9 -169 -35 -220 -38 -76 -102 -164
-197 -271 -77 -87 -79 -91 -69 -122 27 -83 73 -284 92 -397 54 -329 201 -603
481 -895 186 -195 335 -399 431 -590 36 -72 142 -236 196 -302 160 -198 281
-333 267 -298 -4 11 -11 31 -16 45 -17 56 -83 227 -111 286 -19 39 -53 86 -93
126 -172 172 -254 324 -291 534 -19 108 -19 207 0 399 30 322 38 543 26 721
-7 93 -18 203 -26 244 -50 263 -57 330 -52 535 9 379 67 569 181 590 115 22
225 -87 335 -335 59 -133 86 -161 189 -203 38 -16 98 -51 132 -78 l62 -50 -7
33 c-39 187 -114 351 -320 693 -95 158 -115 184 -230 305 -52 56 -113 133
-144 185 -30 50 -60 98 -66 108 -11 15 -28 1 -154 -130z"/>
<path d="M4153 4832 c-10 -15 -18 -34 -18 -42 0 -8 -7 -15 -15 -15 -8 0 -15
-8 -15 -17 0 -9 -4 -20 -9 -25 -5 -5 -6 -2 -2 7 15 28 -43 -45 -74 -95 -18
-27 -56 -88 -86 -135 -39 -62 -52 -92 -48 -110 3 -19 2 -20 -4 -7 -6 15 -16 0
-49 -70 -70 -150 -104 -240 -143 -382 -42 -157 -73 -345 -67 -417 4 -56 39
-144 57 -144 3 0 11 49 18 108 26 233 85 479 152 627 69 153 165 245 258 248
44 2 48 0 64 -33 9 -19 18 -52 21 -72 5 -42 -24 -201 -49 -262 -17 -43 -106
-374 -143 -531 -26 -110 -87 -322 -147 -510 -69 -221 -134 -549 -134 -682 0
-61 11 -47 45 57 70 219 183 410 338 573 81 84 251 177 299 161 25 -8 23 -45
-9 -145 -25 -77 -27 -97 -27 -244 0 -146 3 -167 27 -241 15 -45 45 -121 68
-170 94 -202 134 -357 145 -547 11 -178 -22 -306 -107 -428 l-42 -59 31 -28
c31 -30 46 -70 58 -160 4 -28 9 -52 13 -52 3 0 39 27 78 60 84 70 110 114 178
304 24 67 57 159 75 206 17 47 65 180 105 295 74 211 120 331 135 350 15 19
119 230 140 285 105 268 134 505 90 734 -24 125 -40 164 -83 214 -163 185
-295 429 -347 641 -24 99 -26 104 -75 182 -46 72 -145 174 -233 241 -32 24
-97 77 -147 118 -49 42 -108 89 -130 105 -22 16 -70 53 -107 82 l-66 52 -19
-27z m158 -829 c93 -85 137 -224 146 -465 5 -119 -6 -302 -23 -387 -5 -25 -9
-27 -52 -27 -59 1 -119 -28 -222 -105 -117 -89 -243 -228 -301 -333 -40 -72
-37 -31 7 90 49 135 107 348 209 758 96 387 137 516 165 516 10 0 42 -21 71
-47z"/>
<path d="M4122 3573 c-67 -236 -124 -441 -128 -458 -7 -32 -60 -236 -71 -270
-3 -11 23 13 58 54 124 142 274 249 376 266 41 6 42 7 52 58 40 209 8 543 -66
679 -25 46 -74 98 -92 98 -4 0 -62 -192 -129 -427z"/>
<path d="M6579 4315 c-37 -20 -73 -96 -104 -222 -50 -205 -62 -425 -31 -573
44 -211 185 -427 367 -562 112 -83 258 -260 364 -440 62 -105 71 -116 85 -102
12 12 15 43 14 162 0 146 -19 264 -67 437 -8 28 -24 86 -36 130 -25 90 -149
455 -209 615 -121 324 -225 515 -304 556 -33 17 -46 17 -79 -1z"/>
<path d="M4042 4277 c-18 -18 -29 -37 -25 -42 5 -4 3 -5 -3 -2 -35 20 -152
-217 -202 -408 -44 -168 -68 -330 -107 -715 -43 -429 -54 -707 -33 -861 13
-96 28 -109 28 -24 0 57 31 311 56 460 20 122 53 247 103 389 23 66 59 205 81
315 22 108 67 302 101 431 47 182 62 258 66 336 9 158 -5 183 -65 121z"/>
<path d="M6992 3831 c-8 -5 2 -43 34 -126 85 -223 243 -709 264 -815 21 -97
22 -123 16 -345 l-7 -240 106 -185 c109 -191 185 -310 197 -310 11 0 46 121
63 218 44 259 22 571 -65 899 -114 429 -240 687 -395 805 -74 57 -193 112
-213 99z"/>
<path d="M3564 3303 c-114 -257 -140 -546 -89 -992 42 -371 97 -581 188 -715
31 -44 32 -43 47 67 18 140 13 274 -15 378 -41 151 -54 217 -64 333 -9 88 -16
118 -37 155 -102 176 -121 242 -109 381 7 75 73 353 100 416 24 58 6 37 -21
-23z"/>
<path d="M3623 3257 c-37 -53 -80 -168 -98 -255 -14 -70 -15 -97 -6 -184 14
-126 24 -171 45 -203 19 -29 25 -30 51 -11 17 12 20 34 26 197 10 249 14 477
8 483 -2 3 -14 -10 -26 -27z"/>
<path d="M6526 3072 c-18 -196 -39 -691 -39 -937 -1 -321 6 -367 85 -524 51
-103 164 -224 248 -267 103 -53 229 -33 311 49 83 83 111 134 145 261 56 215
11 560 -105 796 -73 150 -154 252 -321 406 -119 109 -252 229 -286 258 l-31
26 -7 -68z"/>
<path d="M4345 2999 c-16 -10 -39 -23 -51 -28 -44 -20 -162 -108 -214 -161
-160 -162 -272 -390 -316 -640 -28 -162 -6 -416 51 -585 96 -282 305 -420 530
-349 147 47 228 220 204 440 -17 163 -48 295 -99 429 -76 197 -123 434 -124
615 0 137 9 189 44 263 20 42 18 44 -25 16z"/>
<path d="M7336 1982 c-2 -4 -4 -47 -5 -97 -1 -81 -7 -165 -16 -220 -6 -39 -49
-152 -93 -245 -42 -88 -45 -100 -44 -171 2 -120 52 -258 131 -362 74 -99 206
-156 284 -123 72 30 95 137 62 291 -9 39 -20 126 -25 195 -35 466 -60 572
-154 664 -42 41 -130 84 -140 68z"/>
<path d="M3746 1650 c-4 -36 -17 -132 -28 -215 -11 -82 -22 -190 -25 -240 -4
-82 -2 -98 27 -185 18 -52 42 -115 55 -140 12 -25 39 -94 60 -155 57 -169 99
-246 178 -331 70 -75 128 -116 180 -128 39 -9 108 23 140 66 123 160 228 675
161 788 -42 72 -102 92 -214 70 -151 -29 -376 93 -457 247 -38 72 -54 127 -62
218 l-7 70 -8 -65z"/>
<path d="M6950 1280 c-20 -3 -41 -10 -48 -14 -30 -18 -5 -140 66 -321 37 -95
41 -101 86 -125 104 -56 189 -150 280 -307 55 -97 138 -286 177 -408 l34 -105
201 0 c111 0 236 3 278 7 l78 6 -7 126 c-20 395 -100 686 -252 913 -35 52
-142 172 -149 166 -1 -2 6 -61 17 -133 30 -205 7 -304 -83 -351 -33 -17 -166
-19 -223 -3 -98 28 -185 129 -229 268 -24 75 -44 167 -48 225 -2 22 -10 32
-33 41 -40 16 -102 23 -145 15z"/>
<path d="M4667 1008 c-82 -117 -80 -108 -83 -348 -1 -198 -18 -558 -29 -622
l-4 -28 299 0 c247 0 300 2 300 14 0 60 -165 517 -241 666 -4 8 -47 97 -95
198 -48 100 -91 182 -95 182 -4 0 -27 -28 -52 -62z"/>
<path d="M6946 762 c-39 -235 -32 -546 15 -697 l20 -66 255 4 c139 2 257 6
260 9 6 6 -43 157 -96 295 -58 152 -173 294 -334 415 -114 85 -113 85 -120 40z"/>
<path d="M4530 753 c-1 -28 -31 -198 -44 -246 -20 -72 -67 -166 -106 -211 -38
-42 -122 -86 -167 -86 -64 0 -117 31 -256 153 -80 70 -83 68 -74 -72 5 -88 40
-230 65 -269 7 -10 72 -13 288 -13 l279 0 6 98 c11 170 22 653 16 653 -4 0 -7
-3 -7 -7z"/>
</g>
</svg>
