<?xml version="1.0" standalone="no"?>
<!DOCTYPE svg PUBLIC "-//W3C//DTD SVG 20010904//EN"
 "http://www.w3.org/TR/2001/REC-SVG-20010904/DTD/svg10.dtd">
<svg version="1.0" xmlns="http://www.w3.org/2000/svg"
 width="250.000000pt" height="250.000000pt" viewBox="0 0 250.000000 250.000000"
 preserveAspectRatio="xMidYMid meet">
<metadata>
Created by potrace 1.16, written by Peter Selinger 2001-2019
</metadata>
<g transform="translate(0.000000,250.000000) scale(0.052854,-0.049310)"
fill="#000000" stroke="none">
<path d="M2326 5039 c-56 -9 -161 -58 -206 -96 -17 -14 -40 -43 -50 -64 -23
-44 -43 -171 -35 -211 5 -22 3 -27 -17 -30 -21 -3 -23 -7 -20 -63 4 -84 18
-131 48 -154 20 -16 28 -36 40 -107 8 -48 24 -100 34 -114 33 -46 149 -149
176 -156 14 -4 61 -4 105 -2 94 6 136 30 207 118 58 74 79 122 87 202 6 55 12
71 36 94 36 34 52 91 43 150 -7 49 -18 61 -38 45 -12 -10 -15 3 -18 71 -6 135
-65 221 -191 282 -81 39 -129 47 -201 35z"/>
<path d="M2704 4196 c4 -20 16 -65 27 -99 11 -34 24 -106 29 -160 4 -54 14
-104 20 -112 6 -8 32 -17 57 -21 61 -9 255 11 293 31 60 31 85 137 44 192 -35
47 -120 90 -288 144 -89 29 -167 54 -175 57 -11 4 -12 -2 -7 -32z"/>
<path d="M2006 4194 c-141 -34 -297 -142 -354 -244 l-24 -42 40 7 c48 8 74 -4
118 -51 18 -19 42 -34 54 -34 16 0 26 -10 38 -41 14 -37 18 -40 41 -32 14 4
45 7 69 7 l42 0 0 66 c0 43 7 80 21 109 31 69 40 128 33 203 -4 37 -9 68 -13
67 -3 0 -33 -7 -65 -15z"/>
<path d="M2599 4083 c-40 -49 -97 -114 -128 -145 -30 -32 -53 -59 -50 -60 2
-2 17 -10 34 -18 20 -11 31 -26 36 -48 13 -66 51 -80 162 -62 105 18 120 25
107 50 -6 11 -17 73 -24 137 -12 97 -47 233 -61 233 -1 0 -36 -39 -76 -87z"/>
<path d="M2136 4098 c-3 -13 -6 -46 -6 -74 0 -38 -8 -66 -30 -107 -35 -67 -41
-131 -12 -146 10 -6 65 -15 122 -21 57 -5 109 -15 116 -20 17 -15 22 4 17 63
-3 26 0 62 6 79 10 30 8 34 -56 107 -75 85 -132 141 -143 141 -4 0 -10 -10
-14 -22z"/>
<path d="M3233 3916 c-17 -8 -34 -23 -37 -34 -7 -20 33 -131 56 -159 14 -17
28 -16 28 1 0 30 50 56 107 56 124 0 208 -94 243 -272 6 -32 14 -58 17 -58 7
0 -5 112 -19 175 -15 72 -56 153 -100 201 -69 75 -222 122 -295 90z"/>
<path d="M1504 3886 c-177 -65 -268 -172 -295 -345 -11 -74 -6 -150 14 -186
14 -26 126 -158 143 -168 15 -9 63 13 84 38 11 13 10 28 -4 91 -28 127 -18
254 27 340 22 42 69 82 160 135 42 24 77 46 77 49 0 7 -123 71 -135 70 -5 -1
-38 -11 -71 -24z"/>
<path d="M1684 3802 c-21 -16 -73 -65 -115 -109 -100 -105 -114 -140 -106
-271 3 -53 11 -114 17 -134 l11 -38 88 0 c79 0 91 3 133 29 25 16 48 33 51 38
3 5 13 52 21 105 9 53 29 129 45 169 16 41 33 91 36 112 20 106 -89 166 -181
99z"/>
<path d="M2995 3791 c-47 -12 -75 -30 -75 -50 0 -10 23 -56 50 -102 61 -101
190 -355 190 -374 0 -13 67 -45 96 -45 8 0 42 -12 76 -26 50 -21 70 -25 103
-19 22 5 63 9 92 10 28 0 58 7 66 14 8 6 20 41 26 76 18 102 -9 269 -59 367
-18 33 -70 87 -102 104 -32 17 -111 18 -140 3 -18 -10 -19 -17 -13 -90 8 -89
-3 -319 -15 -319 -4 0 -9 62 -12 138 -4 155 -13 181 -100 275 -43 45 -46 47
-99 46 -30 -1 -67 -4 -84 -8z"/>
<path d="M2785 3754 c-16 -2 -54 -9 -84 -15 -29 -6 -86 -12 -125 -12 -60 -2
-79 -7 -113 -29 -38 -25 -41 -30 -46 -85 -4 -35 -1 -83 7 -121 12 -54 12 -78
-1 -165 -19 -131 -13 -269 13 -304 24 -32 259 -128 336 -138 94 -12 121 2 241
121 104 103 126 136 113 170 -5 13 -16 10 -70 -20 -83 -47 -111 -47 -126 -2
-18 54 -1 81 63 100 62 18 107 50 107 75 0 19 -40 123 -70 182 -10 19 -44 69
-74 109 -31 40 -56 83 -56 95 0 41 -23 49 -115 39z"/>
<path d="M1913 3735 c-34 -24 -61 -155 -33 -155 28 0 83 33 117 70 48 54 48
55 24 79 -25 25 -77 28 -108 6z"/>
<path d="M2167 3718 c-67 -9 -114 -34 -150 -81 -27 -36 -53 -51 -114 -67 -73
-18 -82 -32 -99 -154 -8 -60 -13 -115 -10 -123 3 -8 19 -19 36 -24 31 -11 42
-38 80 -185 20 -80 86 -129 205 -154 126 -26 206 5 252 98 l28 57 -3 270 c-4
296 -6 308 -64 343 -42 25 -88 31 -161 20z"/>
<path d="M3651 3335 c-23 -80 -25 -149 -6 -206 10 -29 21 -99 25 -155 7 -113
18 -139 74 -173 40 -25 91 -98 108 -154 43 -142 31 268 -12 437 -26 104 -53
154 -119 227 l-59 64 -11 -40z"/>
<path d="M1129 3308 c-56 -58 -98 -121 -121 -181 -22 -59 -39 -347 -20 -347
22 0 71 52 96 102 20 39 26 67 26 116 0 119 30 179 114 227 17 10 17 14 -10
67 -16 31 -32 57 -37 57 -4 1 -26 -18 -48 -41z"/>
<path d="M1727 3262 c-27 -30 13 -100 97 -166 39 -31 71 -54 72 -53 2 1 -9 44
-23 94 -23 82 -29 95 -62 117 -44 31 -62 32 -84 8z"/>
<path d="M1629 3227 c-37 -10 -37 -11 -69 -121 -17 -61 -43 -136 -57 -168 -14
-31 -23 -64 -21 -73 4 -25 51 -57 83 -57 36 0 99 62 131 129 43 91 45 242 3
284 -21 21 -19 21 -70 6z"/>
<path d="M1214 3195 c-46 -24 -64 -64 -75 -171 -6 -53 -16 -115 -24 -137 l-14
-40 43 46 c47 52 55 54 91 31 32 -21 50 -8 67 48 7 25 16 37 24 34 16 -6 34
52 33 109 0 32 -6 45 -29 63 -38 30 -78 36 -116 17z"/>
<path d="M1422 3185 c-23 -19 -34 -42 -51 -110 -16 -64 -19 -91 -11 -105 26
-49 82 -3 132 108 34 77 34 83 5 110 -30 28 -39 28 -75 -3z"/>
<path d="M3226 3156 c-4 -20 -2 -54 4 -76 9 -35 15 -41 53 -50 87 -22 120 -35
127 -50 38 -85 46 -95 75 -100 26 -4 31 -10 35 -45 4 -33 10 -41 35 -50 17 -5
37 -19 47 -30 13 -17 29 -20 92 -21 42 -1 76 0 76 2 0 2 -20 22 -44 45 -55 50
-72 94 -86 224 -6 56 -18 110 -26 124 -15 22 -20 23 -86 18 -53 -5 -87 -1
-146 15 -42 11 -93 23 -113 25 -35 5 -37 3 -43 -31z"/>
<path d="M1536 3141 c-8 -22 -32 -74 -51 -114 -42 -88 -66 -104 -127 -85 -36
11 -42 10 -54 -7 -8 -10 -14 -30 -14 -43 0 -21 -3 -23 -22 -17 -62 19 -64 18
-97 -26 -32 -44 -36 -69 -13 -77 7 -2 19 12 27 32 16 39 28 42 84 26 46 -13
87 6 83 38 -3 19 1 22 36 22 49 0 80 31 120 120 29 65 57 159 49 167 -3 2 -12
-14 -21 -36z"/>
<path d="M3120 3053 c-7 -31 -9 -77 -6 -102 8 -55 60 -172 91 -201 21 -19 24
-20 59 -5 21 9 47 15 59 13 28 -4 32 16 17 86 -16 77 -39 102 -106 117 -49 11
-58 17 -70 46 -8 18 -14 48 -14 68 0 54 -17 42 -30 -22z"/>
<path d="M3187 3100 c-11 -30 -14 -86 -5 -102 6 -12 20 -18 43 -18 49 0 84
-16 94 -43 15 -39 78 -87 114 -87 18 0 39 5 47 10 11 7 8 10 -16 10 -37 0 -68
30 -86 85 -13 39 -15 40 -78 53 -74 14 -89 26 -100 73 -4 22 -9 29 -13 19z"/>
<path d="M1770 2993 c0 -20 10 -36 36 -56 43 -35 53 -59 68 -167 l11 -85 48
-9 c32 -7 55 -6 73 2 l26 12 -26 31 c-38 45 -53 102 -37 145 16 44 8 68 -32
92 -27 17 -146 62 -162 62 -3 0 -5 -12 -5 -27z"/>
<path d="M3035 2976 c-24 -29 -61 -59 -96 -77 -32 -16 -60 -32 -63 -37 -6 -11
61 -112 75 -112 5 0 21 7 34 16 35 23 33 5 -10 -80 -19 -37 -35 -79 -35 -92 0
-12 -4 -34 -10 -48 -5 -14 -7 -26 -5 -26 3 0 38 16 78 36 81 41 147 92 166
127 12 22 10 29 -14 66 -17 25 -35 74 -46 128 -10 49 -22 101 -27 117 l-8 29
-39 -47z"/>
<path d="M2376 2971 c-28 -31 -129 -63 -219 -70 -96 -7 -126 -23 -152 -77 -24
-50 -12 -68 49 -72 43 -3 46 -5 46 -31 0 -18 8 -34 23 -44 22 -16 22 -16 -14
-16 -45 -1 -55 -20 -33 -62 22 -44 40 -46 90 -10 41 28 51 31 112 29 37 -2 84
1 105 6 l38 8 -20 -33 c-24 -40 -20 -49 25 -49 48 0 77 -30 64 -66 -18 -46
-23 -48 -34 -14 -6 18 -18 36 -26 41 -8 4 -47 26 -86 48 -85 50 -130 54 -140
14 -4 -14 -2 -33 3 -42 9 -14 68 -53 98 -64 6 -3 7 -8 3 -12 -4 -4 -33 9 -64
29 -31 21 -58 35 -61 32 -16 -15 14 -60 67 -102 67 -52 73 -72 10 -30 -47 31
-60 33 -60 7 0 -41 19 -69 54 -81 41 -13 47 -27 14 -32 -18 -2 -23 -10 -23
-32 0 -68 148 -96 236 -44 89 53 120 104 120 197 -1 31 -1 64 0 73 1 51 -79
158 -119 158 -6 0 -13 4 -16 9 -3 4 8 7 24 5 40 -5 40 20 0 36 -22 9 -54 11
-113 5 -45 -4 -115 -10 -154 -14 -40 -4 -73 -3 -73 1 0 5 17 8 38 8 63 1 126
20 155 48 52 50 77 105 77 170 0 91 -11 109 -44 73z"/>
<path d="M2443 2944 c-9 -24 16 -148 40 -196 l22 -43 152 -5 c84 -3 157 -10
163 -16 6 -6 -35 -8 -124 -6 -172 5 -179 2 -127 -68 22 -29 43 -66 46 -81 10
-46 26 -52 123 -47 141 6 184 45 184 168 1 79 -26 147 -70 176 -30 20 -122 25
-182 10 l-35 -8 23 25 23 24 -103 42 c-115 46 -126 48 -135 25z"/>
<path d="M1362 2836 l-41 -33 73 -50 73 -50 11 29 c5 15 22 32 36 38 25 9 36
30 17 30 -5 0 -30 16 -55 35 -26 19 -52 35 -60 35 -8 0 -32 -15 -54 -34z"/>
<path d="M1217 2786 c-23 -24 -62 -29 -93 -13 -55 27 -164 -21 -164 -72 0 -27
50 -96 95 -130 70 -54 144 -70 348 -77 100 -3 195 -2 211 3 l28 9 -83 85 c-73
74 -100 92 -206 147 -107 55 -123 61 -136 48z"/>
<path d="M3385 2729 c-33 -16 -66 -29 -72 -29 -26 0 -12 -15 15 -16 57 -2 80
-13 90 -44 14 -38 31 -38 98 1 60 34 68 33 113 -25 38 -47 40 -96 11 -211 -23
-91 -22 -85 -11 -85 21 0 41 55 51 136 11 101 19 113 102 153 l58 28 -48 26
c-48 26 -293 98 -328 96 -11 0 -46 -14 -79 -30z"/>
<path d="M3195 2649 c-85 -89 -212 -151 -337 -165 -108 -13 -58 -24 105 -24
103 0 187 5 232 14 39 8 101 19 139 25 102 14 108 31 11 31 -88 1 -87 8 10 42
l50 17 -65 -6 -65 -6 39 32 c21 17 34 31 28 31 -6 0 -27 -13 -45 -30 -96 -84
-136 -67 -82 34 13 25 23 46 22 46 -2 0 -21 -19 -42 -41z"/>
<path d="M1830 2642 c-14 -11 -38 -43 -54 -71 -24 -45 -26 -56 -17 -83 6 -17
14 -63 17 -102 10 -114 24 -127 174 -152 l85 -14 -81 5 c-100 5 -158 27 -172
63 -6 15 -16 65 -21 111 -6 46 -13 86 -16 89 -2 2 -75 -3 -162 -13 -283 -31
-473 5 -587 113 l-38 37 6 -40 c17 -96 83 -195 161 -240 49 -29 160 -68 237
-84 161 -33 698 -65 698 -41 0 6 13 10 28 10 36 0 72 33 72 65 0 30 -23 33
-42 7 -7 -10 -20 -22 -28 -27 -8 -5 4 13 28 39 23 27 42 57 42 66 0 22 -22 31
-41 19 -31 -19 -28 -7 6 22 25 22 35 39 35 60 0 44 -24 46 -85 6 -29 -20 -66
-39 -82 -42 -21 -5 -16 1 23 24 69 42 91 67 78 89 -22 34 -80 27 -154 -18 -38
-23 -74 -40 -81 -38 -6 2 32 28 85 57 53 29 98 57 101 61 12 19 -32 34 -108
38 -71 4 -85 1 -107 -16z"/>
<path d="M3501 2591 c-30 -12 -47 -27 -56 -47 -20 -49 -100 -79 -248 -93 -138
-13 -503 -18 -549 -7 -35 8 -38 7 -38 -15 0 -12 5 -37 11 -54 19 -52 5 -78
-71 -136 -39 -30 -66 -55 -62 -57 5 -1 64 11 133 29 98 24 159 33 294 40 463
25 541 36 646 89 32 17 41 28 54 72 22 74 20 139 -6 172 -24 30 -45 31 -108 7z"/>
<path d="M3756 2567 c-63 -67 -84 -147 -48 -180 25 -23 84 -21 113 2 22 17 24
26 21 86 -2 69 -17 115 -40 123 -7 2 -28 -12 -46 -31z"/>
<path d="M3788 2325 c-3 -3 -63 -17 -134 -31 -128 -25 -346 -43 -518 -44 -109
0 -108 -9 2 -15 44 -2 100 -9 124 -16 24 -7 101 -13 173 -13 l131 -1 117 57
c64 32 117 60 117 63 0 6 -5 7 -12 0z"/>
<path d="M2965 2191 c-28 -10 -82 -32 -120 -49 -174 -76 -495 -114 -657 -78
-80 18 -133 43 -188 87 -19 16 -40 29 -47 29 -26 0 -12 -27 43 -80 71 -70 208
-250 320 -421 107 -164 129 -189 166 -189 36 0 97 38 137 87 18 21 61 97 96
169 71 145 95 178 244 338 55 61 101 114 101 118 0 13 -41 8 -95 -11z"/>
<path d="M2605 2159 c-16 -5 -79 -8 -140 -7 -122 2 -305 -11 -305 -22 0 -4 28
-21 63 -39 59 -30 69 -32 160 -30 157 3 250 29 276 78 17 31 1 37 -54 20z"/>
<path d="M2988 2091 l-47 -58 19 -40 c10 -22 24 -70 31 -106 8 -44 17 -67 26
-67 61 0 195 -122 291 -263 37 -54 68 -94 69 -90 7 19 -58 247 -91 325 -48
111 -120 228 -184 299 -30 32 -57 59 -60 58 -4 0 -28 -26 -54 -58z"/>
<path d="M1847 2058 c-76 -102 -128 -185 -148 -238 -18 -47 -69 -325 -69 -374
0 -28 1 -29 46 -22 63 8 109 39 140 92 37 63 54 57 64 -26 l6 -45 34 48 c27
38 36 44 40 31 13 -35 24 10 28 107 4 82 1 102 -18 147 -31 72 -24 117 30 188
23 31 38 59 34 63 -35 29 -111 89 -121 94 -7 4 -33 -22 -66 -65z"/>
<path d="M2076 1909 c-3 -30 -8 -101 -10 -159 -7 -137 -24 -197 -69 -252 -20
-25 -37 -50 -37 -56 0 -6 -25 -19 -56 -28 -51 -15 -57 -15 -74 1 -17 15 -23
15 -89 -5 -43 -13 -82 -19 -97 -16 -31 8 -33 12 60 -114 69 -93 70 -96 103
-230 18 -74 33 -160 33 -191 0 -90 53 -269 79 -269 20 0 101 503 102 638 1 97
15 159 41 176 13 8 21 7 32 -4 13 -13 13 -25 0 -103 -17 -99 -15 -141 5 -92
21 53 52 109 77 138 31 37 85 206 91 288 5 53 2 73 -16 107 -17 33 -118 169
-161 216 -5 4 -11 -16 -14 -45z"/>
<path d="M2827 1883 c-13 -21 -48 -80 -77 -132 -29 -51 -75 -122 -101 -158
-27 -35 -49 -66 -49 -67 0 -2 24 -7 53 -10 l52 -7 44 -107 c49 -118 61 -138
61 -101 0 13 5 41 11 62 14 52 42 64 115 48 30 -7 58 -10 61 -7 3 3 -8 23 -25
44 -62 78 -68 144 -22 237 35 69 38 117 10 163 -20 32 -74 72 -97 72 -7 0 -23
-17 -36 -37z"/>
<path d="M3015 1769 c-3 -13 -16 -76 -29 -139 l-23 -115 28 -14 c37 -19 59
-76 59 -153 l0 -61 -30 41 c-40 56 -92 72 -147 46 -54 -27 -53 -49 7 -118 46
-52 50 -61 50 -107 0 -104 40 -322 81 -439 22 -63 49 -152 60 -196 11 -45 26
-90 33 -100 13 -17 16 -16 70 7 l57 24 54 110 c60 122 117 315 135 457 27 203
-47 440 -186 595 l-43 48 44 -135 c24 -74 47 -153 51 -175 l7 -40 -26 30 -27
30 -18 -21 c-18 -21 -18 -20 -30 71 -19 151 -76 288 -147 355 l-24 23 -6 -24z"/>
<path d="M2297 1659 c-2 -7 -12 -57 -22 -109 -21 -115 -56 -214 -85 -244 -11
-13 -30 -46 -40 -74 l-20 -51 57 -93 c81 -134 198 -378 236 -492 32 -98 32
-98 39 -60 13 75 8 209 -14 328 -21 119 -21 123 -4 291 22 229 22 229 -23 321
-50 101 -119 203 -124 183z"/>
<path d="M2551 1481 c-19 -19 -26 -46 -56 -211 -41 -228 -43 -288 -16 -446 24
-138 40 -199 50 -188 4 5 36 74 71 154 36 80 95 205 131 279 l67 135 -40 95
c-22 53 -51 120 -63 149 l-24 52 -50 0 c-37 0 -56 -5 -70 -19z"/>
<path d="M1597 1363 c-3 -5 -10 -34 -16 -65 -31 -170 -22 -374 25 -536 44
-154 164 -371 206 -372 10 0 25 18 38 45 14 30 30 47 46 51 35 9 31 33 -31
152 -58 113 -74 180 -75 307 0 115 -38 216 -133 353 -52 75 -53 77 -60 65z"/>
<path d="M2806 1169 c-31 -50 -150 -318 -183 -418 l-35 -105 5 -150 c3 -89 10
-167 18 -191 29 -83 136 -158 201 -142 15 4 35 27 56 64 18 32 48 77 67 100
44 56 76 143 83 226 4 64 3 71 -37 147 -51 98 -71 173 -71 268 0 100 -15 153
-55 192 l-33 32 -16 -23z"/>
<path d="M2086 1133 c-3 -10 -23 -76 -45 -148 -124 -399 -122 -537 8 -677 119
-129 255 -147 331 -44 26 35 49 99 49 138 2 118 -275 748 -329 748 -5 0 -11
-8 -14 -17z"/>
<path d="M1898 459 c-10 -5 -18 -15 -18 -22 0 -7 -14 -29 -31 -50 l-31 -38 35
-122 c20 -67 39 -141 42 -164 l7 -43 243 0 243 0 7 68 c6 60 14 110 31 182 4
20 -3 15 -46 -28 -58 -59 -79 -67 -156 -59 -123 13 -219 101 -275 255 -12 34
-23 38 -51 21z"/>
<path d="M2975 330 c-41 -56 -87 -121 -101 -146 -25 -43 -27 -44 -77 -44 -67
1 -125 27 -165 76 l-32 39 24 -72 c14 -40 28 -93 32 -118 l6 -45 234 0 c129 0
234 2 234 4 0 16 36 189 56 268 13 53 24 99 24 102 0 3 -12 1 -26 -4 -41 -16
-71 -12 -103 16 l-30 25 -76 -101z"/>
</g>
</svg>
