<?xml version="1.0" standalone="no"?>
<!DOCTYPE svg PUBLIC "-//W3C//DTD SVG 20010904//EN"
 "http://www.w3.org/TR/2001/REC-SVG-20010904/DTD/svg10.dtd">
<svg version="1.0" xmlns="http://www.w3.org/2000/svg"
 width="250.000000pt" height="250.000000pt" viewBox="0 0 250.000000 250.000000"
 preserveAspectRatio="xMidYMid meet">
<metadata>
Created by potrace 1.16, written by Peter Selinger 2001-2019
</metadata>
<g transform="translate(0.000000,250.000000) scale(0.053879,-0.050607)"
fill="#000000" stroke="none">
<path d="M2340 4851 c-108 -33 -165 -109 -177 -237 -5 -54 -4 -64 10 -64 22 0
54 -45 123 -173 33 -60 83 -141 112 -180 l53 -72 -50 52 c-83 89 -117 135
-146 203 -34 78 -70 130 -91 130 -12 0 -13 -8 -9 -34 4 -19 8 -108 8 -198 l2
-163 -37 -45 c-42 -52 -172 -260 -213 -339 -26 -53 -58 -192 -49 -215 2 -6 28
-20 57 -31 38 -15 56 -28 66 -50 32 -70 80 -95 102 -53 11 20 8 95 -6 158 -5
20 5 37 49 87 59 68 85 125 67 147 -8 10 -5 16 15 25 18 8 24 16 20 28 -9 22
11 33 61 33 23 0 67 9 96 20 58 22 95 62 118 128 11 32 10 36 -27 73 -21 21
-35 42 -31 45 3 4 -6 30 -21 58 -30 57 -52 106 -49 106 1 0 22 -26 45 -58 48
-66 89 -100 129 -108 39 -7 114 33 132 71 8 17 18 38 23 47 4 10 8 29 8 43 0
20 5 25 24 25 37 0 40 28 9 87 -18 36 -23 57 -16 61 19 13 23 49 13 121 -15
105 -51 176 -109 212 -88 57 -231 84 -311 60z"/>
<path d="M3169 4660 c-58 -10 -85 -24 -105 -55 -20 -30 -35 -136 -22 -152 14
-17 106 -46 124 -39 25 10 -2 36 -37 36 -31 0 -37 11 -15 29 11 9 20 6 44 -14
16 -14 34 -25 39 -25 6 0 28 13 50 29 48 35 81 32 123 -10 34 -35 40 -36 40
-8 0 11 9 32 20 46 25 32 26 84 3 111 -48 56 -137 73 -264 52z"/>
<path d="M3460 4486 c0 -34 12 -56 64 -120 23 -28 55 -80 71 -116 l30 -65 -1
-202 c-1 -112 3 -203 8 -203 4 0 8 3 8 6 0 4 7 54 16 113 27 178 7 264 -108
470 -81 146 -88 155 -88 117z"/>
<path d="M3321 4423 c5 -21 9 -66 9 -99 0 -54 -3 -64 -24 -77 -23 -16 -32 -39
-56 -159 -9 -48 -4 -52 31 -27 34 24 47 46 65 109 l14 45 -3 -64 c-2 -36 -8
-66 -13 -68 -6 -2 -30 -21 -53 -43 -47 -44 -61 -44 -61 1 0 62 -56 51 -139
-29 -49 -47 -61 -64 -61 -89 0 -17 6 -34 13 -37 9 -5 9 -7 0 -12 -28 -13 -65
-48 -93 -89 l-30 -44 63 -35 c154 -86 242 -86 301 0 38 57 35 104 -10 154 -41
45 -82 57 -140 41 -21 -6 -39 -9 -41 -7 -2 2 14 15 36 29 23 16 43 23 46 17
10 -17 44 -11 57 10 17 27 28 25 28 -5 0 -38 26 -31 51 15 28 50 42 42 34 -20
l-7 -49 51 -25 c75 -39 87 -36 117 32 41 92 42 125 5 167 -17 20 -31 45 -31
56 0 27 -85 113 -105 105 -8 -3 -15 0 -15 5 0 7 11 9 25 7 l25 -5 -21 34 c-19
30 -21 44 -16 99 6 57 4 65 -16 79 -36 25 -46 20 -36 -22z"/>
<path d="M2116 4373 c-3 -10 -17 -30 -30 -45 -22 -23 -35 -27 -113 -33 -120
-10 -157 -26 -177 -76 -24 -59 -21 -118 9 -162 30 -44 24 -47 -19 -9 -21 19
-30 34 -28 50 14 95 -112 141 -226 83 -68 -35 -102 -88 -102 -159 l1 -37 19
23 c23 27 33 24 50 -18 17 -41 36 -38 84 14 37 41 131 95 143 83 2 -3 -15 -14
-39 -25 -48 -22 -177 -146 -195 -189 -7 -15 -12 -48 -13 -73 0 -55 26 -217 46
-286 17 -60 96 -190 112 -186 7 1 28 -15 47 -37 44 -48 111 -95 124 -86 22 13
10 32 -26 44 -38 11 -66 31 -92 64 -8 10 10 2 39 -18 57 -38 95 -43 95 -11 0
13 -12 22 -40 31 -80 23 -84 33 -12 28 l67 -6 0 40 c0 32 -11 57 -54 120 -81
122 -96 170 -96 313 0 114 1 120 27 150 l26 32 14 -27 c14 -25 16 -26 36 -10
12 8 43 25 70 37 26 11 47 24 47 29 0 4 -11 21 -25 38 -24 28 -25 31 -8 39 41
21 70 21 108 1 35 -19 37 -19 30 -2 -4 10 -9 36 -12 59 -5 38 -2 43 46 89 46
44 92 127 78 141 -3 3 -8 -3 -11 -13z"/>
<path d="M3416 4378 c4 -7 21 -33 39 -58 43 -60 48 -70 37 -70 -5 0 -20 16
-33 35 -13 19 -28 35 -33 35 -19 0 7 -97 38 -145 19 -27 46 -71 60 -98 15 -26
31 -45 35 -43 15 10 21 96 10 149 -18 82 -51 137 -113 185 -32 24 -51 29 -40
10z"/>
<path d="M2131 4338 c-7 -24 -26 -70 -41 -103 -38 -81 -43 -101 -30 -125 16
-30 70 -24 87 10 14 28 18 260 5 260 -5 0 -14 -19 -21 -42z"/>
<path d="M2689 4140 c-54 -9 -128 -45 -136 -66 -3 -8 1 -28 8 -45 12 -30 11
-32 -29 -66 -49 -40 -53 -65 -14 -98 27 -24 27 -24 9 -56 -21 -37 -15 -47 48
-88 37 -24 49 -26 145 -26 128 0 168 16 217 88 42 62 57 115 56 200 0 57 -4
72 -23 92 -47 50 -185 82 -281 65z"/>
<path d="M3033 4118 c-39 -27 -46 -43 -33 -68 6 -10 10 -38 10 -61 l0 -42 35
46 c38 50 90 86 139 97 l31 6 -35 22 c-46 29 -106 29 -147 0z"/>
<path d="M2036 4013 c-13 -27 -18 -28 -85 -28 -66 0 -72 -2 -104 -33 -28 -27
-44 -34 -78 -35 -24 -1 -47 -6 -51 -12 -13 -17 -9 -150 7 -225 17 -81 42 -134
86 -185 35 -39 51 -38 43 3 -15 74 69 325 136 406 44 53 54 69 70 110 13 35
-5 34 -24 -1z"/>
<path d="M1341 4003 c-76 -40 -135 -109 -162 -191 -12 -37 -36 -96 -54 -132
-64 -125 -55 -157 38 -147 63 8 215 58 262 87 37 23 45 38 45 81 0 26 -3 29
-25 23 -32 -8 -33 11 -4 68 41 80 50 119 38 155 -9 27 -16 33 -40 33 -24 0
-29 4 -29 25 0 31 -4 31 -69 -2z"/>
<path d="M2450 3870 c-8 -4 -46 -16 -84 -26 -43 -11 -81 -27 -100 -44 -27 -25
-31 -35 -34 -98 -5 -87 20 -151 70 -182 46 -28 51 -26 46 20 -4 43 2 49 22 25
14 -17 30 -11 30 11 0 9 23 38 51 65 39 37 58 49 82 49 l32 1 -28 24 c-34 30
-47 63 -47 121 0 45 -9 52 -40 34z"/>
<path d="M3580 3864 c-19 -7 -44 -13 -54 -13 -11 -1 -48 -17 -82 -36 -51 -29
-68 -34 -83 -25 -29 15 -31 13 -31 -26 0 -36 -15 -73 -34 -86 -6 -4 9 -8 34
-8 38 0 60 9 125 50 44 28 86 50 95 50 25 1 51 26 44 44 -4 10 1 25 11 36 24
26 18 29 -25 14z"/>
<path d="M2882 3708 c-19 -12 -48 -24 -65 -27 -18 -4 -32 -13 -32 -21 0 -33
156 -93 274 -105 91 -11 267 35 279 72 3 10 -26 12 -125 10 -124 -2 -130 -1
-183 27 -30 16 -67 37 -82 47 -31 22 -25 23 -66 -3z"/>
<path d="M2536 3650 c-27 -9 -136 -105 -136 -121 0 -15 116 -31 175 -25 104
11 218 79 201 121 -11 30 -168 46 -240 25z"/>
<path d="M2765 3553 c-74 -50 -172 -77 -253 -70 -37 2 -73 6 -81 8 -10 3 -18
-9 -24 -34 l-9 -37 -34 30 c-19 16 -41 30 -48 30 -16 0 -36 -49 -37 -89 0 -14
-8 6 -18 44 -20 83 -38 114 -68 121 -43 11 -53 -1 -53 -64 0 -95 -35 -171 -78
-172 -17 0 -32 15 -64 65 -26 43 -49 67 -65 71 -13 4 -26 4 -29 1 -10 -9 -24
-80 -24 -120 0 -42 34 -165 53 -191 15 -21 91 -33 248 -41 l127 -6 108 41 c60
22 133 57 163 78 63 43 141 133 178 205 25 50 66 159 61 162 -2 1 -25 -14 -53
-32z"/>
<path d="M1047 3556 c-4 -10 -7 -71 -7 -135 0 -204 46 -325 179 -474 45 -50
61 -76 61 -97 0 -16 5 -32 10 -35 15 -10 12 20 -10 83 -14 42 -16 52 -4 37 8
-11 17 -31 20 -45 3 -14 7 -31 10 -38 4 -14 32 -27 40 -19 3 3 -4 44 -16 92
-12 48 -20 89 -17 91 3 3 17 -36 32 -86 16 -49 32 -90 38 -90 5 0 7 10 4 23
-3 12 -8 49 -11 82 l-6 60 14 -46 c7 -25 18 -54 24 -65 17 -29 15 2 -4 67 -21
68 -21 146 0 225 20 78 20 123 0 152 -30 43 -54 23 -54 -44 0 -40 -17 -77 -31
-69 -14 9 -11 47 11 116 l19 63 -39 38 c-22 20 -40 44 -40 52 0 19 -40 27
-103 20 -60 -7 -94 5 -106 38 -7 19 -8 19 -14 4z"/>
<path d="M1435 3555 c-5 -2 -35 -10 -65 -19 -60 -17 -95 -51 -64 -63 9 -3 27
-17 40 -29 13 -13 35 -24 50 -24 30 0 105 19 118 31 5 4 3 30 -4 58 -11 46
-15 51 -38 50 -15 0 -31 -2 -37 -4z"/>
<path d="M1853 3350 c-7 -30 -16 -84 -22 -120 -7 -43 -17 -70 -30 -81 -19 -16
-18 -20 53 -200 41 -104 78 -183 84 -181 17 3 15 -6 -8 -39 -62 -86 -95 -230
-80 -340 23 -162 62 -258 138 -339 l51 -55 1 67 0 66 -56 48 c-31 27 -66 69
-80 96 -26 51 -33 92 -8 46 8 -16 17 -28 20 -28 3 0 3 4 0 8 -13 21 -26 180
-20 230 l8 57 7 -45 c4 -25 8 -71 8 -102 1 -32 7 -77 15 -100 8 -24 18 -60 21
-80 5 -28 17 -43 47 -64 21 -15 53 -45 69 -66 37 -46 66 -49 110 -10 29 26 32
34 32 83 -1 50 2 57 48 107 63 69 64 96 8 157 -52 56 -29 59 27 4 23 -23 46
-39 52 -35 15 9 23 110 11 144 -9 26 -5 43 27 124 53 129 48 170 -11 105 -19
-20 -41 -37 -49 -37 -8 0 -38 -20 -67 -45 -30 -25 -70 -50 -90 -56 -27 -9 -35
-16 -32 -29 3 -10 0 -21 -6 -24 -19 -12 -12 -24 19 -31 16 -4 39 -20 51 -36
l20 -29 -25 0 c-20 0 -25 4 -23 22 2 18 -7 24 -63 41 -80 23 -104 42 -42 33
l43 -6 -6 34 -7 34 57 17 c42 12 67 27 95 57 28 31 45 41 70 42 47 1 62 29 32
58 -20 20 -33 23 -105 23 -67 0 -91 -5 -132 -25 -68 -33 -127 -95 -170 -177
-19 -37 -33 -57 -29 -43 10 39 50 114 78 148 38 44 113 89 181 107 69 18 143
13 220 -16 63 -24 69 -23 25 1 l-35 20 55 -6 c78 -9 110 -30 145 -97 17 -31
33 -57 36 -57 16 0 21 59 25 280 l5 235 -19 -35 c-11 -19 -23 -68 -27 -108 -9
-96 -23 -106 -218 -157 -39 -11 -66 -23 -64 -29 3 -7 -25 -11 -87 -11 -80 0
-97 -4 -144 -28 -29 -15 -70 -43 -91 -62 l-38 -35 -7 77 c-3 42 -6 101 -6 132
-1 65 -8 99 -45 196 -15 39 -30 103 -34 145 l-7 75 -11 -55z"/>
<path d="M2492 3143 c-76 -35 -234 -66 -302 -59 -123 14 -218 18 -223 9 -5 -8
12 -173 18 -181 2 -2 22 8 45 23 65 41 303 80 412 68 67 -8 94 2 123 44 35 52
33 124 -4 122 -9 0 -40 -12 -69 -26z"/>
<path d="M2260 2983 c-72 -11 -186 -36 -208 -46 -13 -6 -35 -33 -48 -59 -23
-45 -20 -65 5 -34 27 32 151 78 234 86 77 7 171 32 190 50 9 8 -125 10 -173 3z"/>
<path d="M1400 2846 c-12 -14 -37 -28 -54 -31 -58 -12 -64 -16 -75 -47 -16
-45 -13 -79 9 -115 24 -40 45 -42 58 -5 7 17 11 21 11 10 1 -20 31 -25 31 -5
1 7 6 5 14 -5 18 -25 61 -28 60 -5 -1 9 2 17 7 17 5 0 9 -4 9 -9 0 -5 9 -11
20 -14 11 -3 20 -1 20 5 0 6 7 8 15 4 40 -15 60 28 32 69 -40 59 -49 75 -38
75 6 0 15 -10 20 -23 5 -13 16 -29 25 -36 13 -11 17 -9 27 12 20 45 4 76 -54
103 -67 31 -107 31 -137 0z"/>
<path d="M2429 2737 c-6 -39 -18 -83 -26 -95 -13 -21 -13 -26 3 -43 9 -10 20
-17 24 -14 4 2 10 -26 13 -63 4 -44 13 -82 28 -106 22 -37 22 -37 41 -18 11
10 23 34 28 53 5 19 17 63 26 98 15 56 16 74 6 134 -16 91 -26 107 -63 107
-17 0 -39 4 -49 10 -17 9 -19 3 -31 -63z"/>
<path d="M2588 2552 c-4 -107 -23 -155 -72 -182 -33 -17 -50 -4 -66 55 -7 25
-17 48 -22 51 -16 10 -48 -27 -60 -70 -6 -23 -26 -57 -44 -76 -31 -32 -34 -44
-53 -165 -11 -72 -29 -150 -39 -174 l-20 -43 -11 51 c-6 29 -11 59 -11 67 0
12 -7 14 -29 9 -19 -4 -41 0 -61 10 -18 9 -34 14 -36 12 -11 -10 -5 -277 6
-333 20 -95 70 -178 161 -264 26 -25 39 -47 44 -75 11 -65 12 -67 35 -55 62
33 67 156 14 329 -20 64 -52 145 -71 180 l-36 64 36 -28 c31 -25 39 -43 71
-149 47 -160 57 -208 58 -286 2 -78 -24 -143 -58 -148 -23 -3 -44 -56 -44
-111 0 -35 6 -38 31 -15 23 21 49 11 49 -17 0 -19 4 -17 36 17 20 22 42 51 50
67 12 22 21 27 52 27 60 0 78 35 50 95 -19 42 11 88 70 106 41 12 52 22 90 79
81 124 87 151 86 355 -2 268 -10 311 -98 490 -40 83 -78 167 -85 188 -7 20
-14 37 -16 37 -1 0 -4 -44 -7 -98z"/>
<path d="M2839 2051 c-15 -84 -18 -236 -7 -321 7 -48 6 -50 -3 -20 l-11 35
-13 -25 c-13 -24 -37 -106 -55 -180 -8 -37 -34 -111 -69 -198 l-21 -52 39 20
c38 19 55 33 126 99 17 16 38 49 48 75 19 45 19 47 -1 88 -12 24 -24 57 -27
73 -4 17 7 2 25 -35 43 -88 55 -100 103 -100 31 0 46 7 72 33 64 64 71 177 17
290 -30 64 -120 194 -177 258 l-33 37 -13 -77z"/>
<path d="M3058 1535 l-56 -55 -61 6 -60 7 -6 -29 c-3 -16 -11 -47 -17 -69 -18
-71 -16 -100 9 -103 28 -4 37 -32 28 -88 -3 -24 -3 -44 1 -44 5 0 23 14 41 32
18 18 33 27 33 20 0 -38 46 31 65 98 4 14 30 67 56 118 38 71 48 99 43 120 -4
15 -9 30 -13 34 -3 4 -31 -18 -63 -47z"/>
<path d="M2085 1441 c-60 -26 -125 -55 -143 -65 -56 -29 -146 -127 -166 -181
-26 -68 -46 -95 -108 -143 -56 -43 -104 -99 -94 -110 4 -3 32 20 64 51 32 31
62 57 67 57 5 0 4 -5 -3 -12 -7 -7 -12 -20 -12 -30 0 -17 2 -17 36 -3 40 17
436 252 503 299 l43 31 -6 55 c-8 62 -28 100 -54 100 -9 0 -66 -22 -127 -49z"/>
<path d="M2592 1467 c-8 -9 -10 -35 -6 -76 8 -71 -5 -94 -65 -111 -23 -7 -68
-41 -126 -97 -49 -47 -85 -84 -80 -81 6 2 72 34 148 71 131 64 140 71 157 110
10 24 20 74 22 117 3 70 2 75 -18 78 -11 2 -26 -3 -32 -11z"/>
<path d="M2737 1295 c-16 -8 -42 -26 -59 -40 -16 -14 -35 -25 -42 -25 -19 0
-106 -39 -137 -61 -33 -23 -52 -107 -51 -234 0 -67 -5 -108 -23 -162 -12 -40
-20 -73 -15 -73 6 0 120 71 164 103 13 9 22 30 25 62 l6 49 70 17 c60 14 75
23 109 60 49 55 63 90 72 172 9 89 1 115 -41 133 -42 17 -43 17 -78 -1z"/>
<path d="M2080 1174 c-243 -144 -300 -186 -329 -242 -34 -66 -99 -117 -271
-215 -36 -20 -83 -53 -105 -73 l-40 -35 40 19 c22 11 58 25 80 32 100 32 222
98 285 156 113 102 152 129 278 194 152 78 205 123 221 184 14 57 14 66 -1 66
-7 0 -78 -39 -158 -86z"/>
<path d="M2945 1143 c-6 -28 -196 -232 -247 -265 -20 -13 -29 -32 -38 -72 -6
-30 -19 -65 -29 -78 -10 -13 -26 -38 -35 -55 -17 -35 -36 -44 -36 -18 0 8 9
32 20 52 11 21 20 48 20 60 0 12 14 36 30 53 31 31 35 42 23 53 -3 4 -26 -22
-49 -57 -39 -58 -51 -67 -128 -105 -97 -47 -93 -40 -125 -215 -17 -89 -28
-121 -61 -176 -49 -81 -54 -131 -15 -156 14 -9 76 -27 139 -39 70 -14 146 -37
197 -60 98 -45 171 -55 218 -31 76 40 13 141 -145 234 -75 43 -108 74 -119
110 -8 28 26 91 166 302 171 258 259 432 242 475 -8 23 -21 18 -28 -12z"/>
<path d="M2212 1106 c-28 -24 -95 -67 -149 -96 -54 -29 -172 -108 -263 -175
-91 -67 -193 -137 -228 -155 -68 -36 -182 -149 -182 -180 0 -16 -4 -16 -37 -5
-43 15 -50 27 -28 45 8 7 15 21 15 31 0 14 -7 19 -30 19 -16 0 -30 3 -30 8 0
4 21 20 48 37 49 30 319 225 385 277 20 16 37 34 37 39 0 18 -72 8 -120 -16
-27 -14 -64 -25 -82 -25 -26 0 -48 -13 -98 -56 -100 -86 -163 -125 -236 -145
-75 -21 -114 -50 -114 -86 0 -13 10 -49 21 -81 41 -111 67 -208 77 -290 12
-95 41 -151 91 -172 26 -10 34 -10 48 1 27 23 43 74 49 156 3 43 13 102 22
131 14 46 14 54 2 62 -21 13 -1 45 74 119 69 69 308 249 376 282 123 62 420
281 420 310 0 17 -17 9 -68 -35z"/>
<path d="M2090 949 c-91 -60 -204 -130 -252 -154 -101 -53 -271 -176 -314
-228 -16 -19 -38 -51 -48 -69 -22 -36 -11 -28 185 143 58 51 114 85 240 149
90 45 182 95 204 110 46 32 174 160 160 159 -6 0 -84 -50 -175 -110z"/>
</g>
</svg>
