<?xml version="1.0" standalone="no"?>
<!DOCTYPE svg PUBLIC "-//W3C//DTD SVG 20010904//EN"
 "http://www.w3.org/TR/2001/REC-SVG-20010904/DTD/svg10.dtd">
<svg version="1.0" xmlns="http://www.w3.org/2000/svg"
 width="300.000000pt" height="240.000000pt" viewBox="0 0 300.000000 240.000000"
 preserveAspectRatio="xMidYMid meet">
<metadata>
Created by potrace 1.16, written by Peter Selinger 2001-2019
</metadata>
<g transform="translate(0.000000,240.000000) scale(0.024752,-0.025586)"
fill="#000000" stroke="none">
<path d="M9710 9223 c-44 -7 -123 -35 -175 -61 -53 -26 -118 -47 -280 -88
-172 -43 -293 -100 -349 -162 -115 -129 -161 -171 -228 -208 -40 -23 -122 -76
-183 -119 -213 -149 -601 -399 -670 -431 -38 -17 -122 -49 -185 -69 -159 -52
-257 -100 -384 -191 l-109 -77 40 -19 c87 -41 123 -196 92 -403 -6 -42 -9 -78
-6 -81 10 -10 69 28 171 110 164 133 258 200 317 225 103 44 205 145 346 341
71 99 112 140 168 168 72 36 268 113 324 127 39 11 63 25 90 53 31 34 53 44
170 81 132 42 136 44 196 104 33 34 75 87 92 118 17 30 56 78 87 106 31 28 56
56 56 61 0 5 -19 14 -41 21 -30 9 -38 16 -31 23 6 6 67 37 134 68 203 93 430
253 415 293 -6 17 -11 18 -57 10z"/>
<path d="M4361 8670 c-41 -11 -90 -30 -110 -41 -20 -12 -56 -33 -81 -47 -150
-83 -278 -191 -333 -279 -67 -106 -107 -263 -107 -417 0 -176 44 -299 152
-424 20 -24 51 -67 68 -95 17 -29 43 -72 59 -97 37 -56 57 -148 76 -346 13
-133 13 -158 0 -208 -28 -106 2 -142 117 -145 89 -2 103 -6 150 -44 27 -21 52
-31 87 -35 43 -4 59 1 128 36 50 25 115 48 177 61 106 23 135 35 137 54 1 7 3
66 3 132 1 68 11 178 24 255 12 74 22 177 22 227 0 91 1 93 28 107 15 7 54 19
87 26 95 18 119 28 153 63 57 59 63 100 32 229 -11 46 -20 97 -20 115 0 17 -7
38 -15 47 -32 31 -42 106 -15 106 13 0 22 34 14 54 -3 9 -36 34 -73 56 -100
59 -128 89 -136 146 -9 60 -51 133 -117 201 -49 49 -51 53 -45 95 8 57 -15
104 -62 127 -110 57 -280 74 -400 41z"/>
<path d="M8458 8192 c-84 -43 -166 -87 -182 -97 -40 -26 -190 -196 -291 -330
-100 -133 -146 -171 -370 -303 -257 -152 -256 -152 -326 -270 -33 -57 -58
-106 -55 -109 8 -8 204 103 270 154 69 53 138 85 243 114 150 41 298 151 414
306 40 54 121 150 180 213 128 138 251 278 290 333 66 92 23 89 -173 -11z"/>
<path d="M2515 7969 c-155 -35 -370 -127 -418 -177 -48 -51 -56 -142 -20 -234
29 -73 101 -92 229 -59 74 19 85 19 110 6 43 -22 101 -20 114 5 9 17 4 35 -24
98 -48 107 -66 153 -66 165 0 26 21 -16 68 -132 51 -126 67 -147 102 -136 49
16 51 30 19 118 -16 45 -43 111 -60 146 -34 73 -32 91 3 34 65 -104 102 -197
100 -250 -1 -27 3 -34 25 -39 34 -9 92 22 99 52 4 14 -7 56 -26 106 -63 164
-104 226 -168 254 l-27 12 26 1 c19 1 42 -13 77 -47 56 -51 95 -126 131 -249
20 -67 24 -73 49 -73 32 0 45 8 60 36 10 19 3 39 -50 140 -34 66 -67 135 -74
154 -6 19 -26 45 -44 58 -28 19 -45 22 -114 21 -45 -1 -99 -5 -121 -10z"/>
<path d="M6850 7765 c-180 -38 -332 -120 -503 -271 -48 -42 -87 -79 -87 -83 0
-3 -13 -20 -30 -38 -66 -70 -240 -375 -240 -421 0 -7 17 -20 38 -29 30 -14 69
-16 214 -15 115 2 193 7 222 16 84 25 183 91 658 433 171 124 180 316 18 398
-46 24 -202 29 -290 10z"/>
<path d="M1962 7740 c-18 -11 -45 -41 -60 -67 -73 -125 -219 -326 -289 -398
-21 -22 -103 -89 -181 -149 -175 -133 -234 -197 -294 -318 -74 -147 -83 -187
-83 -378 1 -173 10 -228 45 -273 31 -39 69 -43 132 -13 42 20 58 35 78 72 24
46 35 56 74 69 18 5 18 13 12 108 -9 150 -6 161 66 194 34 15 57 32 54 39 -3
7 2 10 14 7 25 -7 46 28 60 102 18 96 29 123 61 150 20 17 43 25 67 25 55 1
106 29 151 84 67 82 231 419 231 474 0 10 -16 37 -35 59 -34 40 -34 41 -28
110 10 121 -7 144 -75 103z"/>
<path d="M7088 7251 c-67 -22 -157 -80 -295 -193 -158 -129 -267 -187 -354
-188 -38 0 -89 -33 -132 -85 -35 -43 -101 -165 -93 -173 4 -3 100 -6 214 -7
233 0 244 2 364 73 143 84 242 193 223 245 -6 15 -41 32 -77 39 -10 2 43 43
135 105 212 142 235 167 182 191 -37 17 -101 14 -167 -7z"/>
<path d="M4961 7089 c-12 -66 -28 -162 -33 -213 -11 -88 -10 -96 11 -139 17
-35 33 -51 67 -68 l45 -21 92 21 c64 15 129 40 210 81 125 64 231 99 310 101
26 1 47 4 47 6 0 2 -27 37 -61 78 -100 123 -150 150 -407 215 -86 21 -173 44
-192 50 -64 19 -64 20 -89 -111z"/>
<path d="M3925 7110 c-104 -52 -135 -72 -221 -142 -128 -103 -244 -233 -244
-272 0 -16 74 -65 135 -91 107 -46 195 -56 247 -29 23 12 47 15 89 11 l57 -5
27 71 c36 98 41 172 19 287 -10 52 -18 121 -19 153 0 31 -2 57 -5 57 -3 0 -41
-18 -85 -40z"/>
<path d="M7113 7050 c-37 -22 -67 -63 -60 -82 5 -15 -21 -94 -51 -157 -12 -24
-19 -48 -15 -54 3 -6 2 -7 -4 -4 -5 3 -33 -16 -63 -43 -61 -58 -149 -103 -246
-126 -56 -13 -100 -15 -239 -9 -93 3 -195 7 -225 8 -51 2 -55 0 -77 -32 -26
-38 -45 -100 -47 -150 -1 -30 3 -36 29 -44 17 -6 111 -10 210 -11 213 -1 268
10 420 84 84 42 113 62 182 132 108 109 113 115 176 249 51 108 87 207 87 243
0 22 -38 20 -77 -4z"/>
<path d="M5795 6949 c-27 -11 -58 -26 -68 -33 -17 -13 -17 -17 -3 -43 31 -61
165 -188 180 -172 2 2 14 54 26 114 12 61 24 120 27 133 5 21 2 22 -53 21 -34
0 -80 -8 -109 -20z"/>
<path d="M1745 6896 c-28 -7 -56 -16 -63 -20 -20 -12 -39 -57 -56 -135 -22
-98 -27 -106 -98 -151 -33 -22 -67 -48 -74 -57 -16 -22 -18 -89 -4 -130 13
-37 26 -36 154 4 88 27 91 29 134 88 24 33 63 78 87 100 52 48 63 99 46 200
-22 124 -25 126 -126 101z"/>
<path d="M5970 6805 c-20 -142 4 -259 61 -299 28 -19 40 -11 102 65 45 55 183
258 193 283 4 10 -22 14 -113 19 -65 4 -143 10 -174 13 l-57 7 -12 -88z"/>
<path d="M2905 6832 c-33 -10 -76 -26 -95 -36 -93 -49 -239 -173 -226 -194 5
-8 52 -45 226 -178 108 -82 324 -224 340 -224 14 0 19 14 24 70 13 125 27 151
166 301 51 55 91 101 89 103 -64 45 -215 134 -253 149 -73 28 -195 32 -271 9z"/>
<path d="M2149 6779 c-91 -21 -229 -104 -290 -174 -96 -109 -115 -156 -88
-207 27 -50 141 -119 272 -165 106 -37 272 -43 384 -15 145 37 319 138 311
181 -2 8 -30 35 -63 60 -33 25 -118 103 -189 174 -72 71 -145 136 -163 143
-36 15 -118 17 -174 3z"/>
<path d="M5570 6780 c-19 -6 -99 -43 -178 -83 l-143 -72 -127 -1 c-135 0 -173
-6 -237 -34 -153 -67 -192 -82 -238 -87 -76 -8 -101 -27 -138 -102 -27 -56
-33 -84 -42 -184 -8 -88 -7 -127 1 -151 16 -44 15 -103 -4 -205 -31 -163 -6
-290 66 -341 90 -64 312 -135 460 -147 98 -7 231 11 339 47 71 24 102 29 163
27 92 -2 108 9 157 108 17 35 66 113 109 173 85 118 86 119 166 308 58 138 96
270 96 340 0 60 -24 132 -68 199 -45 68 -141 164 -192 190 -40 21 -140 29
-190 15z"/>
<path d="M3453 6579 c-18 -5 -62 -37 -98 -70 -170 -159 -198 -390 -85 -691 16
-42 41 -96 56 -119 62 -98 191 -210 343 -296 64 -37 79 -42 106 -34 17 4 85 6
151 4 182 -8 251 22 358 155 83 104 96 136 96 239 0 68 5 98 19 127 27 51 36
150 20 206 -7 26 -13 101 -13 174 l-1 128 -50 45 c-71 63 -114 83 -179 83 -30
0 -98 7 -151 16 -90 15 -101 15 -160 -1 -88 -24 -140 -21 -208 10 -64 30 -153
40 -204 24z"/>
<path d="M1620 6387 c-84 -35 -294 -177 -312 -210 -18 -34 3 -40 107 -29 53 6
104 17 112 23 13 12 159 198 177 227 11 19 -23 14 -84 -11z"/>
<path d="M1656 6233 c-47 -70 -83 -130 -80 -134 18 -31 218 -36 499 -13 417
34 469 31 524 -32 27 -31 44 -85 38 -128 -4 -35 18 -26 47 20 16 25 40 50 53
55 36 13 119 11 231 -7 150 -23 207 0 168 68 -37 64 -285 282 -335 295 -16 4
-27 1 -33 -10 -14 -26 -94 -77 -161 -103 -299 -118 -575 -92 -797 75 -30 23
-58 41 -62 41 -4 0 -46 -57 -92 -127z"/>
<path d="M978 6281 c-53 -94 -32 -150 83 -226 80 -54 394 -215 417 -215 8 0
103 46 210 103 l195 102 -155 6 c-156 7 -198 16 -198 46 0 17 10 17 -257 -3
-152 -12 -233 27 -258 123 -8 29 -12 66 -10 83 2 16 3 30 2 30 -1 0 -14 -22
-29 -49z"/>
<path d="M6059 6309 c-19 -19 -21 -29 -15 -94 6 -70 5 -75 -37 -171 -24 -54
-52 -120 -61 -145 -24 -68 -65 -117 -148 -179 -91 -69 -98 -94 -44 -149 l36
-37 -30 -23 c-67 -49 -89 -125 -49 -167 17 -19 24 -43 31 -121 5 -54 7 -118 5
-142 -3 -25 -1 -56 4 -69 9 -22 14 -24 57 -20 65 6 177 64 232 118 53 54 291
324 348 395 137 172 202 415 175 647 -18 149 -41 179 -128 160 -34 -7 -79 -6
-163 4 -162 19 -188 18 -213 -7z"/>
<path d="M2140 6059 c-165 -25 -234 -47 -409 -130 -80 -38 -163 -78 -183 -87
-21 -9 -37 -19 -37 -22 0 -8 109 -76 174 -108 271 -135 560 -147 846 -35 90
35 129 72 129 123 0 56 -22 74 -82 67 -26 -3 -48 -4 -48 -1 0 3 16 24 35 47
60 69 41 133 -44 157 -56 15 -243 10 -381 -11z"/>
<path d="M2730 5940 c-22 -22 -23 -28 -17 -134 8 -124 32 -231 76 -336 59
-138 117 -206 361 -422 52 -46 115 -113 140 -149 67 -94 173 -145 215 -102 15
15 17 33 10 155 l-7 139 27 41 c27 40 55 109 55 134 0 8 -9 23 -20 34 -19 19
-19 22 -5 50 34 67 17 97 -85 151 -96 50 -152 108 -210 221 -28 55 -38 86 -34
102 7 31 -8 59 -48 87 -28 20 -49 24 -163 30 -71 4 -162 10 -201 14 -66 7 -73
6 -94 -15z"/>
<path d="M4380 5613 c-10 -39 -27 -61 -88 -120 -47 -45 -73 -76 -67 -81 6 -5
36 -19 67 -32 54 -22 58 -22 91 -7 24 12 61 17 115 17 91 0 110 15 68 53 -95
88 -116 113 -137 162 -12 30 -26 55 -30 55 -3 0 -12 -21 -19 -47z"/>
<path d="M5299 5375 c-20 -9 -40 -26 -46 -38 -14 -33 1 -236 21 -273 24 -46
30 -139 12 -204 -8 -30 -14 -56 -13 -57 1 -1 21 2 44 6 60 11 70 2 54 -51 -16
-55 -74 -162 -115 -213 -54 -66 -60 -84 -67 -210 -8 -134 -46 -356 -85 -487
-10 -35 14 -17 112 84 54 56 163 167 241 245 119 120 148 155 177 215 59 121
84 301 50 353 -25 38 -29 130 -9 205 23 86 21 153 -4 220 -12 30 -21 73 -21
96 l0 40 -62 12 c-34 6 -79 24 -102 39 -50 33 -133 41 -187 18z"/>
<path d="M4470 5349 c-101 -46 -114 -86 -46 -146 52 -46 125 -71 240 -83 68
-7 99 -16 166 -50 82 -42 82 -42 173 -38 123 6 180 30 207 90 34 74 20 161
-30 188 -11 6 -86 17 -167 25 -82 9 -182 20 -223 25 -135 17 -269 12 -320 -11z"/>
<path d="M4095 5345 c-125 -20 -175 -34 -242 -66 -86 -41 -103 -65 -103 -149
0 -93 11 -100 92 -62 73 35 192 62 275 62 32 0 97 -9 144 -22 83 -21 88 -21
113 -5 33 22 34 55 2 101 -13 19 -26 58 -30 86 -6 42 -11 52 -32 60 -33 13
-120 11 -219 -5z"/>
<path d="M3700 5328 c-78 -14 -83 -20 -78 -98 3 -64 3 -66 -27 -86 -28 -18
-30 -23 -27 -71 4 -54 -9 -183 -35 -353 -20 -135 -13 -322 16 -435 23 -87 71
-195 118 -263 77 -112 221 -230 325 -264 35 -11 67 -25 72 -29 16 -15 40 -11
28 4 -6 7 -36 68 -66 136 -31 68 -97 211 -147 319 l-91 195 21 45 c20 41 21
46 6 68 -17 26 -19 38 -6 30 11 -7 41 3 41 14 0 5 -25 35 -55 66 -30 32 -55
61 -55 65 0 4 16 5 35 2 45 -7 46 12 6 76 -54 85 -67 166 -62 386 2 68 3 71
52 127 27 31 49 61 49 67 0 13 -44 12 -120 -1z"/>
<path d="M4484 5093 c-9 -10 -28 -42 -42 -71 -19 -43 -23 -64 -19 -102 8 -64
57 -205 91 -258 36 -57 62 -69 127 -54 64 15 140 15 227 0 l68 -11 79 41 c82
43 168 107 203 152 63 81 69 248 10 263 -28 8 -54 -4 -118 -52 -48 -36 -61
-41 -108 -41 -57 0 -181 41 -331 111 -94 44 -158 51 -187 22z"/>
<path d="M3935 5086 c-60 -19 -96 -40 -137 -80 -61 -60 -63 -137 -5 -222 82
-122 168 -118 309 12 53 49 82 59 141 49 110 -19 142 2 142 94 0 89 -32 117
-167 145 -91 19 -227 20 -283 2z"/>
<path d="M4162 4791 c-18 -5 -55 -30 -82 -55 -28 -26 -79 -61 -115 -77 -54
-26 -66 -36 -76 -66 -13 -40 -8 -138 9 -155 10 -10 190 -27 327 -30 62 -1 78
3 143 36 50 25 76 45 82 62 23 60 1 193 -39 241 -11 13 -31 27 -46 33 -38 14
-163 21 -203 11z"/>
<path d="M5275 4762 c-27 -6 -54 -24 -187 -129 -135 -105 -154 -114 -177 -85
-26 33 -56 42 -153 49 -86 5 -94 4 -112 -16 -11 -11 -31 -21 -45 -21 -83 -1
-94 -28 -57 -148 14 -48 26 -110 26 -137 0 -28 4 -66 10 -84 13 -45 66 -99
104 -107 39 -7 272 53 342 89 61 31 114 78 115 104 1 10 2 61 4 113 3 130 24
173 109 233 29 20 66 85 66 116 0 21 -15 29 -45 23z"/>
<path d="M4002 4383 c-45 -22 -85 -93 -84 -148 1 -70 95 -225 150 -247 41 -15
181 -4 233 19 24 11 68 37 98 57 29 20 64 39 77 42 45 11 44 77 -2 172 -30 62
-63 82 -132 82 -28 0 -94 9 -147 20 -117 24 -150 25 -193 3z"/>
<path d="M5564 4218 c-206 -257 -366 -398 -566 -499 -173 -87 -346 -129 -535
-129 -269 0 -497 86 -695 262 -38 33 -68 56 -68 51 0 -4 -13 -23 -29 -42 -17
-19 -27 -40 -23 -46 4 -7 39 -40 77 -74 92 -81 206 -153 231 -145 13 4 15 3 6
-3 -9 -7 8 -21 59 -49 57 -31 96 -65 188 -162 64 -68 118 -129 121 -136 3 -6
32 -48 66 -91 78 -103 211 -298 302 -445 85 -137 137 -194 198 -221 51 -23 83
-20 155 17 41 20 48 29 62 76 18 57 22 160 19 413 -3 181 5 235 55 379 78 226
277 575 467 817 34 44 38 55 33 91 -3 22 -10 45 -15 50 -6 6 -46 -36 -108
-114z"/>
<path d="M5725 4302 c4 -21 0 -45 -13 -76 -17 -37 -18 -45 -6 -50 8 -3 24 -27
37 -53 21 -44 27 -50 85 -69 58 -21 81 -33 125 -67 24 -19 21 -27 -8 -27 -14
0 -51 -9 -82 -20 -31 -11 -96 -23 -145 -26 -49 -4 -91 -11 -94 -15 -16 -26
110 -39 236 -24 59 7 158 -5 268 -32 18 -4 22 -1 22 20 0 27 20 37 75 37 47 0
46 1 -217 149 -105 59 -116 68 -133 109 -21 51 -59 97 -117 144 l-40 32 7 -32z"/>
<path d="M5583 4043 c-109 -167 -148 -236 -228 -398 -83 -168 -135 -305 -158
-416 -30 -145 -32 -134 21 -172 l48 -34 0 46 -1 46 83 3 c151 5 320 -37 404
-101 23 -18 65 -63 94 -100 100 -131 189 -215 321 -304 72 -49 224 -191 380
-356 51 -54 106 -128 147 -196 101 -167 86 -156 208 -156 l103 0 75 -46 c228
-140 442 -210 645 -211 130 -1 172 12 167 52 -6 55 -70 110 -159 136 -40 12
-75 14 -141 9 -74 -5 -101 -3 -183 18 -192 50 -346 133 -450 245 -65 69 -96
113 -421 607 -102 154 -204 305 -227 335 -47 60 -168 303 -280 558 -78 178
-79 190 -20 211 18 6 30 13 28 15 -12 12 -109 11 -146 -1 -30 -10 -75 -14
-149 -11 -102 3 -107 4 -130 31 -29 34 -30 51 -3 76 23 21 129 51 184 51 23 0
35 5 35 14 0 16 -59 56 -83 56 -17 0 -62 50 -72 80 -3 11 -10 20 -14 20 -5 0
-40 -48 -78 -107z"/>
<path d="M4798 4016 c-57 -15 -82 -31 -154 -99 -90 -83 -109 -89 -199 -61 -32
9 -66 13 -95 9 -63 -9 -111 -25 -105 -36 4 -5 -1 -6 -9 -3 -18 7 -59 -14 -51
-26 3 -6 0 -7 -7 -5 -17 7 -47 -45 -39 -67 3 -9 19 -26 34 -38 22 -18 30 -20
43 -10 12 11 13 10 9 -2 -4 -11 10 -19 57 -34 126 -38 360 -21 560 42 138 44
218 144 221 278 l2 61 -110 2 c-64 1 -129 -3 -157 -11z"/>
<path d="M6250 3858 c3 -3 64 -29 135 -58 142 -57 196 -82 216 -102 58 -55
211 -190 244 -215 67 -51 151 -94 171 -87 15 4 16 4 5 -4 -11 -8 -4 -16 30
-37 100 -62 158 -142 180 -247 23 -111 100 -208 258 -325 130 -98 188 -95 211
10 27 117 -49 296 -184 436 -67 69 -253 221 -271 221 -3 0 -35 21 -72 48 -93
65 -169 110 -304 181 -163 86 -245 117 -377 145 -115 24 -252 43 -242 34z"/>
<path d="M6090 3796 c-19 -7 -47 -18 -62 -24 l-27 -11 30 -73 c17 -40 42 -100
56 -132 80 -193 217 -430 288 -499 46 -45 63 -50 250 -82 241 -41 355 -63 434
-86 41 -11 85 -18 98 -14 32 8 53 64 52 139 -1 119 -59 221 -160 283 -103 64
-238 162 -354 258 -174 145 -273 206 -384 239 -65 19 -173 20 -221 2z"/>
<path d="M3420 3669 c-88 -10 -203 -35 -245 -53 -29 -13 -28 -13 40 -20 97
-11 203 -33 247 -52 l37 -17 47 42 c25 22 72 54 104 70 l58 29 -45 6 c-58 8
-146 6 -243 -5z"/>
<path d="M3710 3587 c-92 -39 -173 -80 -217 -110 -51 -34 -56 -62 -17 -113 21
-27 25 -40 20 -68 -4 -19 -3 -37 1 -39 12 -7 74 7 188 42 104 32 156 38 199
21 81 -31 89 -105 23 -232 -87 -169 -194 -307 -393 -504 -144 -144 -234 -212
-387 -294 -43 -23 -76 -47 -74 -54 12 -38 423 -60 612 -32 269 39 529 139 752
288 113 76 220 176 229 215 5 16 0 37 -11 57 -43 73 -182 277 -240 351 -61 77
-239 265 -280 295 -11 8 -40 31 -65 51 -57 46 -222 138 -258 144 -16 3 -50 -4
-82 -18z"/>
<path d="M2939 3556 c-36 -12 -98 -40 -139 -60 -71 -37 -270 -161 -270 -170 0
-2 42 13 93 34 152 63 274 85 467 85 91 0 185 -3 210 -7 43 -7 48 -5 90 32 24
21 42 41 40 43 -8 7 -130 35 -224 52 -123 21 -189 19 -267 -9z"/>
<path d="M2730 3525 c-228 -70 -455 -196 -650 -359 -183 -152 -314 -308 -447
-531 -71 -118 -73 -137 -16 -143 30 -3 30 -5 35 -67 11 -135 125 -249 298
-298 83 -24 180 -39 206 -33 12 3 35 26 51 51 45 73 145 126 348 187 62 19
107 39 118 52 15 17 157 299 157 311 0 2 33 73 74 157 118 243 252 425 375
508 28 19 51 38 51 41 0 11 -127 21 -237 21 -243 -2 -491 -76 -692 -206 -40
-25 -75 -46 -78 -46 -8 0 100 98 184 167 81 66 219 157 286 189 65 30 35 30
-63 -1z"/>
<path d="M3313 3358 c-56 -49 -78 -76 -195 -245 -83 -120 -140 -219 -254 -445
-168 -332 -148 -309 -339 -384 -199 -77 -251 -108 -281 -166 -24 -47 -18 -83
20 -112 43 -32 58 -32 111 -1 58 33 174 71 268 86 84 13 78 8 92 90 9 61 31
72 158 80 159 11 195 29 367 178 122 107 525 513 553 557 37 60 71 177 63 219
-9 45 -48 75 -98 75 -22 0 -98 -20 -170 -45 -175 -60 -196 -59 -176 10 32 116
-35 175 -119 103z"/>
<path d="M5300 3075 c0 -4 25 -33 56 -64 30 -31 60 -64 65 -73 9 -16 6 -16
-28 -4 -21 8 -80 32 -132 55 -52 22 -96 39 -99 37 -9 -10 20 -112 48 -172 22
-46 47 -77 93 -116 260 -224 777 -528 1157 -681 139 -56 240 -90 247 -83 6 5
-41 73 -135 197 -85 113 -221 247 -312 309 -92 61 -187 146 -399 353 -188 183
-211 199 -311 222 -66 15 -250 30 -250 20z"/>
<path d="M6460 2956 c0 -15 198 -353 285 -486 243 -371 420 -517 697 -575 138
-29 270 -9 311 47 86 116 -54 479 -265 689 -75 75 -147 114 -236 130 -138 24
-160 31 -226 75 -80 51 -161 79 -279 94 -45 6 -111 15 -147 20 -68 10 -140 13
-140 6z"/>
<path d="M7752 2807 c-6 -7 -15 -32 -20 -55 -14 -60 -37 -92 -68 -92 -14 0
-82 23 -150 51 -69 28 -127 49 -130 47 -2 -3 32 -29 78 -59 168 -110 249 -230
307 -453 45 -172 46 -284 2 -330 -31 -33 -26 -42 26 -60 69 -24 101 -59 115
-127 l11 -56 101 -8 c56 -5 112 -8 126 -7 14 1 125 4 248 7 193 4 228 8 260
24 48 25 76 55 101 111 37 81 31 100 -70 245 -50 72 -96 133 -103 137 -6 4
-64 28 -129 54 -77 30 -137 61 -175 90 -73 57 -183 131 -214 143 -58 23 -167
143 -257 284 -24 37 -45 67 -46 67 -1 0 -7 -6 -13 -13z"/>
<path d="M5173 2740 c3 -41 1 -108 -5 -149 l-9 -74 32 -33 c130 -134 432 -286
804 -404 183 -58 690 -178 702 -166 2 2 -9 7 -24 10 -63 16 -384 142 -468 183
-170 86 -402 224 -645 386 -149 99 -217 151 -280 216 -30 31 -68 67 -84 81
l-29 25 6 -75z"/>
<path d="M4650 2604 c-147 -151 -386 -297 -605 -369 -203 -66 -300 -80 -570
-79 -219 0 -252 3 -377 27 -186 37 -283 34 -319 -9 -12 -14 -9 -20 15 -39 16
-13 43 -26 60 -29 44 -9 209 -73 262 -103 25 -14 61 -40 81 -59 35 -34 37 -34
127 -34 102 0 420 24 538 40 125 17 245 64 438 172 156 87 281 180 363 268 89
97 94 108 74 173 -9 29 -22 61 -29 70 -12 16 -17 14 -58 -29z"/>
<path d="M1538 2458 c-24 -18 -68 -160 -78 -247 -13 -120 5 -202 62 -284 31
-44 69 -58 161 -59 103 -1 135 11 144 53 5 28 8 30 37 25 83 -16 145 -18 180
-6 37 12 106 69 106 87 0 6 -31 13 -68 16 -37 4 -101 18 -141 32 -176 60 -276
155 -322 307 -12 41 -27 72 -39 78 -23 13 -23 13 -42 -2z"/>
<path d="M8710 2146 c0 -3 21 -34 46 -68 60 -82 83 -128 90 -181 8 -56 -2 -74
-98 -177 -74 -78 -85 -100 -53 -100 8 0 29 -6 47 -14 18 -8 116 -46 218 -85
528 -200 632 -251 850 -414 58 -44 140 -105 182 -136 80 -58 91 -71 59 -71
-23 0 -191 119 -278 197 -35 31 -75 54 -120 67 -16 5 -25 2 -32 -13 -14 -26
-73 -61 -135 -82 l-51 -16 30 -15 c56 -29 300 -117 370 -134 112 -27 144 -69
155 -201 5 -67 11 -88 34 -117 46 -61 148 -73 311 -35 79 18 140 21 505 29
228 5 453 13 500 19 183 22 261 112 168 194 -90 78 -354 170 -652 227 -185 35
-412 48 -524 31 l-73 -11 -46 45 c-46 46 -106 82 -175 104 -21 7 -38 16 -38
20 0 16 -199 254 -316 378 -258 274 -511 451 -754 528 -81 25 -220 45 -220 31z"/>
<path d="M2585 2050 c-205 -54 -352 -173 -343 -277 3 -34 8 -40 48 -60 35 -18
75 -25 185 -33 164 -12 237 -30 268 -67 102 -120 515 -120 754 1 40 19 74 40
77 45 12 19 -64 34 -204 38 -80 2 -151 6 -158 9 -11 3 -9 12 7 38 36 58 29 92
-31 151 -147 141 -405 208 -603 155z"/>
<path d="M2127 1944 c-43 -33 -55 -37 -158 -49 -80 -9 -118 -18 -138 -32 -41
-31 -107 -62 -148 -71 l-38 -8 80 -78 c101 -98 227 -184 358 -246 127 -60 196
-83 328 -111 96 -20 134 -22 479 -24 339 -2 384 -4 467 -22 166 -38 233 -64
328 -128 128 -86 163 -105 192 -105 24 0 25 3 20 35 -6 38 -56 127 -124 223
-103 145 -256 187 -492 134 -126 -28 -265 -19 -436 27 -22 6 -70 28 -106 50
-93 56 -168 78 -338 100 -82 11 -162 26 -179 35 -34 17 -72 61 -72 83 0 7 18
50 41 94 22 45 39 91 37 102 -5 36 -46 32 -101 -9z"/>
<path d="M3298 1869 c-11 -6 -18 -22 -18 -40 0 -16 -5 -38 -12 -49 -7 -10 -9
-22 -6 -25 3 -4 46 -9 95 -11 48 -3 106 -10 128 -16 51 -13 127 -52 145 -73
13 -15 11 -20 -13 -39 -14 -11 -59 -34 -99 -50 -40 -16 -77 -34 -83 -39 -7 -7
-4 -8 9 -3 27 9 132 -12 180 -36 68 -34 113 -76 197 -179 82 -102 116 -125
104 -70 -5 24 -2 33 18 46 20 13 37 14 98 7 158 -19 167 37 28 176 -43 44 -69
76 -63 82 5 5 63 12 129 16 66 3 123 8 127 10 28 17 -51 60 -157 85 -27 7
-153 57 -280 111 l-230 100 -140 3 c-81 2 -147 0 -157 -6z"/>
<path d="M4292 1588 c-4 -49 -24 -58 -123 -58 -54 0 -90 -4 -95 -11 -4 -7 22
-37 62 -74 63 -57 69 -65 69 -101 0 -26 -9 -51 -24 -73 -21 -29 -27 -32 -60
-27 -20 3 -62 8 -93 12 l-58 7 -15 -36 c-8 -20 -15 -59 -15 -87 0 -52 -22
-118 -43 -132 -29 -18 -75 -7 -130 32 -66 46 -65 51 -39 -100 26 -146 17 -278
-23 -346 -32 -55 -65 -86 -117 -110 -48 -22 -72 -70 -65 -132 6 -58 32 -91 92
-121 93 -47 266 -28 355 38 57 42 118 107 139 148 44 84 89 181 109 233 26 71
54 131 142 315 40 83 93 193 117 245 91 192 65 284 -107 374 -38 20 -70 36
-72 36 -2 0 -5 -15 -6 -32z"/>
<path d="M8270 1584 c-52 -20 -81 -25 -150 -24 -47 1 -89 1 -94 1 -6 -1 8 -17
30 -37 21 -20 71 -66 109 -103 130 -124 264 -230 341 -269 126 -64 501 -111
733 -92 156 13 277 48 308 89 17 22 16 25 -13 60 -36 43 -156 98 -434 201
-102 37 -126 48 -165 76 -93 67 -327 124 -500 124 -82 -1 -112 -5 -165 -26z"/>
</g>
</svg>
