<svg height="512pt" viewBox="0 0 512.00013 512" width="512pt" xmlns="http://www.w3.org/2000/svg"><path d="m287.78125 121.96875c-10.820312-10.820312-16.78125-25.210938-16.78125-40.515625v-66.453125c0-8.285156-6.714844-15-15-15s-15 6.714844-15 15v66.453125c0 23.320313 9.082031 45.242187 25.570312 61.730469l30.519532 30.515625c25.996094 25.996093 40.3125 60.5625 40.3125 97.324219v.738281c0 32.679687-12.207032 63.898437-34.378906 87.910156l-14.457032 15.667969c-30.671875 33.222656-47.566406 76.429687-47.566406 121.660156 0 8.285156 6.714844 15 15 15s15-6.714844 15-15c0-37.664062 14.066406-73.644531 39.617188-101.320312l14.453124-15.664063c27.296876-29.566406 42.328126-68.011719 42.328126-108.253906v-.738281c0-44.777344-17.4375-86.875-49.097657-118.535157zm0 0"/><path d="m507.605469 277.527344-32.132813-32.132813c-2.8125-2.8125-6.628906-4.394531-10.605468-4.394531-3.980469 0-7.796876 1.582031-10.605469 4.394531l-32.132813 32.132813c-5.859375 5.859375-5.859375 15.355468 0 21.210937 5.855469 5.859375 15.351563 5.859375 21.210938 0l6.222656-6.21875c-1.449219 26.035157-8.054688 51.882813-19.339844 75.359375-12.851562 26.742188-31.890625 50.671875-55.0625 69.207032-6.46875 5.175781-7.515625 14.617187-2.339844 21.085937 2.960938 3.703125 7.320313 5.628906 11.722657 5.628906 3.285156 0 6.59375-1.074219 9.359375-3.289062 26.660156-21.328125 48.570312-48.867188 63.359375-79.636719 13.300781-27.675781 20.941406-58.214844 22.347656-88.921875l6.785156 6.785156c2.925781 2.929688 6.765625 4.394531 10.605469 4.394531 3.835938 0 7.675781-1.464843 10.605469-4.394531 5.859375-5.855469 5.859375-15.355469 0-21.210937zm0 0"/><path d="m84.71875 229.332031c-14.714844 14.71875-27.253906 31.117188-37.5 48.972657-11.316406-27.539063-17.21875-57.164063-17.21875-87.066407 0-12.0625.265625-33.1875 3.25-60.050781l12.726562-114.53125c.914063-8.230469-5.019531-15.648438-13.253906-16.5625-8.230468-.914062-15.648437 5.019531-16.5625 13.253906l-12.726562 114.527344c-3.160156 28.4375-3.433594 50.804688-3.433594 63.363281 0 42.632813 10.609375 84.761719 30.722656 122.304688-9.71875 26.144531-14.65625 53.527343-14.65625 81.539062v101.917969c0 8.285156 6.714844 15 15 15s15-6.714844 15-15v-101.917969c0-26.976562 5.234375-53.296875 15.5625-78.222656 10.300782-24.867187 25.160156-47.132813 44.171875-66.183594 2.828125-2.757812 4.535157-6.597656 4.535157-10.742187-.003907-13.449219-16.273438-19.953125-25.617188-10.601563zm0 0"/></svg>